%TF.GenerationSoftware,KiCad,Pcbnew,7.0.8-7.0.8~ubuntu22.04.1*%
%TF.CreationDate,2023-10-20T20:05:53+03:00*%
%TF.ProjectId,lisn,6c69736e-2e6b-4696-9361-645f70636258,rev?*%
%TF.SameCoordinates,PXa6e49c0PY6dac2c0*%
%TF.FileFunction,Copper,L1,Top*%
%TF.FilePolarity,Positive*%
%FSLAX46Y46*%
G04 Gerber Fmt 4.6, Leading zero omitted, Abs format (unit mm)*
G04 Created by KiCad (PCBNEW 7.0.8-7.0.8~ubuntu22.04.1) date 2023-10-20 20:05:53*
%MOMM*%
%LPD*%
G01*
G04 APERTURE LIST*
G04 Aperture macros list*
%AMRoundRect*
0 Rectangle with rounded corners*
0 $1 Rounding radius*
0 $2 $3 $4 $5 $6 $7 $8 $9 X,Y pos of 4 corners*
0 Add a 4 corners polygon primitive as box body*
4,1,4,$2,$3,$4,$5,$6,$7,$8,$9,$2,$3,0*
0 Add four circle primitives for the rounded corners*
1,1,$1+$1,$2,$3*
1,1,$1+$1,$4,$5*
1,1,$1+$1,$6,$7*
1,1,$1+$1,$8,$9*
0 Add four rect primitives between the rounded corners*
20,1,$1+$1,$2,$3,$4,$5,0*
20,1,$1+$1,$4,$5,$6,$7,0*
20,1,$1+$1,$6,$7,$8,$9,0*
20,1,$1+$1,$8,$9,$2,$3,0*%
G04 Aperture macros list end*
%TA.AperFunction,SMDPad,CuDef*%
%ADD10RoundRect,0.200000X-1.300000X-0.200000X1.300000X-0.200000X1.300000X0.200000X-1.300000X0.200000X0*%
%TD*%
%TA.AperFunction,SMDPad,CuDef*%
%ADD11RoundRect,0.250000X-3.750000X-2.250000X3.750000X-2.250000X3.750000X2.250000X-3.750000X2.250000X0*%
%TD*%
%TA.AperFunction,SMDPad,CuDef*%
%ADD12R,1.000000X2.000000*%
%TD*%
%TA.AperFunction,SMDPad,CuDef*%
%ADD13RoundRect,0.200000X0.200000X0.275000X-0.200000X0.275000X-0.200000X-0.275000X0.200000X-0.275000X0*%
%TD*%
%TA.AperFunction,SMDPad,CuDef*%
%ADD14RoundRect,0.200000X0.275000X-0.200000X0.275000X0.200000X-0.275000X0.200000X-0.275000X-0.200000X0*%
%TD*%
%TA.AperFunction,SMDPad,CuDef*%
%ADD15RoundRect,0.200000X-0.275000X0.200000X-0.275000X-0.200000X0.275000X-0.200000X0.275000X0.200000X0*%
%TD*%
%TA.AperFunction,SMDPad,CuDef*%
%ADD16R,2.600000X8.200000*%
%TD*%
%TA.AperFunction,SMDPad,CuDef*%
%ADD17RoundRect,0.225000X0.375000X-0.225000X0.375000X0.225000X-0.375000X0.225000X-0.375000X-0.225000X0*%
%TD*%
%TA.AperFunction,SMDPad,CuDef*%
%ADD18RoundRect,0.225000X-0.375000X0.225000X-0.375000X-0.225000X0.375000X-0.225000X0.375000X0.225000X0*%
%TD*%
%TA.AperFunction,ComponentPad*%
%ADD19C,6.400000*%
%TD*%
%TA.AperFunction,ComponentPad*%
%ADD20C,7.400000*%
%TD*%
%TA.AperFunction,SMDPad,CuDef*%
%ADD21R,5.080000X1.500000*%
%TD*%
%TA.AperFunction,SMDPad,CuDef*%
%ADD22RoundRect,0.250000X-1.000000X-0.500000X1.000000X-0.500000X1.000000X0.500000X-1.000000X0.500000X0*%
%TD*%
%TA.AperFunction,SMDPad,CuDef*%
%ADD23RoundRect,0.250000X0.325000X1.100000X-0.325000X1.100000X-0.325000X-1.100000X0.325000X-1.100000X0*%
%TD*%
%TA.AperFunction,SMDPad,CuDef*%
%ADD24RoundRect,0.250000X1.100000X-0.325000X1.100000X0.325000X-1.100000X0.325000X-1.100000X-0.325000X0*%
%TD*%
%TA.AperFunction,Conductor*%
%ADD25C,0.600000*%
%TD*%
G04 APERTURE END LIST*
D10*
%TO.P,T1,1,AA*%
%TO.N,GND*%
X-35600000Y19500000D03*
%TO.P,T1,2,AB*%
%TO.N,/DIFF_MODE*%
X-35600000Y14500000D03*
%TO.P,T1,3,SA*%
%TO.N,Net-(D3-K)*%
X-24400000Y14500000D03*
%TO.P,T1,4,SC*%
%TO.N,/COMMON_MODE*%
X-24400000Y17000000D03*
%TO.P,T1,5,SB*%
%TO.N,Net-(D1-K)*%
X-24400000Y19500000D03*
%TO.P,T1,NC*%
%TO.N,N/C*%
X-35600000Y17000000D03*
%TD*%
D11*
%TO.P,J2,1,Pin_1*%
%TO.N,/IN_M*%
X-37575000Y42500000D03*
%TD*%
%TO.P,J1,1,Pin_1*%
%TO.N,/IN_P*%
X-37575000Y23500000D03*
%TD*%
D12*
%TO.P,SW1,1,A*%
%TO.N,/OUTPUT*%
X-17500000Y5000000D03*
%TO.P,SW1,2,B*%
%TO.N,/COMMON_MODE*%
X-20000000Y5000000D03*
%TO.P,SW1,3,C*%
%TO.N,Net-(SW1A-C)*%
X-22500000Y5000000D03*
%TO.P,SW1,4,A*%
X-17500000Y7800000D03*
%TO.P,SW1,5,B*%
%TO.N,/DIFF_MODE*%
X-20000000Y7800000D03*
%TO.P,SW1,6,C*%
%TO.N,/OUTPUT*%
X-22500000Y7800000D03*
%TD*%
D13*
%TO.P,R8,1*%
%TO.N,GND*%
X-36075000Y10500000D03*
%TO.P,R8,2*%
%TO.N,Net-(D5-A)*%
X-37725000Y10500000D03*
%TD*%
%TO.P,R7,1*%
%TO.N,/OUTPUT*%
X-36075000Y9000000D03*
%TO.P,R7,2*%
%TO.N,Net-(D5-A)*%
X-37725000Y9000000D03*
%TD*%
D14*
%TO.P,R5,1*%
%TO.N,/COMMON_MODE*%
X-21000000Y10975000D03*
%TO.P,R5,2*%
%TO.N,GND*%
X-21000000Y12625000D03*
%TD*%
D15*
%TO.P,R4,2*%
%TO.N,Net-(D3-K)*%
X-10500000Y16675000D03*
%TO.P,R4,1*%
%TO.N,Net-(C5-Pad2)*%
X-10500000Y18325000D03*
%TD*%
%TO.P,R3,2*%
%TO.N,Net-(D3-K)*%
X-12000000Y16675000D03*
%TO.P,R3,1*%
%TO.N,Net-(C5-Pad2)*%
X-12000000Y18325000D03*
%TD*%
%TO.P,R2,1*%
%TO.N,Net-(C4-Pad2)*%
X-14500000Y18325000D03*
%TO.P,R2,2*%
%TO.N,Net-(D1-K)*%
X-14500000Y16675000D03*
%TD*%
%TO.P,R1,1*%
%TO.N,Net-(C4-Pad2)*%
X-16000000Y18325000D03*
%TO.P,R1,2*%
%TO.N,Net-(D1-K)*%
X-16000000Y16675000D03*
%TD*%
D16*
%TO.P,L4,1,1*%
%TO.N,Net-(L2-Pad2)*%
X-16300000Y36900000D03*
%TO.P,L4,2,2*%
%TO.N,/OUT_M*%
X-10700000Y36900000D03*
%TD*%
%TO.P,L3,1,1*%
%TO.N,Net-(L1-Pad2)*%
X-16300000Y27400000D03*
%TO.P,L3,2,2*%
%TO.N,/OUT_P*%
X-10700000Y27400000D03*
%TD*%
D17*
%TO.P,D6,1,K*%
%TO.N,Net-(D5-A)*%
X-42500000Y7850000D03*
%TO.P,D6,2,A*%
%TO.N,GND*%
X-42500000Y11150000D03*
%TD*%
D18*
%TO.P,D5,1,K*%
%TO.N,GND*%
X-40100000Y11150000D03*
%TO.P,D5,2,A*%
%TO.N,Net-(D5-A)*%
X-40100000Y7850000D03*
%TD*%
D17*
%TO.P,D4,1,K*%
%TO.N,GND*%
X-9500000Y11700000D03*
%TO.P,D4,2,A*%
%TO.N,Net-(D3-K)*%
X-9500000Y15000000D03*
%TD*%
D18*
%TO.P,D3,2,A*%
%TO.N,GND*%
X-12000000Y11700000D03*
%TO.P,D3,1,K*%
%TO.N,Net-(D3-K)*%
X-12000000Y15000000D03*
%TD*%
D17*
%TO.P,D2,1,K*%
%TO.N,GND*%
X-14500000Y11700000D03*
%TO.P,D2,2,A*%
%TO.N,Net-(D1-K)*%
X-14500000Y15000000D03*
%TD*%
D18*
%TO.P,D1,1,K*%
%TO.N,Net-(D1-K)*%
X-17000000Y15000000D03*
%TO.P,D1,2,A*%
%TO.N,GND*%
X-17000000Y11700000D03*
%TD*%
D15*
%TO.P,R6,2*%
%TO.N,Net-(SW1A-C)*%
X-19300000Y10975000D03*
%TO.P,R6,1*%
%TO.N,GND*%
X-19300000Y12625000D03*
%TD*%
D16*
%TO.P,L2,1,1*%
%TO.N,/INF_M*%
X-25600000Y36900000D03*
%TO.P,L2,2,2*%
%TO.N,Net-(L2-Pad2)*%
X-20000000Y36900000D03*
%TD*%
%TO.P,L1,1,1*%
%TO.N,/INF_P*%
X-25600000Y27400000D03*
%TO.P,L1,2,2*%
%TO.N,Net-(L1-Pad2)*%
X-20000000Y27400000D03*
%TD*%
D19*
%TO.P,J4,1,Pin_1*%
%TO.N,GND*%
X-29500000Y4500000D03*
%TD*%
%TO.P,J3,1,Pin_1*%
%TO.N,GND*%
X-29500000Y44500000D03*
%TD*%
D20*
%TO.P,J6,1,Pin_1*%
%TO.N,/OUT_M*%
X-4500000Y42500000D03*
%TD*%
%TO.P,J5,1,Pin_1*%
%TO.N,/OUT_P*%
X-4500000Y23500000D03*
%TD*%
D21*
%TO.P,J7,2,Ext*%
%TO.N,GND*%
X-47137500Y3250000D03*
X-47137500Y11750000D03*
%TO.P,J7,1,In*%
%TO.N,Net-(D5-A)*%
X-47137500Y7500000D03*
%TD*%
D22*
%TO.P,FL1,1,1*%
%TO.N,/IN_M*%
X-35550000Y33700000D03*
%TO.P,FL1,2,2*%
%TO.N,/IN_P*%
X-35550000Y30700000D03*
%TO.P,FL1,3,3*%
%TO.N,/INF_P*%
X-29050000Y30700000D03*
%TO.P,FL1,4,4*%
%TO.N,/INF_M*%
X-29050000Y33700000D03*
%TD*%
D23*
%TO.P,C5,1*%
%TO.N,/OUT_P*%
X-9325000Y21000000D03*
%TO.P,C5,2*%
%TO.N,Net-(C5-Pad2)*%
X-12275000Y21000000D03*
%TD*%
%TO.P,C4,2*%
%TO.N,Net-(C4-Pad2)*%
X-17475000Y21000000D03*
%TO.P,C4,1*%
%TO.N,/OUT_M*%
X-14525000Y21000000D03*
%TD*%
%TO.P,C3,1*%
%TO.N,/INF_P*%
X-28525000Y27200000D03*
%TO.P,C3,2*%
%TO.N,GND*%
X-31475000Y27200000D03*
%TD*%
%TO.P,C2,2*%
%TO.N,GND*%
X-31475000Y37200000D03*
%TO.P,C2,1*%
%TO.N,/INF_M*%
X-28525000Y37200000D03*
%TD*%
D24*
%TO.P,C1,1*%
%TO.N,/IN_P*%
X-39300000Y30725000D03*
%TO.P,C1,2*%
%TO.N,/IN_M*%
X-39300000Y33675000D03*
%TD*%
D25*
%TO.N,Net-(D5-A)*%
X-42150000Y7500000D02*
X-39750000Y7500000D01*
X-47137500Y7500000D02*
X-42150000Y7500000D01*
X-40100000Y7850000D02*
X-39750000Y7500000D01*
X-38000000Y7500000D02*
X-37725000Y7775000D01*
X-39750000Y7500000D02*
X-38000000Y7500000D01*
X-37725000Y7775000D02*
X-37725000Y9000000D01*
X-42500000Y7850000D02*
X-42150000Y7500000D01*
%TO.N,GND*%
X-40100000Y11150000D02*
X-40250000Y11000000D01*
X-40250000Y11000000D02*
X-46387500Y11000000D01*
X-46387500Y11000000D02*
X-47137500Y11750000D01*
%TO.N,Net-(D5-A)*%
X-40100000Y7850000D02*
X-40200000Y7950000D01*
%TO.N,GND*%
X-31475000Y20825000D02*
X-31475000Y19525000D01*
X-31475000Y19525000D02*
X-31500000Y19500000D01*
X-31500000Y19500000D02*
X-37800000Y19500000D01*
X-37800000Y19500000D02*
X-40100000Y17200000D01*
X-40100000Y17200000D02*
X-40100000Y11150000D01*
%TO.N,Net-(D5-A)*%
X-37725000Y9000000D02*
X-37725000Y10500000D01*
%TO.N,/OUTPUT*%
X-22500000Y7800000D02*
X-22500000Y8000000D01*
X-22500000Y8000000D02*
X-23500000Y9000000D01*
X-23500000Y9000000D02*
X-36075000Y9000000D01*
%TO.N,/IN_P*%
X-35550000Y30700000D02*
X-35550000Y29450000D01*
X-35550000Y29450000D02*
X-37575000Y27425000D01*
X-37575000Y27425000D02*
X-37575000Y25000000D01*
%TO.N,GND*%
X-21000000Y12625000D02*
X-21075000Y12700000D01*
X-21075000Y12700000D02*
X-26600000Y12700000D01*
X-31475000Y19475000D02*
X-31475000Y20825000D01*
X-26600000Y12700000D02*
X-27300000Y13400000D01*
X-22200000Y17600000D02*
X-22900000Y18300000D01*
X-27300000Y13400000D02*
X-27300000Y15236396D01*
X-26736396Y15800000D02*
X-22900000Y15800000D01*
X-27300000Y15236396D02*
X-26736396Y15800000D01*
X-22900000Y15800000D02*
X-22200000Y16500000D01*
X-22200000Y16500000D02*
X-22200000Y17600000D01*
X-22900000Y18300000D02*
X-30300000Y18300000D01*
X-30300000Y18300000D02*
X-31475000Y19475000D01*
%TO.N,/DIFF_MODE*%
X-20000000Y7800000D02*
X-20000000Y8227208D01*
X-30000000Y10500000D02*
X-34000000Y14500000D01*
X-20000000Y8227208D02*
X-22272792Y10500000D01*
X-22272792Y10500000D02*
X-30000000Y10500000D01*
X-34000000Y14500000D02*
X-35800000Y14500000D01*
%TO.N,/COMMON_MODE*%
X-24200000Y17000000D02*
X-28000000Y17000000D01*
X-28000000Y17000000D02*
X-28500000Y16500000D01*
X-28500000Y16500000D02*
X-28500000Y12200000D01*
X-21525000Y11500000D02*
X-21000000Y10975000D01*
X-28500000Y12200000D02*
X-27800000Y11500000D01*
X-27800000Y11500000D02*
X-21525000Y11500000D01*
X-20000000Y5000000D02*
X-20000000Y5100000D01*
X-21000000Y10700000D02*
X-21000000Y10975000D01*
X-20000000Y5100000D02*
X-18700000Y6400000D01*
X-18700000Y6400000D02*
X-18700000Y9300000D01*
X-18700000Y9300000D02*
X-19100000Y9700000D01*
X-19100000Y9700000D02*
X-20000000Y9700000D01*
X-20000000Y9700000D02*
X-21000000Y10700000D01*
%TO.N,/OUT_M*%
X-12900000Y33100000D02*
X-10300000Y33100000D01*
X-10300000Y33100000D02*
X-10200000Y33200000D01*
X-13500000Y23375000D02*
X-13500000Y29500000D01*
X-13500000Y29500000D02*
X-13500000Y32500000D01*
X-13500000Y32500000D02*
X-12900000Y33100000D01*
X-14525000Y21000000D02*
X-14525000Y22350000D01*
X-14525000Y22350000D02*
X-13500000Y23375000D01*
X-10700000Y35900000D02*
X-10700000Y36900000D01*
%TO.N,GND*%
X-20900000Y12725000D02*
X-21000000Y12625000D01*
X-9500000Y11700000D02*
X-17200000Y11700000D01*
X-17200000Y11700000D02*
X-18225000Y12725000D01*
X-18225000Y12725000D02*
X-20900000Y12725000D01*
%TO.N,Net-(SW1A-C)*%
X-19300000Y10975000D02*
X-18575000Y10975000D01*
X-18575000Y10975000D02*
X-17500000Y9900000D01*
%TO.N,Net-(D3-K)*%
X-24200000Y14500000D02*
X-21500000Y14500000D01*
X-21500000Y14500000D02*
X-20750000Y13750000D01*
X-20750000Y13750000D02*
X-13250000Y13750000D01*
X-13250000Y13750000D02*
X-12000000Y15000000D01*
%TO.N,Net-(D1-K)*%
X-17000000Y15000000D02*
X-20000000Y15000000D01*
X-20000000Y15000000D02*
X-20500000Y15500000D01*
X-20500000Y15500000D02*
X-20500000Y18000000D01*
X-20500000Y18000000D02*
X-22000000Y19500000D01*
X-22000000Y19500000D02*
X-24200000Y19500000D01*
%TO.N,Net-(C5-Pad2)*%
X-12275000Y21000000D02*
X-12275000Y18600000D01*
X-12275000Y18600000D02*
X-12000000Y18325000D01*
X-10500000Y18325000D02*
X-12000000Y18325000D01*
%TO.N,/IN_P*%
X-35550000Y30700000D02*
X-39275000Y30700000D01*
X-39275000Y30700000D02*
X-39300000Y30725000D01*
%TO.N,/IN_M*%
X-35550000Y33700000D02*
X-39275000Y33700000D01*
X-39275000Y33700000D02*
X-39300000Y33675000D01*
%TO.N,GND*%
X-31475000Y42525000D02*
X-29500000Y44500000D01*
X-31475000Y27200000D02*
X-31475000Y20825000D01*
X-31475000Y27200000D02*
X-31475000Y42525000D01*
%TO.N,/IN_M*%
X-35550000Y33700000D02*
X-35550000Y42950000D01*
X-35550000Y42950000D02*
X-35000000Y43500000D01*
%TO.N,/OUTPUT*%
X-17500000Y5000000D02*
X-17500000Y4400000D01*
X-21300000Y6400000D02*
X-22500000Y7600000D01*
X-17500000Y4400000D02*
X-18600000Y3300000D01*
X-18600000Y3300000D02*
X-20789950Y3300000D01*
X-20789950Y3300000D02*
X-21300000Y3810050D01*
X-21300000Y3810050D02*
X-21300000Y6400000D01*
X-22500000Y7600000D02*
X-22500000Y7800000D01*
%TO.N,Net-(SW1A-C)*%
X-22500000Y5000000D02*
X-22500000Y2800000D01*
X-22500000Y2800000D02*
X-22000000Y2300000D01*
X-22000000Y2300000D02*
X-16400000Y2300000D01*
X-16400000Y2300000D02*
X-15700000Y3000000D01*
X-15700000Y3000000D02*
X-15700000Y9200000D01*
X-15700000Y9200000D02*
X-16400000Y9900000D01*
X-16400000Y9900000D02*
X-17500000Y9900000D01*
X-17500000Y9900000D02*
X-17500000Y7800000D01*
%TO.N,Net-(D1-K)*%
X-17000000Y15000000D02*
X-16000000Y15000000D01*
X-16000000Y15000000D02*
X-14500000Y15000000D01*
X-16000000Y16675000D02*
X-16000000Y15000000D01*
X-14500000Y16675000D02*
X-14500000Y15000000D01*
%TO.N,Net-(C4-Pad2)*%
X-14500000Y18325000D02*
X-16825000Y18325000D01*
X-16825000Y18325000D02*
X-17475000Y18975000D01*
X-17475000Y18975000D02*
X-17475000Y21000000D01*
%TO.N,Net-(D3-K)*%
X-12000000Y15000000D02*
X-10500000Y15000000D01*
X-10500000Y15000000D02*
X-9500000Y15000000D01*
X-10500000Y16675000D02*
X-10500000Y15000000D01*
X-12000000Y16675000D02*
X-12000000Y15000000D01*
%TD*%
%TA.AperFunction,Conductor*%
%TO.N,/OUT_M*%
G36*
X-1997981Y48999367D02*
G01*
X-1962802Y48997062D01*
X-1916292Y48994014D01*
X-1734541Y48981015D01*
X-1726900Y48979985D01*
X-1633262Y48961359D01*
X-1610580Y48956847D01*
X-1584977Y48951278D01*
X-1466334Y48925469D01*
X-1459617Y48923605D01*
X-1340563Y48883191D01*
X-1243329Y48846924D01*
X-1208259Y48833843D01*
X-1202501Y48831357D01*
X-1087048Y48774422D01*
X-965094Y48707830D01*
X-960366Y48704968D01*
X-903429Y48666924D01*
X-853351Y48633463D01*
X-850642Y48631546D01*
X-741348Y48549729D01*
X-737655Y48546735D01*
X-640498Y48461531D01*
X-637552Y48458772D01*
X-541231Y48362451D01*
X-538474Y48359508D01*
X-453271Y48262352D01*
X-450268Y48258647D01*
X-398436Y48189408D01*
X-368457Y48149361D01*
X-366539Y48146651D01*
X-295038Y48039643D01*
X-292172Y48034909D01*
X-225579Y47912953D01*
X-168645Y47797501D01*
X-166159Y47791743D01*
X-129788Y47694232D01*
X-116799Y47659408D01*
X-76403Y47540404D01*
X-74528Y47533648D01*
X-43154Y47389421D01*
X-20020Y47273120D01*
X-18985Y47265440D01*
X-5983Y47083650D01*
X-633Y47002034D01*
X-500Y46997977D01*
X-500Y32624000D01*
X-20185Y32556961D01*
X-72989Y32511206D01*
X-124500Y32500000D01*
X-12376000Y32500000D01*
X-12443039Y32519685D01*
X-12488794Y32572489D01*
X-12500000Y32624000D01*
X-12500000Y48875500D01*
X-12480315Y48942539D01*
X-12427511Y48988294D01*
X-12376000Y48999500D01*
X-2002036Y48999500D01*
X-1997981Y48999367D01*
G37*
%TD.AperFunction*%
%TD*%
%TA.AperFunction,Conductor*%
%TO.N,/OUT_P*%
G36*
X-57461Y31980315D02*
G01*
X-11706Y31927511D01*
X-500Y31876000D01*
X-500Y19524000D01*
X-20185Y19456961D01*
X-72989Y19411206D01*
X-124500Y19400000D01*
X-11154791Y19400000D01*
X-11221830Y19419685D01*
X-11267585Y19472489D01*
X-11277529Y19541647D01*
X-11267175Y19576401D01*
X-11265191Y19580660D01*
X-11265186Y19580666D01*
X-11210001Y19747203D01*
X-11199500Y19849991D01*
X-11199501Y22150008D01*
X-11210001Y22252797D01*
X-11265186Y22419334D01*
X-11357288Y22568656D01*
X-11481344Y22692712D01*
X-11630666Y22784814D01*
X-11797203Y22839999D01*
X-11797205Y22840000D01*
X-11899984Y22850500D01*
X-12304365Y22850500D01*
X-12371404Y22870185D01*
X-12417159Y22922989D01*
X-12428361Y22973516D01*
X-12499008Y31875016D01*
X-12479856Y31942209D01*
X-12427417Y31988382D01*
X-12375012Y32000000D01*
X-124500Y32000000D01*
X-57461Y31980315D01*
G37*
%TD.AperFunction*%
%TD*%
%TA.AperFunction,Conductor*%
%TO.N,Net-(L2-Pad2)*%
G36*
X-14556961Y41480315D02*
G01*
X-14511206Y41427511D01*
X-14500000Y41376000D01*
X-14500000Y32624000D01*
X-14519685Y32556961D01*
X-14572489Y32511206D01*
X-14624000Y32500000D01*
X-21376000Y32500000D01*
X-21443039Y32519685D01*
X-21488794Y32572489D01*
X-21500000Y32624000D01*
X-21500000Y41376000D01*
X-21480315Y41443039D01*
X-21427511Y41488794D01*
X-21376000Y41500000D01*
X-14624000Y41500000D01*
X-14556961Y41480315D01*
G37*
%TD.AperFunction*%
%TD*%
%TA.AperFunction,Conductor*%
%TO.N,Net-(L1-Pad2)*%
G36*
X-15189018Y31974815D02*
G01*
X-15143263Y31922011D01*
X-15132373Y31861657D01*
X-15134098Y31837540D01*
X-15134097Y31837535D01*
X-15103510Y31696938D01*
X-15079094Y31631481D01*
X-15079087Y31631467D01*
X-15010145Y31505212D01*
X-15010139Y31505202D01*
X-14997223Y31487948D01*
X-14986619Y31471121D01*
X-14955912Y31412420D01*
X-14920933Y31362040D01*
X-14836735Y31268304D01*
X-14715695Y31190517D01*
X-14715690Y31190515D01*
X-14715685Y31190512D01*
X-14696305Y31181662D01*
X-14652139Y31161492D01*
X-14652136Y31161490D01*
X-14589065Y31142972D01*
X-14530288Y31105199D01*
X-14501262Y31041644D01*
X-14500000Y31023995D01*
X-14500000Y23558441D01*
X-14519685Y23491402D01*
X-14536319Y23470760D01*
X-14891628Y23115452D01*
X-14952951Y23081967D01*
X-15022643Y23086951D01*
X-15060513Y23109421D01*
X-15062157Y23110846D01*
X-15062159Y23110848D01*
X-15170893Y23205068D01*
X-15170896Y23205070D01*
X-15170898Y23205071D01*
X-15301764Y23264837D01*
X-15301769Y23264839D01*
X-15301770Y23264839D01*
X-15328933Y23272815D01*
X-15368804Y23284523D01*
X-15368810Y23284525D01*
X-15475702Y23299893D01*
X-15511229Y23305001D01*
X-16497797Y23305001D01*
X-16515663Y23304363D01*
X-16518120Y23304232D01*
X-16533674Y23303398D01*
X-16533690Y23303396D01*
X-16674266Y23272815D01*
X-16674271Y23272814D01*
X-16674272Y23272813D01*
X-16690098Y23266911D01*
X-16739738Y23248396D01*
X-16739742Y23248394D01*
X-16866010Y23179446D01*
X-16967748Y23077712D01*
X-16967754Y23077705D01*
X-16988727Y23049688D01*
X-17044661Y23007818D01*
X-17087993Y23000000D01*
X-17376849Y23000000D01*
X-17443888Y23019685D01*
X-17489643Y23072489D01*
X-17498016Y23097645D01*
X-17498149Y23098258D01*
X-17500299Y23108142D01*
X-17524716Y23173607D01*
X-17524717Y23173610D01*
X-17593672Y23299890D01*
X-17644438Y23367705D01*
X-17691555Y23422098D01*
X-17691561Y23422103D01*
X-17692334Y23422823D01*
X-17695792Y23425715D01*
X-17772793Y23497399D01*
X-17899076Y23566343D01*
X-17964543Y23590755D01*
X-17964547Y23590756D01*
X-18105138Y23621329D01*
X-18105143Y23621330D01*
X-18248647Y23611055D01*
X-18248660Y23611053D01*
X-18316919Y23596199D01*
X-18451718Y23545911D01*
X-18566894Y23459683D01*
X-18566898Y23459679D01*
X-18628701Y23397871D01*
X-18642404Y23380863D01*
X-18655553Y23367714D01*
X-18655561Y23367705D01*
X-18665304Y23354689D01*
X-18721238Y23312819D01*
X-18764570Y23305001D01*
X-21171000Y23305001D01*
X-21238039Y23324686D01*
X-21283794Y23377490D01*
X-21295000Y23429001D01*
X-21295000Y31454061D01*
X-21275315Y31521100D01*
X-21261756Y31538555D01*
X-21250606Y31550530D01*
X-21195330Y31621686D01*
X-21135559Y31752563D01*
X-21115874Y31819602D01*
X-21106018Y31888151D01*
X-21076994Y31951703D01*
X-21018215Y31989477D01*
X-20983281Y31994500D01*
X-15256057Y31994500D01*
X-15189018Y31974815D01*
G37*
%TD.AperFunction*%
%TD*%
%TA.AperFunction,Conductor*%
%TO.N,/INF_M*%
G36*
X-23556961Y41480315D02*
G01*
X-23511206Y41427511D01*
X-23500000Y41376000D01*
X-23500000Y32624000D01*
X-23519685Y32556961D01*
X-23572489Y32511206D01*
X-23624000Y32500000D01*
X-30376000Y32500000D01*
X-30443039Y32519685D01*
X-30488794Y32572489D01*
X-30500000Y32624000D01*
X-30500000Y35689059D01*
X-30481538Y35754156D01*
X-30465186Y35780666D01*
X-30410001Y35947203D01*
X-30399500Y36049991D01*
X-30399501Y38350008D01*
X-30410001Y38452797D01*
X-30465186Y38619334D01*
X-30481539Y38645847D01*
X-30500000Y38710943D01*
X-30500000Y40775311D01*
X-30480315Y40842350D01*
X-30427511Y40888105D01*
X-30358353Y40898049D01*
X-30343923Y40895090D01*
X-30270433Y40875398D01*
X-29887338Y40814722D01*
X-29521424Y40795545D01*
X-29500001Y40794422D01*
X-29500000Y40794422D01*
X-29499999Y40794422D01*
X-29479699Y40795486D01*
X-29112662Y40814722D01*
X-28729567Y40875398D01*
X-28354913Y40975786D01*
X-27992806Y41114786D01*
X-27647211Y41290875D01*
X-27355992Y41479996D01*
X-27289047Y41499999D01*
X-27288457Y41500000D01*
X-23624000Y41500000D01*
X-23556961Y41480315D01*
G37*
%TD.AperFunction*%
%TD*%
%TA.AperFunction,Conductor*%
%TO.N,/INF_P*%
G36*
X-23556961Y31980315D02*
G01*
X-23511206Y31927511D01*
X-23500000Y31876000D01*
X-23500000Y23124000D01*
X-23519685Y23056961D01*
X-23572489Y23011206D01*
X-23624000Y23000000D01*
X-30376000Y23000000D01*
X-30443039Y23019685D01*
X-30488794Y23072489D01*
X-30500000Y23124000D01*
X-30500000Y25689059D01*
X-30481538Y25754156D01*
X-30465186Y25780666D01*
X-30410001Y25947203D01*
X-30399500Y26049991D01*
X-30399501Y28350008D01*
X-30410001Y28452797D01*
X-30465186Y28619334D01*
X-30481539Y28645847D01*
X-30500000Y28710943D01*
X-30500000Y31876000D01*
X-30480315Y31943039D01*
X-30427511Y31988794D01*
X-30376000Y32000000D01*
X-23624000Y32000000D01*
X-23556961Y31980315D01*
G37*
%TD.AperFunction*%
%TD*%
%TA.AperFunction,Conductor*%
%TO.N,/IN_M*%
G36*
X-33556961Y48979815D02*
G01*
X-33511206Y48927011D01*
X-33500000Y48875500D01*
X-33500000Y32624000D01*
X-33519685Y32556961D01*
X-33572489Y32511206D01*
X-33624000Y32500000D01*
X-41875500Y32500000D01*
X-41942539Y32519685D01*
X-41988294Y32572489D01*
X-41999500Y32624000D01*
X-41999500Y46997965D01*
X-41999367Y47002020D01*
X-41997607Y47028897D01*
X-41994011Y47083756D01*
X-41981014Y47265464D01*
X-41979986Y47273097D01*
X-41956847Y47389421D01*
X-41955882Y47393859D01*
X-41925467Y47533677D01*
X-41923608Y47540375D01*
X-41883185Y47659457D01*
X-41833841Y47791749D01*
X-41831367Y47797480D01*
X-41774417Y47912964D01*
X-41707821Y48034924D01*
X-41704981Y48039616D01*
X-41633437Y48146689D01*
X-41631572Y48149324D01*
X-41549709Y48258679D01*
X-41546756Y48262322D01*
X-41461497Y48359541D01*
X-41458802Y48362419D01*
X-41362419Y48458802D01*
X-41359541Y48461497D01*
X-41262322Y48546756D01*
X-41258679Y48549709D01*
X-41149324Y48631572D01*
X-41146689Y48633437D01*
X-41039616Y48704981D01*
X-41034924Y48707821D01*
X-40912964Y48774417D01*
X-40797480Y48831367D01*
X-40791749Y48833841D01*
X-40659457Y48883185D01*
X-40540375Y48923608D01*
X-40533677Y48925467D01*
X-40389421Y48956847D01*
X-40383272Y48958071D01*
X-40273097Y48979986D01*
X-40265464Y48981014D01*
X-40083756Y48994011D01*
X-40030789Y48997483D01*
X-40002019Y48999367D01*
X-39997964Y48999500D01*
X-33624000Y48999500D01*
X-33556961Y48979815D01*
G37*
%TD.AperFunction*%
%TD*%
%TA.AperFunction,Conductor*%
%TO.N,/IN_P*%
G36*
X-33556961Y31980315D02*
G01*
X-33511206Y31927511D01*
X-33500000Y31876000D01*
X-33500000Y20624000D01*
X-33519685Y20556961D01*
X-33572489Y20511206D01*
X-33624000Y20500000D01*
X-41875500Y20500000D01*
X-41942539Y20519685D01*
X-41988294Y20572489D01*
X-41999500Y20624000D01*
X-41999500Y31876000D01*
X-41979815Y31943039D01*
X-41927011Y31988794D01*
X-41875500Y32000000D01*
X-33624000Y32000000D01*
X-33556961Y31980315D01*
G37*
%TD.AperFunction*%
%TD*%
%TA.AperFunction,Conductor*%
%TO.N,GND*%
G36*
X-13062461Y48979815D02*
G01*
X-13016706Y48927011D01*
X-13005500Y48875500D01*
X-13005500Y33999159D01*
X-13025185Y33932120D01*
X-13077989Y33886365D01*
X-13088549Y33882116D01*
X-13118660Y33871581D01*
X-13125341Y33869656D01*
X-13166061Y33860361D01*
X-13203680Y33842245D01*
X-13210105Y33839584D01*
X-13249517Y33825792D01*
X-13249524Y33825788D01*
X-13284880Y33803573D01*
X-13290967Y33800209D01*
X-13328590Y33782090D01*
X-13361231Y33756059D01*
X-13366904Y33752034D01*
X-13402261Y33729817D01*
X-13402265Y33729814D01*
X-13782819Y33349259D01*
X-13844142Y33315774D01*
X-13913834Y33320758D01*
X-13969767Y33362630D01*
X-13994184Y33428094D01*
X-13994500Y33436940D01*
X-13994500Y41375990D01*
X-13994500Y41376000D01*
X-14006053Y41483456D01*
X-14017259Y41534967D01*
X-14017363Y41535278D01*
X-14051384Y41637498D01*
X-14051387Y41637504D01*
X-14129172Y41758538D01*
X-14129175Y41758543D01*
X-14129180Y41758549D01*
X-14174924Y41811341D01*
X-14174928Y41811344D01*
X-14174930Y41811347D01*
X-14283664Y41905567D01*
X-14283667Y41905569D01*
X-14283669Y41905570D01*
X-14414535Y41965336D01*
X-14414540Y41965338D01*
X-14414541Y41965338D01*
X-14437142Y41971975D01*
X-14481575Y41985022D01*
X-14481581Y41985024D01*
X-14567034Y41997310D01*
X-14624000Y42005500D01*
X-21376000Y42005500D01*
X-21376009Y42005500D01*
X-21376010Y42005499D01*
X-21483451Y41993948D01*
X-21483463Y41993946D01*
X-21534973Y41982740D01*
X-21637498Y41948617D01*
X-21637504Y41948614D01*
X-21758538Y41870829D01*
X-21758549Y41870821D01*
X-21811341Y41825077D01*
X-21905567Y41716336D01*
X-21905570Y41716332D01*
X-21965336Y41585466D01*
X-21985022Y41518425D01*
X-21985024Y41518420D01*
X-21993945Y41456367D01*
X-22005500Y41376000D01*
X-22005500Y32624000D01*
X-22005499Y32623991D01*
X-21993948Y32516550D01*
X-21993946Y32516538D01*
X-21982740Y32465028D01*
X-21948617Y32362503D01*
X-21948614Y32362497D01*
X-21870829Y32241463D01*
X-21870821Y32241452D01*
X-21825077Y32188660D01*
X-21825074Y32188657D01*
X-21825070Y32188653D01*
X-21716336Y32094433D01*
X-21716333Y32094432D01*
X-21716332Y32094431D01*
X-21673385Y32074817D01*
X-21620581Y32029062D01*
X-21600897Y31962022D01*
X-21620582Y31894983D01*
X-21650584Y31862758D01*
X-21657546Y31857547D01*
X-21657548Y31857545D01*
X-21743794Y31742336D01*
X-21743798Y31742329D01*
X-21794092Y31607483D01*
X-21800499Y31547884D01*
X-21800500Y31547865D01*
X-21800500Y23252130D01*
X-21800499Y23252124D01*
X-21794092Y23192517D01*
X-21743798Y23057672D01*
X-21743794Y23057665D01*
X-21657548Y22942456D01*
X-21657545Y22942453D01*
X-21542336Y22856207D01*
X-21542329Y22856203D01*
X-21407483Y22805909D01*
X-21407484Y22805909D01*
X-21400556Y22805165D01*
X-21347873Y22799500D01*
X-18652128Y22799501D01*
X-18592517Y22805909D01*
X-18457669Y22856204D01*
X-18443491Y22866819D01*
X-18403313Y22881806D01*
X-18394242Y22900732D01*
X-18376368Y22917067D01*
X-18342454Y22942454D01*
X-18301655Y22996954D01*
X-18250888Y23064769D01*
X-18248618Y23063070D01*
X-18209435Y23102257D01*
X-18141163Y23117114D01*
X-18075697Y23092702D01*
X-18050556Y23063688D01*
X-18049111Y23064769D01*
X-17998345Y22996954D01*
X-17973928Y22931489D01*
X-17988780Y22863216D01*
X-18038185Y22813811D01*
X-18058607Y22804937D01*
X-18119334Y22784814D01*
X-18119341Y22784810D01*
X-18236953Y22712268D01*
X-18265753Y22704388D01*
X-18269907Y22693247D01*
X-18281495Y22679873D01*
X-18392713Y22568655D01*
X-18484813Y22419337D01*
X-18484814Y22419334D01*
X-18539999Y22252797D01*
X-18539999Y22252796D01*
X-18540000Y22252796D01*
X-18550500Y22150017D01*
X-18550500Y19849999D01*
X-18550499Y19849982D01*
X-18540000Y19747204D01*
X-18539999Y19747201D01*
X-18484815Y19580669D01*
X-18484813Y19580664D01*
X-18392711Y19431343D01*
X-18311819Y19350451D01*
X-18278334Y19289128D01*
X-18275500Y19262770D01*
X-18275500Y18884809D01*
X-18275499Y18884800D01*
X-18266209Y18844092D01*
X-18265045Y18837237D01*
X-18260368Y18795741D01*
X-18246580Y18756338D01*
X-18244655Y18749655D01*
X-18235361Y18708939D01*
X-18217241Y18671312D01*
X-18214579Y18664886D01*
X-18200788Y18625475D01*
X-18178578Y18590128D01*
X-18175213Y18584041D01*
X-18157090Y18546411D01*
X-18131060Y18513771D01*
X-18127034Y18508096D01*
X-18104818Y18472741D01*
X-18104816Y18472738D01*
X-17327261Y17695183D01*
X-17327258Y17695181D01*
X-17291911Y17672971D01*
X-17286237Y17668945D01*
X-17265031Y17652035D01*
X-17253586Y17642908D01*
X-17237557Y17635189D01*
X-17215967Y17624791D01*
X-17209878Y17621426D01*
X-17174529Y17599215D01*
X-17174526Y17599214D01*
X-17174522Y17599211D01*
X-17135101Y17585417D01*
X-17128693Y17582762D01*
X-17091061Y17564640D01*
X-17050359Y17555350D01*
X-17043672Y17553424D01*
X-17014835Y17543334D01*
X-17004255Y17539632D01*
X-16962759Y17534957D01*
X-16955907Y17533793D01*
X-16915194Y17524500D01*
X-16915187Y17524500D01*
X-16908277Y17523721D01*
X-16908424Y17522417D01*
X-16848481Y17504815D01*
X-16802726Y17452011D01*
X-16792782Y17382853D01*
X-16821807Y17319297D01*
X-16827839Y17312819D01*
X-16830469Y17310190D01*
X-16830470Y17310189D01*
X-16918478Y17164607D01*
X-16969087Y17002193D01*
X-16975500Y16931614D01*
X-16975500Y16418387D01*
X-16969087Y16347808D01*
X-16969087Y16347806D01*
X-16969086Y16347804D01*
X-16919382Y16188294D01*
X-16918478Y16185394D01*
X-16890220Y16138650D01*
X-16872384Y16071095D01*
X-16893902Y16004621D01*
X-16947942Y15960334D01*
X-16996337Y15950500D01*
X-17423338Y15950500D01*
X-17423356Y15950499D01*
X-17522708Y15940350D01*
X-17522711Y15940349D01*
X-17683695Y15887004D01*
X-17683702Y15887001D01*
X-17742850Y15850517D01*
X-17794009Y15818962D01*
X-17859105Y15800500D01*
X-19575500Y15800500D01*
X-19642539Y15820185D01*
X-19688294Y15872989D01*
X-19699500Y15924500D01*
X-19699500Y18090195D01*
X-19699501Y18090198D01*
X-19708797Y18130924D01*
X-19709956Y18137749D01*
X-19714632Y18179255D01*
X-19728426Y18218676D01*
X-19730348Y18225345D01*
X-19739641Y18266061D01*
X-19757755Y18303674D01*
X-19760417Y18310102D01*
X-19774211Y18349522D01*
X-19796437Y18384894D01*
X-19799787Y18390956D01*
X-19817909Y18428587D01*
X-19843951Y18461243D01*
X-19847962Y18466896D01*
X-19861983Y18489210D01*
X-19870182Y18502260D01*
X-21497738Y20129816D01*
X-21497741Y20129818D01*
X-21533096Y20152034D01*
X-21538771Y20156060D01*
X-21571411Y20182090D01*
X-21609041Y20200213D01*
X-21615128Y20203578D01*
X-21650475Y20225788D01*
X-21689886Y20239579D01*
X-21696312Y20242241D01*
X-21733939Y20260361D01*
X-21774655Y20269655D01*
X-21781338Y20271580D01*
X-21820741Y20285368D01*
X-21862237Y20290045D01*
X-21869092Y20291209D01*
X-21909800Y20300499D01*
X-21909804Y20300500D01*
X-21909806Y20300500D01*
X-21909809Y20300500D01*
X-22704732Y20300500D01*
X-22768881Y20318383D01*
X-22810392Y20343477D01*
X-22810393Y20343478D01*
X-22810394Y20343478D01*
X-22972804Y20394086D01*
X-22972806Y20394087D01*
X-22972808Y20394087D01*
X-23022222Y20398577D01*
X-23043384Y20400500D01*
X-25756616Y20400500D01*
X-25775855Y20398752D01*
X-25827193Y20394087D01*
X-25989607Y20343478D01*
X-26135189Y20255470D01*
X-26255470Y20135189D01*
X-26343478Y19989607D01*
X-26394087Y19827193D01*
X-26400500Y19756614D01*
X-26400500Y19243387D01*
X-26394087Y19172808D01*
X-26394087Y19172806D01*
X-26394086Y19172804D01*
X-26365315Y19080472D01*
X-26343478Y19010394D01*
X-26255470Y18864812D01*
X-26135189Y18744531D01*
X-26135187Y18744530D01*
X-26135185Y18744528D01*
X-25989606Y18656522D01*
X-25827196Y18605914D01*
X-25756616Y18599500D01*
X-25756613Y18599500D01*
X-23043387Y18599500D01*
X-23043384Y18599500D01*
X-22972804Y18605914D01*
X-22810394Y18656522D01*
X-22785928Y18671312D01*
X-22768881Y18681617D01*
X-22704732Y18699500D01*
X-22382940Y18699500D01*
X-22315901Y18679815D01*
X-22295259Y18663181D01*
X-21336819Y17704741D01*
X-21303334Y17643418D01*
X-21300500Y17617060D01*
X-21300500Y15424500D01*
X-21320185Y15357461D01*
X-21372989Y15311706D01*
X-21424500Y15300500D01*
X-22704732Y15300500D01*
X-22768881Y15318383D01*
X-22810392Y15343477D01*
X-22810393Y15343478D01*
X-22810394Y15343478D01*
X-22972804Y15394086D01*
X-22972806Y15394087D01*
X-22972808Y15394087D01*
X-23022222Y15398577D01*
X-23043384Y15400500D01*
X-25756616Y15400500D01*
X-25775855Y15398752D01*
X-25827193Y15394087D01*
X-25989607Y15343478D01*
X-26135189Y15255470D01*
X-26255470Y15135189D01*
X-26343478Y14989607D01*
X-26394087Y14827193D01*
X-26400500Y14756614D01*
X-26400500Y14243387D01*
X-26394087Y14172808D01*
X-26394087Y14172806D01*
X-26394086Y14172804D01*
X-26375701Y14113803D01*
X-26343478Y14010394D01*
X-26255470Y13864812D01*
X-26135189Y13744531D01*
X-26135187Y13744530D01*
X-26135185Y13744528D01*
X-25989606Y13656522D01*
X-25827196Y13605914D01*
X-25756616Y13599500D01*
X-25756613Y13599500D01*
X-23043387Y13599500D01*
X-23043384Y13599500D01*
X-22972804Y13605914D01*
X-22810394Y13656522D01*
X-22786578Y13670920D01*
X-22768881Y13681617D01*
X-22704732Y13699500D01*
X-21882940Y13699500D01*
X-21815901Y13679815D01*
X-21795259Y13663181D01*
X-21697982Y13565904D01*
X-21664497Y13504581D01*
X-21669481Y13434889D01*
X-21705223Y13386031D01*
X-21704571Y13385379D01*
X-21708774Y13381177D01*
X-21709182Y13380618D01*
X-21709876Y13380075D01*
X-21830073Y13259878D01*
X-21918020Y13114396D01*
X-21968591Y12952107D01*
X-21971054Y12925000D01*
X-18317260Y12925000D01*
X-18283704Y12945348D01*
X-18251886Y12949500D01*
X-13159806Y12949500D01*
X-13119095Y12958792D01*
X-13112240Y12959957D01*
X-13070745Y12964632D01*
X-13031320Y12978429D01*
X-13024679Y12980342D01*
X-12983939Y12989640D01*
X-12946307Y13007764D01*
X-12939895Y13010420D01*
X-12900478Y13024211D01*
X-12865111Y13046435D01*
X-12859039Y13049791D01*
X-12821413Y13067909D01*
X-12788764Y13093948D01*
X-12783105Y13097963D01*
X-12747738Y13120184D01*
X-12620184Y13247738D01*
X-11854741Y14013183D01*
X-11793418Y14046667D01*
X-11767060Y14049501D01*
X-11576662Y14049501D01*
X-11576656Y14049501D01*
X-11576648Y14049502D01*
X-11576645Y14049502D01*
X-11522240Y14055060D01*
X-11477292Y14059651D01*
X-11316303Y14112997D01*
X-11205992Y14181039D01*
X-11140895Y14199500D01*
X-10548436Y14199500D01*
X-10541498Y14199111D01*
X-10512600Y14195855D01*
X-10500002Y14194435D01*
X-10500000Y14194435D01*
X-10499998Y14194435D01*
X-10487401Y14195855D01*
X-10458503Y14199111D01*
X-10451564Y14199500D01*
X-10359105Y14199500D01*
X-10294009Y14181039D01*
X-10183697Y14112997D01*
X-10022708Y14059651D01*
X-9923345Y14049500D01*
X-9076656Y14049501D01*
X-9076648Y14049502D01*
X-9076645Y14049502D01*
X-9022240Y14055060D01*
X-8977292Y14059651D01*
X-8816303Y14112997D01*
X-8671956Y14202032D01*
X-8552032Y14321956D01*
X-8462997Y14466303D01*
X-8409651Y14627292D01*
X-8399500Y14726655D01*
X-8399501Y15273344D01*
X-8402355Y15301279D01*
X-8409651Y15372708D01*
X-8409652Y15372711D01*
X-8426813Y15424500D01*
X-8462997Y15533697D01*
X-8463001Y15533703D01*
X-8463002Y15533706D01*
X-8552030Y15678041D01*
X-8552033Y15678045D01*
X-8671956Y15797968D01*
X-8671960Y15797971D01*
X-8816295Y15886999D01*
X-8816301Y15887002D01*
X-8816303Y15887003D01*
X-8929462Y15924500D01*
X-8977291Y15940349D01*
X-9076648Y15950500D01*
X-9076655Y15950500D01*
X-9503663Y15950500D01*
X-9570702Y15970185D01*
X-9616457Y16022989D01*
X-9626401Y16092147D01*
X-9609780Y16138650D01*
X-9598976Y16156522D01*
X-9581522Y16185394D01*
X-9530914Y16347804D01*
X-9524500Y16418384D01*
X-9524500Y16931616D01*
X-9530914Y17002196D01*
X-9581522Y17164606D01*
X-9669528Y17310185D01*
X-9669530Y17310187D01*
X-9669531Y17310189D01*
X-9771661Y17412319D01*
X-9805146Y17473642D01*
X-9800162Y17543334D01*
X-9771661Y17587681D01*
X-9669532Y17689811D01*
X-9669531Y17689812D01*
X-9669528Y17689815D01*
X-9581522Y17835394D01*
X-9530914Y17997804D01*
X-9524500Y18068384D01*
X-9524500Y18581616D01*
X-9530914Y18652196D01*
X-9556285Y18733613D01*
X-9557434Y18803471D01*
X-9520633Y18862863D01*
X-9457564Y18892931D01*
X-9437898Y18894500D01*
X-124500Y18894500D01*
X-57461Y18874815D01*
X-11706Y18822011D01*
X-500Y18770500D01*
X-500Y2002025D01*
X-633Y1997968D01*
X-5983Y1916352D01*
X-18985Y1734562D01*
X-20020Y1726882D01*
X-43154Y1610580D01*
X-74528Y1466354D01*
X-76403Y1459599D01*
X-110703Y1358552D01*
X-116792Y1340612D01*
X-116805Y1340575D01*
X-166159Y1208259D01*
X-168645Y1202501D01*
X-225579Y1087048D01*
X-292172Y965093D01*
X-295039Y960359D01*
X-366539Y853351D01*
X-368457Y850641D01*
X-450256Y741369D01*
X-453277Y737643D01*
X-538471Y640498D01*
X-541245Y637536D01*
X-637536Y541245D01*
X-640498Y538471D01*
X-737643Y453277D01*
X-741369Y450256D01*
X-850641Y368457D01*
X-853351Y366539D01*
X-960359Y295039D01*
X-965093Y292172D01*
X-1087048Y225579D01*
X-1202501Y168645D01*
X-1208259Y166159D01*
X-1329044Y121107D01*
X-1340582Y116803D01*
X-1459599Y76403D01*
X-1466354Y74528D01*
X-1610580Y43154D01*
X-1726882Y20020D01*
X-1734562Y18985D01*
X-1916352Y5983D01*
X-1967418Y2636D01*
X-1997975Y633D01*
X-2002024Y500D01*
X-47997976Y500D01*
X-48002026Y633D01*
X-48040046Y3125D01*
X-48083650Y5983D01*
X-48265440Y18985D01*
X-48273120Y20020D01*
X-48389421Y43154D01*
X-48533648Y74528D01*
X-48540404Y76403D01*
X-48572119Y87169D01*
X-48659422Y116804D01*
X-48694232Y129788D01*
X-48791743Y166159D01*
X-48797501Y168645D01*
X-48912953Y225579D01*
X-49034909Y292172D01*
X-49039643Y295038D01*
X-49146651Y366539D01*
X-49149361Y368457D01*
X-49189408Y398436D01*
X-49258647Y450268D01*
X-49262352Y453271D01*
X-49359508Y538474D01*
X-49362451Y541231D01*
X-49458772Y637552D01*
X-49461531Y640498D01*
X-49494550Y678149D01*
X-49546735Y737655D01*
X-49549729Y741348D01*
X-49631546Y850642D01*
X-49633463Y853351D01*
X-49704964Y960359D01*
X-49707830Y965094D01*
X-49774422Y1087048D01*
X-49831357Y1202501D01*
X-49833843Y1208259D01*
X-49846924Y1243329D01*
X-49883195Y1340575D01*
X-49923605Y1459617D01*
X-49925469Y1466334D01*
X-49956847Y1610580D01*
X-49968703Y1670183D01*
X-49979985Y1726900D01*
X-49981015Y1734541D01*
X-49992603Y1896563D01*
X-49977751Y1964831D01*
X-49928346Y2014236D01*
X-49860073Y2029088D01*
X-49825585Y2021586D01*
X-49784877Y2006403D01*
X-49784873Y2006402D01*
X-49725345Y2000001D01*
X-49725328Y2000000D01*
X-47437500Y2000000D01*
X-47437500Y2950000D01*
X-46837500Y2950000D01*
X-46837500Y2000000D01*
X-44549672Y2000000D01*
X-44549656Y2000001D01*
X-44490128Y2006402D01*
X-44490121Y2006404D01*
X-44355414Y2056646D01*
X-44355407Y2056650D01*
X-44240313Y2142810D01*
X-44240310Y2142813D01*
X-44154150Y2257907D01*
X-44154146Y2257914D01*
X-44103904Y2392621D01*
X-44103902Y2392628D01*
X-44097501Y2452156D01*
X-44097500Y2452173D01*
X-44097500Y2950000D01*
X-46837500Y2950000D01*
X-47437500Y2950000D01*
X-47437500Y4500000D01*
X-46837500Y4500000D01*
X-46837500Y3550000D01*
X-44097500Y3550000D01*
X-44097500Y4047828D01*
X-44097501Y4047845D01*
X-44103902Y4107373D01*
X-44103904Y4107380D01*
X-44154146Y4242087D01*
X-44154150Y4242094D01*
X-44240310Y4357188D01*
X-44240313Y4357191D01*
X-44355407Y4443351D01*
X-44355414Y4443355D01*
X-44490121Y4493597D01*
X-44490128Y4493599D01*
X-44549656Y4500000D01*
X-46837500Y4500000D01*
X-47437500Y4500000D01*
X-49725345Y4500000D01*
X-49784873Y4493599D01*
X-49784881Y4493597D01*
X-49832167Y4475960D01*
X-49901859Y4470976D01*
X-49963182Y4504461D01*
X-49996666Y4565785D01*
X-49999500Y4592142D01*
X-49999500Y5376000D01*
X-49979815Y5443039D01*
X-49927011Y5488794D01*
X-49875500Y5500000D01*
X-43100000Y5500000D01*
X-43100000Y6575500D01*
X-43080315Y6642539D01*
X-43027511Y6688294D01*
X-42976000Y6699500D01*
X-37909806Y6699500D01*
X-37869095Y6708792D01*
X-37862240Y6709957D01*
X-37820745Y6714632D01*
X-37781320Y6728429D01*
X-37774679Y6730342D01*
X-37733939Y6739640D01*
X-37696307Y6757764D01*
X-37689895Y6760420D01*
X-37650478Y6774211D01*
X-37615111Y6796435D01*
X-37609039Y6799791D01*
X-37571413Y6817909D01*
X-37538764Y6843948D01*
X-37533105Y6847963D01*
X-37497738Y6870184D01*
X-37370184Y6997738D01*
X-37127174Y7240748D01*
X-37095184Y7272738D01*
X-37072957Y7308114D01*
X-37068949Y7313761D01*
X-37042908Y7346414D01*
X-37024787Y7384045D01*
X-37021430Y7390119D01*
X-36999211Y7425478D01*
X-36985416Y7464901D01*
X-36982756Y7471321D01*
X-36964640Y7508939D01*
X-36955342Y7549679D01*
X-36953429Y7556320D01*
X-36939632Y7595745D01*
X-36934957Y7637240D01*
X-36933792Y7644095D01*
X-36932274Y7650751D01*
X-36924500Y7684806D01*
X-36924500Y7865194D01*
X-36924500Y8084480D01*
X-36904815Y8151519D01*
X-36852011Y8197274D01*
X-36782853Y8207218D01*
X-36719297Y8178193D01*
X-36712819Y8172161D01*
X-36710189Y8169531D01*
X-36710187Y8169530D01*
X-36710185Y8169528D01*
X-36564606Y8081522D01*
X-36402196Y8030914D01*
X-36331616Y8024500D01*
X-36331613Y8024500D01*
X-35818387Y8024500D01*
X-35818384Y8024500D01*
X-35747804Y8030914D01*
X-35585394Y8081522D01*
X-35439815Y8169528D01*
X-35439811Y8169533D01*
X-35439808Y8169534D01*
X-35435235Y8173115D01*
X-35370322Y8198961D01*
X-35358768Y8199500D01*
X-23882940Y8199500D01*
X-23815901Y8179815D01*
X-23795259Y8163181D01*
X-23536819Y7904741D01*
X-23503334Y7843418D01*
X-23500500Y7817060D01*
X-23500500Y6752130D01*
X-23500499Y6752124D01*
X-23494092Y6692517D01*
X-23443798Y6557672D01*
X-23443797Y6557670D01*
X-23381394Y6474311D01*
X-23356977Y6408847D01*
X-23371828Y6340574D01*
X-23381394Y6325689D01*
X-23443797Y6242331D01*
X-23443798Y6242329D01*
X-23494092Y6107483D01*
X-23500499Y6047884D01*
X-23500500Y6047865D01*
X-23500500Y3952130D01*
X-23500499Y3952124D01*
X-23494092Y3892517D01*
X-23443798Y3757672D01*
X-23443797Y3757671D01*
X-23443796Y3757669D01*
X-23357546Y3642454D01*
X-23350192Y3636949D01*
X-23308319Y3581017D01*
X-23300500Y3537680D01*
X-23300500Y2709809D01*
X-23300499Y2709800D01*
X-23291209Y2669092D01*
X-23290045Y2662237D01*
X-23285368Y2620741D01*
X-23271580Y2581338D01*
X-23269655Y2574655D01*
X-23260361Y2533939D01*
X-23242241Y2496312D01*
X-23239579Y2489886D01*
X-23225788Y2450475D01*
X-23203578Y2415128D01*
X-23200213Y2409041D01*
X-23182090Y2371411D01*
X-23156060Y2338771D01*
X-23152034Y2333096D01*
X-23129818Y2297741D01*
X-23129816Y2297738D01*
X-22502261Y1670183D01*
X-22502258Y1670181D01*
X-22466911Y1647971D01*
X-22461237Y1643945D01*
X-22429043Y1618272D01*
X-22428586Y1617908D01*
X-22413369Y1610580D01*
X-22390967Y1599791D01*
X-22384878Y1596426D01*
X-22349529Y1574215D01*
X-22349526Y1574214D01*
X-22349522Y1574211D01*
X-22310101Y1560417D01*
X-22303693Y1557762D01*
X-22266061Y1539640D01*
X-22225359Y1530350D01*
X-22218672Y1528424D01*
X-22179258Y1514633D01*
X-22179255Y1514632D01*
X-22137759Y1509957D01*
X-22130907Y1508793D01*
X-22090194Y1499500D01*
X-22090192Y1499500D01*
X-16309806Y1499500D01*
X-16269095Y1508792D01*
X-16262240Y1509957D01*
X-16220745Y1514632D01*
X-16181320Y1528429D01*
X-16174679Y1530342D01*
X-16133939Y1539640D01*
X-16096307Y1557764D01*
X-16089895Y1560420D01*
X-16050478Y1574211D01*
X-16015111Y1596435D01*
X-16009039Y1599791D01*
X-15971413Y1617909D01*
X-15938764Y1643948D01*
X-15933105Y1647963D01*
X-15897738Y1670184D01*
X-15770184Y1797738D01*
X-15102174Y2465748D01*
X-15070184Y2497738D01*
X-15047963Y2533105D01*
X-15043948Y2538764D01*
X-15017909Y2571413D01*
X-14999785Y2609051D01*
X-14996436Y2615109D01*
X-14974211Y2650478D01*
X-14960419Y2689897D01*
X-14957758Y2696319D01*
X-14951262Y2709809D01*
X-14939641Y2733939D01*
X-14930348Y2774658D01*
X-14928426Y2781325D01*
X-14914632Y2820745D01*
X-14909956Y2862253D01*
X-14908796Y2869081D01*
X-14899500Y2909805D01*
X-14899500Y3090194D01*
X-14899500Y9244954D01*
X-14899500Y9290195D01*
X-14908797Y9330924D01*
X-14909956Y9337749D01*
X-14914632Y9379255D01*
X-14928426Y9418676D01*
X-14930348Y9425345D01*
X-14939641Y9466061D01*
X-14957755Y9503674D01*
X-14960417Y9510102D01*
X-14974211Y9549522D01*
X-14983691Y9564609D01*
X-14996437Y9584894D01*
X-14999787Y9590956D01*
X-15017909Y9628587D01*
X-15043951Y9661243D01*
X-15047962Y9666896D01*
X-15061983Y9689210D01*
X-15070182Y9702260D01*
X-15897738Y10529816D01*
X-15897741Y10529818D01*
X-15933096Y10552034D01*
X-15938771Y10556060D01*
X-15971411Y10582090D01*
X-16009041Y10600213D01*
X-16015128Y10603578D01*
X-16050475Y10625788D01*
X-16089886Y10639579D01*
X-16096312Y10642241D01*
X-16133938Y10660360D01*
X-16153051Y10664723D01*
X-16214028Y10698834D01*
X-16246883Y10760497D01*
X-16241185Y10830134D01*
X-16198743Y10885636D01*
X-16190547Y10891153D01*
X-16172270Y10902427D01*
X-16172268Y10902428D01*
X-16052428Y11022268D01*
X-16052425Y11022272D01*
X-15963458Y11166508D01*
X-15963452Y11166521D01*
X-15910144Y11327396D01*
X-15902726Y11400000D01*
X-15597273Y11400000D01*
X-15589856Y11327393D01*
X-15536548Y11166519D01*
X-15536543Y11166508D01*
X-15447576Y11022272D01*
X-15447573Y11022268D01*
X-15327733Y10902428D01*
X-15327729Y10902425D01*
X-15183493Y10813458D01*
X-15183482Y10813453D01*
X-15022607Y10760145D01*
X-14923317Y10750001D01*
X-14800001Y10750001D01*
X-14800000Y10750002D01*
X-14800000Y11400000D01*
X-14200000Y11400000D01*
X-14200000Y10750001D01*
X-14076692Y10750001D01*
X-14076678Y10750002D01*
X-13977393Y10760145D01*
X-13816519Y10813453D01*
X-13816508Y10813458D01*
X-13672272Y10902425D01*
X-13672268Y10902428D01*
X-13552428Y11022268D01*
X-13552425Y11022272D01*
X-13463458Y11166508D01*
X-13463452Y11166521D01*
X-13410144Y11327396D01*
X-13402726Y11400000D01*
X-13097273Y11400000D01*
X-13089856Y11327393D01*
X-13036548Y11166519D01*
X-13036543Y11166508D01*
X-12947576Y11022272D01*
X-12947573Y11022268D01*
X-12827733Y10902428D01*
X-12827729Y10902425D01*
X-12683493Y10813458D01*
X-12683482Y10813453D01*
X-12522607Y10760145D01*
X-12423317Y10750001D01*
X-12300001Y10750001D01*
X-12300000Y10750002D01*
X-12300000Y11400000D01*
X-11700000Y11400000D01*
X-11700000Y10750001D01*
X-11576692Y10750001D01*
X-11576678Y10750002D01*
X-11477393Y10760145D01*
X-11316519Y10813453D01*
X-11316508Y10813458D01*
X-11172272Y10902425D01*
X-11172268Y10902428D01*
X-11052428Y11022268D01*
X-11052425Y11022272D01*
X-10963458Y11166508D01*
X-10963452Y11166521D01*
X-10910144Y11327396D01*
X-10902726Y11400000D01*
X-10597273Y11400000D01*
X-10589856Y11327393D01*
X-10536548Y11166519D01*
X-10536543Y11166508D01*
X-10447576Y11022272D01*
X-10447573Y11022268D01*
X-10327733Y10902428D01*
X-10327729Y10902425D01*
X-10183493Y10813458D01*
X-10183482Y10813453D01*
X-10022607Y10760145D01*
X-9923317Y10750001D01*
X-9800001Y10750001D01*
X-9800000Y10750002D01*
X-9800000Y11400000D01*
X-9200000Y11400000D01*
X-9200000Y10750001D01*
X-9076692Y10750001D01*
X-9076678Y10750002D01*
X-8977393Y10760145D01*
X-8816519Y10813453D01*
X-8816508Y10813458D01*
X-8672272Y10902425D01*
X-8672268Y10902428D01*
X-8552428Y11022268D01*
X-8552425Y11022272D01*
X-8463458Y11166508D01*
X-8463452Y11166521D01*
X-8410144Y11327396D01*
X-8402726Y11400000D01*
X-9200000Y11400000D01*
X-9800000Y11400000D01*
X-10597273Y11400000D01*
X-10902726Y11400000D01*
X-11700000Y11400000D01*
X-12300000Y11400000D01*
X-13097273Y11400000D01*
X-13402726Y11400000D01*
X-14200000Y11400000D01*
X-14800000Y11400000D01*
X-15597273Y11400000D01*
X-15902726Y11400000D01*
X-17176000Y11400000D01*
X-17243039Y11419685D01*
X-17288794Y11472489D01*
X-17300000Y11524000D01*
X-17300000Y12650000D01*
X-16700000Y12650000D01*
X-16700000Y12000000D01*
X-15902727Y12000000D01*
X-15597274Y12000000D01*
X-14800000Y12000000D01*
X-14800000Y12650000D01*
X-14200000Y12650000D01*
X-14200000Y12000000D01*
X-13402727Y12000000D01*
X-13097274Y12000000D01*
X-12300000Y12000000D01*
X-12300000Y12650000D01*
X-11700000Y12650000D01*
X-11700000Y12000000D01*
X-10902727Y12000000D01*
X-10597274Y12000000D01*
X-9800000Y12000000D01*
X-9800000Y12650000D01*
X-9200000Y12650000D01*
X-9200000Y12000000D01*
X-8402727Y12000000D01*
X-8402727Y12000001D01*
X-8410145Y12072608D01*
X-8463453Y12233482D01*
X-8463458Y12233493D01*
X-8552425Y12377729D01*
X-8552428Y12377733D01*
X-8672268Y12497573D01*
X-8672272Y12497576D01*
X-8816508Y12586543D01*
X-8816519Y12586548D01*
X-8977394Y12639856D01*
X-9076678Y12650000D01*
X-9200000Y12650000D01*
X-9800000Y12650000D01*
X-9923309Y12650000D01*
X-9923324Y12649999D01*
X-10022608Y12639856D01*
X-10183482Y12586548D01*
X-10183493Y12586543D01*
X-10327729Y12497576D01*
X-10327733Y12497573D01*
X-10447573Y12377733D01*
X-10447576Y12377729D01*
X-10536543Y12233493D01*
X-10536549Y12233480D01*
X-10589857Y12072605D01*
X-10597274Y12000000D01*
X-10902727Y12000000D01*
X-10902727Y12000001D01*
X-10910145Y12072608D01*
X-10963453Y12233482D01*
X-10963458Y12233493D01*
X-11052425Y12377729D01*
X-11052428Y12377733D01*
X-11172268Y12497573D01*
X-11172272Y12497576D01*
X-11316508Y12586543D01*
X-11316519Y12586548D01*
X-11477394Y12639856D01*
X-11576678Y12650000D01*
X-11700000Y12650000D01*
X-12300000Y12650000D01*
X-12423309Y12650000D01*
X-12423324Y12649999D01*
X-12522608Y12639856D01*
X-12683482Y12586548D01*
X-12683493Y12586543D01*
X-12827729Y12497576D01*
X-12827733Y12497573D01*
X-12947573Y12377733D01*
X-12947576Y12377729D01*
X-13036543Y12233493D01*
X-13036549Y12233480D01*
X-13089857Y12072605D01*
X-13097274Y12000000D01*
X-13402727Y12000000D01*
X-13402727Y12000001D01*
X-13410145Y12072608D01*
X-13463453Y12233482D01*
X-13463458Y12233493D01*
X-13552425Y12377729D01*
X-13552428Y12377733D01*
X-13672268Y12497573D01*
X-13672272Y12497576D01*
X-13816508Y12586543D01*
X-13816519Y12586548D01*
X-13977394Y12639856D01*
X-14076678Y12650000D01*
X-14200000Y12650000D01*
X-14800000Y12650000D01*
X-14923309Y12650000D01*
X-14923324Y12649999D01*
X-15022608Y12639856D01*
X-15183482Y12586548D01*
X-15183493Y12586543D01*
X-15327729Y12497576D01*
X-15327733Y12497573D01*
X-15447573Y12377733D01*
X-15447576Y12377729D01*
X-15536543Y12233493D01*
X-15536549Y12233480D01*
X-15589857Y12072605D01*
X-15597274Y12000000D01*
X-15902727Y12000000D01*
X-15902727Y12000001D01*
X-15910145Y12072608D01*
X-15963453Y12233482D01*
X-15963458Y12233493D01*
X-16052425Y12377729D01*
X-16052428Y12377733D01*
X-16172268Y12497573D01*
X-16172272Y12497576D01*
X-16316508Y12586543D01*
X-16316519Y12586548D01*
X-16477394Y12639856D01*
X-16576678Y12650000D01*
X-16700000Y12650000D01*
X-17300000Y12650000D01*
X-17423309Y12650000D01*
X-17423324Y12649999D01*
X-17522608Y12639856D01*
X-17683482Y12586548D01*
X-17683493Y12586543D01*
X-17827729Y12497576D01*
X-17827733Y12497573D01*
X-17947573Y12377733D01*
X-17947576Y12377729D01*
X-18036543Y12233493D01*
X-18036548Y12233482D01*
X-18089856Y12072607D01*
X-18100000Y11973323D01*
X-18100000Y11832087D01*
X-18119685Y11765048D01*
X-18172489Y11719293D01*
X-18241647Y11709349D01*
X-18277798Y11720365D01*
X-18308939Y11735360D01*
X-18349655Y11744655D01*
X-18356338Y11746580D01*
X-18395741Y11760368D01*
X-18413040Y11762317D01*
X-18477453Y11789387D01*
X-18517006Y11846983D01*
X-18519141Y11916820D01*
X-18486831Y11973220D01*
X-18469928Y11990123D01*
X-18381981Y12135605D01*
X-18331410Y12297894D01*
X-18328946Y12325000D01*
X-21982740Y12325000D01*
X-22016296Y12304652D01*
X-22048114Y12300500D01*
X-27417060Y12300500D01*
X-27484099Y12320185D01*
X-27504741Y12336819D01*
X-27663181Y12495259D01*
X-27696666Y12556582D01*
X-27699500Y12582940D01*
X-27699500Y16075500D01*
X-27679815Y16142539D01*
X-27627011Y16188294D01*
X-27575500Y16199500D01*
X-26095268Y16199500D01*
X-26031119Y16181617D01*
X-26009291Y16168422D01*
X-25989606Y16156522D01*
X-25827196Y16105914D01*
X-25756616Y16099500D01*
X-25756613Y16099500D01*
X-23043387Y16099500D01*
X-23043384Y16099500D01*
X-22972804Y16105914D01*
X-22810394Y16156522D01*
X-22664815Y16244528D01*
X-22544528Y16364815D01*
X-22456522Y16510394D01*
X-22405914Y16672804D01*
X-22399500Y16743384D01*
X-22399500Y17256616D01*
X-22405914Y17327196D01*
X-22456522Y17489606D01*
X-22544528Y17635185D01*
X-22544530Y17635187D01*
X-22544531Y17635189D01*
X-22664812Y17755470D01*
X-22691463Y17771581D01*
X-22810394Y17843478D01*
X-22972804Y17894086D01*
X-22972806Y17894087D01*
X-22972808Y17894087D01*
X-23022222Y17898577D01*
X-23043384Y17900500D01*
X-25756616Y17900500D01*
X-25775855Y17898752D01*
X-25827193Y17894087D01*
X-25989609Y17843477D01*
X-26031119Y17818383D01*
X-26095268Y17800500D01*
X-27909806Y17800500D01*
X-28090194Y17800500D01*
X-28096112Y17799150D01*
X-28130911Y17791209D01*
X-28137765Y17790045D01*
X-28179257Y17785368D01*
X-28218661Y17771581D01*
X-28225342Y17769656D01*
X-28266065Y17760359D01*
X-28303692Y17742241D01*
X-28310115Y17739580D01*
X-28349519Y17725790D01*
X-28349525Y17725788D01*
X-28384878Y17703575D01*
X-28390964Y17700211D01*
X-28428586Y17682093D01*
X-28461232Y17656059D01*
X-28466903Y17652035D01*
X-28502266Y17629814D01*
X-28502267Y17629813D01*
X-28523590Y17608489D01*
X-28534252Y17597826D01*
X-28701606Y17430472D01*
X-29129814Y17002265D01*
X-29129817Y17002261D01*
X-29152034Y16966904D01*
X-29156059Y16961231D01*
X-29182090Y16928590D01*
X-29200209Y16890967D01*
X-29203573Y16884880D01*
X-29225788Y16849524D01*
X-29225792Y16849517D01*
X-29239584Y16810105D01*
X-29242245Y16803680D01*
X-29260361Y16766061D01*
X-29269656Y16725341D01*
X-29271581Y16718659D01*
X-29285368Y16679256D01*
X-29290045Y16637765D01*
X-29291209Y16630911D01*
X-29300500Y16590194D01*
X-29300500Y12109809D01*
X-29300499Y12109800D01*
X-29291209Y12069092D01*
X-29290045Y12062237D01*
X-29285368Y12020741D01*
X-29271580Y11981338D01*
X-29269655Y11974655D01*
X-29260361Y11933939D01*
X-29242241Y11896312D01*
X-29239579Y11889886D01*
X-29225788Y11850475D01*
X-29203578Y11815128D01*
X-29200213Y11809041D01*
X-29182090Y11771411D01*
X-29156060Y11738771D01*
X-29152034Y11733096D01*
X-29129818Y11697741D01*
X-29129816Y11697738D01*
X-28944259Y11512181D01*
X-28910774Y11450858D01*
X-28915758Y11381166D01*
X-28957630Y11325233D01*
X-29023094Y11300816D01*
X-29031940Y11300500D01*
X-29617060Y11300500D01*
X-29684099Y11320185D01*
X-29704741Y11336819D01*
X-33497738Y15129816D01*
X-33497741Y15129818D01*
X-33533096Y15152034D01*
X-33538771Y15156060D01*
X-33571411Y15182090D01*
X-33609041Y15200213D01*
X-33615128Y15203578D01*
X-33650475Y15225788D01*
X-33689886Y15239579D01*
X-33696312Y15242241D01*
X-33733939Y15260361D01*
X-33774655Y15269655D01*
X-33781338Y15271580D01*
X-33820741Y15285368D01*
X-33862237Y15290045D01*
X-33869092Y15291209D01*
X-33909800Y15300499D01*
X-33909804Y15300500D01*
X-33909806Y15300500D01*
X-33909809Y15300500D01*
X-33916724Y15301279D01*
X-33916444Y15303765D01*
X-33968881Y15318383D01*
X-34010392Y15343477D01*
X-34010393Y15343478D01*
X-34010394Y15343478D01*
X-34172804Y15394086D01*
X-34172806Y15394087D01*
X-34172808Y15394087D01*
X-34222222Y15398577D01*
X-34243384Y15400500D01*
X-36956616Y15400500D01*
X-36975855Y15398752D01*
X-37027193Y15394087D01*
X-37189607Y15343478D01*
X-37335189Y15255470D01*
X-37455470Y15135189D01*
X-37543478Y14989607D01*
X-37594087Y14827193D01*
X-37600500Y14756614D01*
X-37600500Y14243387D01*
X-37594087Y14172808D01*
X-37594087Y14172806D01*
X-37594086Y14172804D01*
X-37575701Y14113803D01*
X-37543478Y14010394D01*
X-37455470Y13864812D01*
X-37335189Y13744531D01*
X-37335187Y13744530D01*
X-37335185Y13744528D01*
X-37189606Y13656522D01*
X-37027196Y13605914D01*
X-36956616Y13599500D01*
X-36956613Y13599500D01*
X-34282940Y13599500D01*
X-34215901Y13579815D01*
X-34195259Y13563181D01*
X-30644259Y10012181D01*
X-30610774Y9950858D01*
X-30615758Y9881166D01*
X-30657630Y9825233D01*
X-30723094Y9800816D01*
X-30731940Y9800500D01*
X-35105560Y9800500D01*
X-35172599Y9820185D01*
X-35218354Y9872989D01*
X-35228298Y9942147D01*
X-35223946Y9961390D01*
X-35181409Y10097899D01*
X-35175000Y10168428D01*
X-35175000Y10200000D01*
X-36251000Y10200000D01*
X-36318039Y10219685D01*
X-36363794Y10272489D01*
X-36375000Y10324000D01*
X-36375000Y11471054D01*
X-36402107Y11468591D01*
X-36564396Y11418020D01*
X-36709878Y11330073D01*
X-36709879Y11330072D01*
X-36811965Y11227985D01*
X-36873288Y11194500D01*
X-36942980Y11199484D01*
X-36987327Y11227985D01*
X-37089812Y11330470D01*
X-37235394Y11418478D01*
X-37336557Y11450001D01*
X-37397804Y11469086D01*
X-37397806Y11469087D01*
X-37397808Y11469087D01*
X-37419467Y11471055D01*
X-35775000Y11471055D01*
X-35775000Y10800000D01*
X-35175001Y10800000D01*
X-35175001Y10831583D01*
X-35181409Y10902103D01*
X-35181410Y10902108D01*
X-35231982Y11064397D01*
X-35319928Y11209878D01*
X-35440123Y11330073D01*
X-35585605Y11418020D01*
X-35585604Y11418020D01*
X-35747889Y11468590D01*
X-35747898Y11468592D01*
X-35775000Y11471055D01*
X-37419467Y11471055D01*
X-37447222Y11473577D01*
X-37468384Y11475500D01*
X-37981616Y11475500D01*
X-38000855Y11473752D01*
X-38052193Y11469087D01*
X-38214607Y11418478D01*
X-38360189Y11330470D01*
X-38480470Y11210189D01*
X-38568478Y11064607D01*
X-38619087Y10902193D01*
X-38625500Y10831614D01*
X-38625500Y10168387D01*
X-38619087Y10097808D01*
X-38619087Y10097806D01*
X-38619086Y10097804D01*
X-38568478Y9935394D01*
X-38568477Y9935393D01*
X-38568476Y9935389D01*
X-38543384Y9893884D01*
X-38525500Y9829733D01*
X-38525500Y9670268D01*
X-38543383Y9606119D01*
X-38568477Y9564609D01*
X-38619087Y9402193D01*
X-38621171Y9379257D01*
X-38625500Y9331616D01*
X-38625500Y8668384D01*
X-38619086Y8597804D01*
X-38618097Y8594631D01*
X-38576578Y8461389D01*
X-38575428Y8391529D01*
X-38612229Y8332137D01*
X-38675298Y8302069D01*
X-38694964Y8300500D01*
X-38945887Y8300500D01*
X-39012926Y8320185D01*
X-39058681Y8372989D01*
X-39062296Y8382193D01*
X-39063000Y8383703D01*
X-39152032Y8528044D01*
X-39271956Y8647968D01*
X-39271960Y8647971D01*
X-39416295Y8736999D01*
X-39416301Y8737002D01*
X-39416303Y8737003D01*
X-39437693Y8744091D01*
X-39577291Y8790349D01*
X-39676654Y8800500D01*
X-40523338Y8800500D01*
X-40523356Y8800499D01*
X-40622708Y8790350D01*
X-40622711Y8790349D01*
X-40783695Y8737004D01*
X-40783706Y8736999D01*
X-40928041Y8647971D01*
X-40928045Y8647968D01*
X-41047969Y8528044D01*
X-41137001Y8383703D01*
X-41140053Y8377155D01*
X-41141662Y8377905D01*
X-41176184Y8328047D01*
X-41240701Y8301227D01*
X-41254113Y8300500D01*
X-41345887Y8300500D01*
X-41412926Y8320185D01*
X-41458681Y8372989D01*
X-41462296Y8382193D01*
X-41463000Y8383703D01*
X-41552032Y8528044D01*
X-41671956Y8647968D01*
X-41671960Y8647971D01*
X-41816295Y8736999D01*
X-41816301Y8737002D01*
X-41816303Y8737003D01*
X-41837693Y8744091D01*
X-41977291Y8790349D01*
X-42076654Y8800500D01*
X-42923338Y8800500D01*
X-42923358Y8800498D01*
X-42963400Y8796408D01*
X-43032093Y8809178D01*
X-43082976Y8857060D01*
X-43100000Y8919766D01*
X-43100000Y9500000D01*
X-49875500Y9500000D01*
X-49942539Y9519685D01*
X-49988294Y9572489D01*
X-49999500Y9624000D01*
X-49999500Y10407859D01*
X-49979815Y10474898D01*
X-49927011Y10520653D01*
X-49857853Y10530597D01*
X-49832165Y10524040D01*
X-49784881Y10506404D01*
X-49784873Y10506402D01*
X-49725345Y10500001D01*
X-49725328Y10500000D01*
X-47437500Y10500000D01*
X-47437500Y11450000D01*
X-46837500Y11450000D01*
X-46837500Y10500000D01*
X-44549672Y10500000D01*
X-44549656Y10500001D01*
X-44490128Y10506402D01*
X-44490121Y10506404D01*
X-44355414Y10556646D01*
X-44355407Y10556650D01*
X-44240313Y10642810D01*
X-44240310Y10642813D01*
X-44154150Y10757907D01*
X-44154146Y10757914D01*
X-44119800Y10850000D01*
X-43597273Y10850000D01*
X-43589856Y10777393D01*
X-43536548Y10616519D01*
X-43536543Y10616508D01*
X-43447576Y10472272D01*
X-43447573Y10472268D01*
X-43327733Y10352428D01*
X-43327729Y10352425D01*
X-43183493Y10263458D01*
X-43183482Y10263453D01*
X-43022607Y10210145D01*
X-42923317Y10200001D01*
X-42800001Y10200001D01*
X-42800000Y10200002D01*
X-42800000Y10850000D01*
X-43597273Y10850000D01*
X-44119800Y10850000D01*
X-44103904Y10892621D01*
X-44103902Y10892628D01*
X-44097501Y10952156D01*
X-44097500Y10952173D01*
X-44097500Y11450000D01*
X-43597274Y11450000D01*
X-42800000Y11450000D01*
X-42800000Y12100000D01*
X-42200000Y12100000D01*
X-42200000Y10200001D01*
X-42076692Y10200001D01*
X-42076678Y10200002D01*
X-41977393Y10210145D01*
X-41816519Y10263453D01*
X-41816508Y10263458D01*
X-41672272Y10352425D01*
X-41672268Y10352428D01*
X-41552428Y10472268D01*
X-41552425Y10472272D01*
X-41463458Y10616508D01*
X-41463453Y10616519D01*
X-41417706Y10754573D01*
X-41377934Y10812018D01*
X-41313418Y10838841D01*
X-41244642Y10826526D01*
X-41193442Y10778983D01*
X-41182294Y10754573D01*
X-41136548Y10616519D01*
X-41136543Y10616508D01*
X-41047576Y10472272D01*
X-41047573Y10472268D01*
X-40927733Y10352428D01*
X-40927729Y10352425D01*
X-40783493Y10263458D01*
X-40783482Y10263453D01*
X-40622607Y10210145D01*
X-40523317Y10200001D01*
X-40400001Y10200001D01*
X-40400000Y10200002D01*
X-40400000Y10850000D01*
X-39800000Y10850000D01*
X-39800000Y10200001D01*
X-39676692Y10200001D01*
X-39676678Y10200002D01*
X-39577393Y10210145D01*
X-39416519Y10263453D01*
X-39416508Y10263458D01*
X-39272272Y10352425D01*
X-39272268Y10352428D01*
X-39152428Y10472268D01*
X-39152425Y10472272D01*
X-39063458Y10616508D01*
X-39063452Y10616521D01*
X-39010144Y10777396D01*
X-39002726Y10850000D01*
X-39800000Y10850000D01*
X-40400000Y10850000D01*
X-40400000Y12100000D01*
X-39800000Y12100000D01*
X-39800000Y11450000D01*
X-39002727Y11450000D01*
X-39002727Y11450001D01*
X-39010145Y11522608D01*
X-39063453Y11683482D01*
X-39063458Y11683493D01*
X-39152425Y11827729D01*
X-39152428Y11827733D01*
X-39272268Y11947573D01*
X-39272272Y11947576D01*
X-39416508Y12036543D01*
X-39416519Y12036548D01*
X-39577394Y12089856D01*
X-39676678Y12100000D01*
X-39800000Y12100000D01*
X-40400000Y12100000D01*
X-40523309Y12100000D01*
X-40523324Y12099999D01*
X-40622608Y12089856D01*
X-40783482Y12036548D01*
X-40783493Y12036543D01*
X-40927729Y11947576D01*
X-40927733Y11947573D01*
X-41047573Y11827733D01*
X-41047576Y11827729D01*
X-41136543Y11683493D01*
X-41136548Y11683482D01*
X-41182294Y11545428D01*
X-41222067Y11487983D01*
X-41286583Y11461160D01*
X-41355358Y11473475D01*
X-41406558Y11521018D01*
X-41417706Y11545428D01*
X-41463453Y11683482D01*
X-41463458Y11683493D01*
X-41552425Y11827729D01*
X-41552428Y11827733D01*
X-41672268Y11947573D01*
X-41672272Y11947576D01*
X-41816508Y12036543D01*
X-41816519Y12036548D01*
X-41977394Y12089856D01*
X-42076678Y12100000D01*
X-42200000Y12100000D01*
X-42800000Y12100000D01*
X-42923309Y12100000D01*
X-42923324Y12099999D01*
X-43022608Y12089856D01*
X-43183482Y12036548D01*
X-43183493Y12036543D01*
X-43327729Y11947576D01*
X-43327733Y11947573D01*
X-43447573Y11827733D01*
X-43447576Y11827729D01*
X-43536543Y11683493D01*
X-43536549Y11683480D01*
X-43589857Y11522605D01*
X-43597274Y11450000D01*
X-44097500Y11450000D01*
X-46837500Y11450000D01*
X-47437500Y11450000D01*
X-47437500Y13000000D01*
X-46837500Y13000000D01*
X-46837500Y12050000D01*
X-44097500Y12050000D01*
X-44097500Y12547828D01*
X-44097501Y12547845D01*
X-44103902Y12607373D01*
X-44103904Y12607380D01*
X-44154146Y12742087D01*
X-44154150Y12742094D01*
X-44240310Y12857188D01*
X-44240313Y12857191D01*
X-44355407Y12943351D01*
X-44355414Y12943355D01*
X-44490121Y12993597D01*
X-44490128Y12993599D01*
X-44549656Y13000000D01*
X-46837500Y13000000D01*
X-47437500Y13000000D01*
X-49725345Y13000000D01*
X-49784873Y12993599D01*
X-49784884Y12993596D01*
X-49825587Y12978415D01*
X-49895279Y12973431D01*
X-49956602Y13006917D01*
X-49990086Y13068241D01*
X-49992603Y13103434D01*
X-49981014Y13265464D01*
X-49979986Y13273097D01*
X-49956847Y13389421D01*
X-49955882Y13393859D01*
X-49925467Y13533677D01*
X-49923608Y13540375D01*
X-49883185Y13659457D01*
X-49833841Y13791749D01*
X-49831367Y13797480D01*
X-49774417Y13912964D01*
X-49707821Y14034924D01*
X-49704981Y14039616D01*
X-49633437Y14146689D01*
X-49631572Y14149324D01*
X-49549709Y14258679D01*
X-49546756Y14262322D01*
X-49461497Y14359541D01*
X-49458802Y14362419D01*
X-49362419Y14458802D01*
X-49359541Y14461497D01*
X-49262322Y14546756D01*
X-49258679Y14549709D01*
X-49149324Y14631572D01*
X-49146689Y14633437D01*
X-49039616Y14704981D01*
X-49034924Y14707821D01*
X-48912964Y14774417D01*
X-48797480Y14831367D01*
X-48791749Y14833841D01*
X-48659457Y14883185D01*
X-48540375Y14923608D01*
X-48533677Y14925467D01*
X-48389421Y14956847D01*
X-48383272Y14958071D01*
X-48273097Y14979986D01*
X-48265464Y14981014D01*
X-48083756Y14994011D01*
X-48030789Y14997483D01*
X-48002019Y14999367D01*
X-47997964Y14999500D01*
X-43868887Y14999500D01*
X-43868880Y14999500D01*
X-43608884Y15033730D01*
X-43355581Y15101602D01*
X-43113303Y15201957D01*
X-42886197Y15333076D01*
X-42678149Y15492718D01*
X-42678145Y15492723D01*
X-42678140Y15492726D01*
X-42492726Y15678140D01*
X-42492723Y15678145D01*
X-42492718Y15678149D01*
X-42333076Y15886197D01*
X-42201957Y16113303D01*
X-42101602Y16355581D01*
X-42033730Y16608884D01*
X-42016022Y16743387D01*
X-37600500Y16743387D01*
X-37594087Y16672808D01*
X-37594087Y16672806D01*
X-37594086Y16672804D01*
X-37543478Y16510394D01*
X-37487858Y16418387D01*
X-37455470Y16364812D01*
X-37335189Y16244531D01*
X-37335187Y16244530D01*
X-37335185Y16244528D01*
X-37189606Y16156522D01*
X-37027196Y16105914D01*
X-36956616Y16099500D01*
X-36956613Y16099500D01*
X-34243387Y16099500D01*
X-34243384Y16099500D01*
X-34172804Y16105914D01*
X-34010394Y16156522D01*
X-33864815Y16244528D01*
X-33744528Y16364815D01*
X-33656522Y16510394D01*
X-33605914Y16672804D01*
X-33599500Y16743384D01*
X-33599500Y17256616D01*
X-33605914Y17327196D01*
X-33656522Y17489606D01*
X-33744528Y17635185D01*
X-33744530Y17635187D01*
X-33744531Y17635189D01*
X-33864812Y17755470D01*
X-33891463Y17771581D01*
X-34010394Y17843478D01*
X-34172804Y17894086D01*
X-34172806Y17894087D01*
X-34172808Y17894087D01*
X-34222222Y17898577D01*
X-34243384Y17900500D01*
X-36956616Y17900500D01*
X-36975855Y17898752D01*
X-37027193Y17894087D01*
X-37189607Y17843478D01*
X-37335189Y17755470D01*
X-37455470Y17635189D01*
X-37543478Y17489607D01*
X-37594087Y17327193D01*
X-37600500Y17256614D01*
X-37600500Y16743387D01*
X-42016022Y16743387D01*
X-41999500Y16868880D01*
X-41999500Y17000000D01*
X-41999500Y17000500D01*
X-41999500Y19200000D01*
X-37596054Y19200000D01*
X-37593591Y19172894D01*
X-37543020Y19010605D01*
X-37455073Y18865123D01*
X-37334878Y18744928D01*
X-37189396Y18656981D01*
X-37189397Y18656981D01*
X-37027106Y18606410D01*
X-37027107Y18606410D01*
X-36956573Y18600001D01*
X-35900001Y18600001D01*
X-35900000Y18600002D01*
X-35900000Y19200000D01*
X-35300000Y19200000D01*
X-35300000Y18600001D01*
X-34243419Y18600001D01*
X-34172898Y18606409D01*
X-34172893Y18606410D01*
X-34010604Y18656982D01*
X-33865123Y18744928D01*
X-33744928Y18865123D01*
X-33656981Y19010605D01*
X-33606410Y19172894D01*
X-33603946Y19200000D01*
X-35300000Y19200000D01*
X-35900000Y19200000D01*
X-37596054Y19200000D01*
X-41999500Y19200000D01*
X-41999500Y19870500D01*
X-41979815Y19937539D01*
X-41927011Y19983294D01*
X-41875500Y19994500D01*
X-37709949Y19994500D01*
X-37642910Y19974815D01*
X-37597155Y19922011D01*
X-37587211Y19852853D01*
X-37591564Y19833609D01*
X-37593591Y19827105D01*
X-37596054Y19800000D01*
X-33603946Y19800000D01*
X-33606410Y19827105D01*
X-33612657Y19847154D01*
X-33613809Y19917014D01*
X-33577008Y19976407D01*
X-33519468Y20003870D01*
X-33519789Y20005347D01*
X-33516200Y20006128D01*
X-33465033Y20017259D01*
X-33430803Y20028653D01*
X-33362503Y20051384D01*
X-33362499Y20051387D01*
X-33362496Y20051387D01*
X-33241457Y20129175D01*
X-33188653Y20174930D01*
X-33094433Y20283664D01*
X-33034662Y20414541D01*
X-33014977Y20481580D01*
X-33014976Y20481584D01*
X-32994500Y20624000D01*
X-32994500Y26900000D01*
X-32549999Y26900000D01*
X-32549999Y26050014D01*
X-32539506Y25947303D01*
X-32484359Y25780881D01*
X-32484357Y25780876D01*
X-32392316Y25631655D01*
X-32268346Y25507685D01*
X-32119125Y25415644D01*
X-32119120Y25415642D01*
X-31952698Y25360495D01*
X-31952691Y25360494D01*
X-31849981Y25350001D01*
X-31175000Y25350001D01*
X-31129500Y25350001D01*
X-31062461Y25330316D01*
X-31016706Y25277512D01*
X-31005500Y25226001D01*
X-31005500Y23124000D01*
X-31005499Y23123991D01*
X-30993948Y23016550D01*
X-30993946Y23016538D01*
X-30982740Y22965028D01*
X-30948617Y22862503D01*
X-30948614Y22862497D01*
X-30870829Y22741463D01*
X-30870821Y22741452D01*
X-30825077Y22688660D01*
X-30825074Y22688657D01*
X-30825070Y22688653D01*
X-30716336Y22594433D01*
X-30716333Y22594432D01*
X-30716332Y22594431D01*
X-30622075Y22551384D01*
X-30585459Y22534662D01*
X-30540643Y22521503D01*
X-30518425Y22514978D01*
X-30518420Y22514977D01*
X-30518416Y22514976D01*
X-30376000Y22494500D01*
X-30375997Y22494500D01*
X-23624010Y22494500D01*
X-23624000Y22494500D01*
X-23516544Y22506053D01*
X-23465033Y22517259D01*
X-23430803Y22528653D01*
X-23362503Y22551384D01*
X-23362499Y22551387D01*
X-23362496Y22551387D01*
X-23241457Y22629175D01*
X-23188653Y22674930D01*
X-23094433Y22783664D01*
X-23034662Y22914541D01*
X-23014977Y22981580D01*
X-23014976Y22981584D01*
X-22994500Y23124000D01*
X-22994500Y31876000D01*
X-23006053Y31983456D01*
X-23017259Y32034967D01*
X-23022724Y32051387D01*
X-23051385Y32137501D01*
X-23078965Y32180415D01*
X-23098650Y32247455D01*
X-23087445Y32298966D01*
X-23034662Y32414541D01*
X-23014977Y32481580D01*
X-23014976Y32481584D01*
X-22994500Y32624000D01*
X-22994500Y41376000D01*
X-23006053Y41483456D01*
X-23017259Y41534967D01*
X-23017363Y41535278D01*
X-23051384Y41637498D01*
X-23051387Y41637504D01*
X-23129172Y41758538D01*
X-23129175Y41758543D01*
X-23129180Y41758549D01*
X-23174924Y41811341D01*
X-23174928Y41811344D01*
X-23174930Y41811347D01*
X-23283664Y41905567D01*
X-23283667Y41905569D01*
X-23283669Y41905570D01*
X-23414535Y41965336D01*
X-23414540Y41965338D01*
X-23414541Y41965338D01*
X-23437142Y41971975D01*
X-23481575Y41985022D01*
X-23481581Y41985024D01*
X-23552792Y41995262D01*
X-23624000Y42005500D01*
X-23624003Y42005500D01*
X-25456524Y42005500D01*
X-27289047Y42005499D01*
X-27291450Y42005493D01*
X-27291451Y42005493D01*
X-27332635Y41999372D01*
X-27433767Y41984340D01*
X-27433770Y41984340D01*
X-27433778Y41984338D01*
X-27499357Y41964743D01*
X-27500282Y41964490D01*
X-27500711Y41964338D01*
X-27500715Y41964337D01*
X-27500716Y41964336D01*
X-27534706Y41948617D01*
X-27631307Y41903944D01*
X-27631310Y41903943D01*
X-27773894Y41811347D01*
X-27897583Y41731023D01*
X-27903199Y41727780D01*
X-28195798Y41578694D01*
X-28201731Y41576053D01*
X-28508297Y41458373D01*
X-28514473Y41456367D01*
X-28831677Y41371372D01*
X-28838029Y41370022D01*
X-29162366Y41318653D01*
X-29168825Y41317974D01*
X-29496753Y41300787D01*
X-29503247Y41300787D01*
X-29831176Y41317974D01*
X-29837634Y41318653D01*
X-30053105Y41352779D01*
X-30161982Y41370023D01*
X-30168325Y41371372D01*
X-30220357Y41385313D01*
X-30235006Y41388774D01*
X-30256809Y41393245D01*
X-30286417Y41398404D01*
X-30286419Y41398404D01*
X-30430294Y41398404D01*
X-30461154Y41393967D01*
X-30499455Y41388459D01*
X-30499460Y41388458D01*
X-30499464Y41388457D01*
X-30637502Y41347925D01*
X-30637508Y41347922D01*
X-30758538Y41270140D01*
X-30758549Y41270132D01*
X-30811341Y41224388D01*
X-30905567Y41115647D01*
X-30905570Y41115643D01*
X-30965336Y40984777D01*
X-30985022Y40917736D01*
X-30985024Y40917731D01*
X-31005500Y40775310D01*
X-31005500Y39174000D01*
X-31025185Y39106961D01*
X-31077989Y39061206D01*
X-31129500Y39050000D01*
X-31175000Y39050000D01*
X-31175000Y35350001D01*
X-31129500Y35350001D01*
X-31062461Y35330316D01*
X-31016706Y35277512D01*
X-31005500Y35226001D01*
X-31005500Y32624000D01*
X-31005499Y32623991D01*
X-30993948Y32516550D01*
X-30993946Y32516538D01*
X-30982740Y32465028D01*
X-30948617Y32362503D01*
X-30948614Y32362497D01*
X-30921036Y32319586D01*
X-30901351Y32252547D01*
X-30912557Y32201034D01*
X-30965336Y32085466D01*
X-30985022Y32018425D01*
X-30985024Y32018420D01*
X-30998874Y31922085D01*
X-31005498Y31876010D01*
X-31005500Y31875999D01*
X-31005500Y29174000D01*
X-31025185Y29106961D01*
X-31077989Y29061206D01*
X-31129500Y29050000D01*
X-31175000Y29050000D01*
X-31175000Y25350001D01*
X-31849981Y25350001D01*
X-31775001Y25350002D01*
X-31775000Y25350002D01*
X-31775000Y26900000D01*
X-32549999Y26900000D01*
X-32994500Y26900000D01*
X-32994500Y27500000D01*
X-32550000Y27500000D01*
X-31775000Y27500000D01*
X-31775000Y29050000D01*
X-31775001Y29050001D01*
X-31849972Y29050000D01*
X-31849989Y29049999D01*
X-31952698Y29039506D01*
X-32119120Y28984359D01*
X-32119125Y28984357D01*
X-32268346Y28892316D01*
X-32392316Y28768346D01*
X-32484357Y28619125D01*
X-32484359Y28619120D01*
X-32539506Y28452698D01*
X-32539507Y28452691D01*
X-32550000Y28349987D01*
X-32550000Y27500000D01*
X-32994500Y27500000D01*
X-32994500Y31876000D01*
X-33006053Y31983456D01*
X-33017259Y32034967D01*
X-33022724Y32051387D01*
X-33051385Y32137501D01*
X-33078965Y32180415D01*
X-33098650Y32247455D01*
X-33087445Y32298966D01*
X-33034662Y32414541D01*
X-33014977Y32481580D01*
X-33014976Y32481584D01*
X-32994500Y32624000D01*
X-32994500Y36900000D01*
X-32549999Y36900000D01*
X-32549999Y36050014D01*
X-32539506Y35947303D01*
X-32484359Y35780881D01*
X-32484357Y35780876D01*
X-32392316Y35631655D01*
X-32268346Y35507685D01*
X-32119125Y35415644D01*
X-32119120Y35415642D01*
X-31952698Y35360495D01*
X-31952691Y35360494D01*
X-31849981Y35350001D01*
X-31775001Y35350002D01*
X-31775000Y35350002D01*
X-31775000Y36900000D01*
X-32549999Y36900000D01*
X-32994500Y36900000D01*
X-32994500Y37500000D01*
X-32550000Y37500000D01*
X-31775000Y37500000D01*
X-31775000Y39050000D01*
X-31775001Y39050001D01*
X-31849972Y39050000D01*
X-31849989Y39049999D01*
X-31952698Y39039506D01*
X-32119120Y38984359D01*
X-32119125Y38984357D01*
X-32268346Y38892316D01*
X-32392316Y38768346D01*
X-32484357Y38619125D01*
X-32484359Y38619120D01*
X-32539506Y38452698D01*
X-32539507Y38452691D01*
X-32550000Y38349987D01*
X-32550000Y37500000D01*
X-32994500Y37500000D01*
X-32994500Y48875500D01*
X-32974815Y48942539D01*
X-32922011Y48988294D01*
X-32870500Y48999500D01*
X-13129500Y48999500D01*
X-13062461Y48979815D01*
G37*
%TD.AperFunction*%
%TD*%
M02*
