%TF.GenerationSoftware,KiCad,Pcbnew,7.0.8-7.0.8~ubuntu22.04.1*%
%TF.CreationDate,2023-10-20T20:05:54+03:00*%
%TF.ProjectId,lisn,6c69736e-2e6b-4696-9361-645f70636258,rev?*%
%TF.SameCoordinates,PXa6e49c0PY6dac2c0*%
%TF.FileFunction,Legend,Top*%
%TF.FilePolarity,Positive*%
%FSLAX46Y46*%
G04 Gerber Fmt 4.6, Leading zero omitted, Abs format (unit mm)*
G04 Created by KiCad (PCBNEW 7.0.8-7.0.8~ubuntu22.04.1) date 2023-10-20 20:05:54*
%MOMM*%
%LPD*%
G01*
G04 APERTURE LIST*
%ADD10C,0.150000*%
%ADD11C,0.120000*%
G04 APERTURE END LIST*
D10*
X-16491793Y1425420D02*
X-16539412Y1377800D01*
X-16539412Y1377800D02*
X-16682269Y1330181D01*
X-16682269Y1330181D02*
X-16777507Y1330181D01*
X-16777507Y1330181D02*
X-16920364Y1377800D01*
X-16920364Y1377800D02*
X-17015602Y1473039D01*
X-17015602Y1473039D02*
X-17063221Y1568277D01*
X-17063221Y1568277D02*
X-17110840Y1758753D01*
X-17110840Y1758753D02*
X-17110840Y1901610D01*
X-17110840Y1901610D02*
X-17063221Y2092086D01*
X-17063221Y2092086D02*
X-17015602Y2187324D01*
X-17015602Y2187324D02*
X-16920364Y2282562D01*
X-16920364Y2282562D02*
X-16777507Y2330181D01*
X-16777507Y2330181D02*
X-16682269Y2330181D01*
X-16682269Y2330181D02*
X-16539412Y2282562D01*
X-16539412Y2282562D02*
X-16491793Y2234943D01*
X-16063221Y1330181D02*
X-16063221Y2330181D01*
X-16063221Y2330181D02*
X-15729888Y1615896D01*
X-15729888Y1615896D02*
X-15396555Y2330181D01*
X-15396555Y2330181D02*
X-15396555Y1330181D01*
X-24563221Y1330181D02*
X-24563221Y2330181D01*
X-24563221Y2330181D02*
X-24325126Y2330181D01*
X-24325126Y2330181D02*
X-24182269Y2282562D01*
X-24182269Y2282562D02*
X-24087031Y2187324D01*
X-24087031Y2187324D02*
X-24039412Y2092086D01*
X-24039412Y2092086D02*
X-23991793Y1901610D01*
X-23991793Y1901610D02*
X-23991793Y1758753D01*
X-23991793Y1758753D02*
X-24039412Y1568277D01*
X-24039412Y1568277D02*
X-24087031Y1473039D01*
X-24087031Y1473039D02*
X-24182269Y1377800D01*
X-24182269Y1377800D02*
X-24325126Y1330181D01*
X-24325126Y1330181D02*
X-24563221Y1330181D01*
X-23563221Y1330181D02*
X-23563221Y2330181D01*
X-23563221Y2330181D02*
X-23229888Y1615896D01*
X-23229888Y1615896D02*
X-22896555Y2330181D01*
X-22896555Y2330181D02*
X-22896555Y1330181D01*
X-30761905Y12545181D02*
X-30190477Y12545181D01*
X-30476191Y11545181D02*
X-30476191Y12545181D01*
X-29333334Y11545181D02*
X-29904762Y11545181D01*
X-29619048Y11545181D02*
X-29619048Y12545181D01*
X-29619048Y12545181D02*
X-29714286Y12402324D01*
X-29714286Y12402324D02*
X-29809524Y12307086D01*
X-29809524Y12307086D02*
X-29904762Y12259467D01*
X-40333334Y39545181D02*
X-40333334Y38830896D01*
X-40333334Y38830896D02*
X-40380953Y38688039D01*
X-40380953Y38688039D02*
X-40476191Y38592800D01*
X-40476191Y38592800D02*
X-40619048Y38545181D01*
X-40619048Y38545181D02*
X-40714286Y38545181D01*
X-39904762Y39449943D02*
X-39857143Y39497562D01*
X-39857143Y39497562D02*
X-39761905Y39545181D01*
X-39761905Y39545181D02*
X-39523810Y39545181D01*
X-39523810Y39545181D02*
X-39428572Y39497562D01*
X-39428572Y39497562D02*
X-39380953Y39449943D01*
X-39380953Y39449943D02*
X-39333334Y39354705D01*
X-39333334Y39354705D02*
X-39333334Y39259467D01*
X-39333334Y39259467D02*
X-39380953Y39116610D01*
X-39380953Y39116610D02*
X-39952381Y38545181D01*
X-39952381Y38545181D02*
X-39333334Y38545181D01*
X-38142857Y38545181D02*
X-38142857Y39545181D01*
X-37666667Y38545181D02*
X-37666667Y39545181D01*
X-37666667Y39545181D02*
X-37095239Y38545181D01*
X-37095239Y38545181D02*
X-37095239Y39545181D01*
X-36619048Y38926134D02*
X-35857143Y38926134D01*
X-40333334Y27545181D02*
X-40333334Y26830896D01*
X-40333334Y26830896D02*
X-40380953Y26688039D01*
X-40380953Y26688039D02*
X-40476191Y26592800D01*
X-40476191Y26592800D02*
X-40619048Y26545181D01*
X-40619048Y26545181D02*
X-40714286Y26545181D01*
X-39333334Y26545181D02*
X-39904762Y26545181D01*
X-39619048Y26545181D02*
X-39619048Y27545181D01*
X-39619048Y27545181D02*
X-39714286Y27402324D01*
X-39714286Y27402324D02*
X-39809524Y27307086D01*
X-39809524Y27307086D02*
X-39904762Y27259467D01*
X-38142857Y26545181D02*
X-38142857Y27545181D01*
X-37666667Y26545181D02*
X-37666667Y27545181D01*
X-37666667Y27545181D02*
X-37095239Y26545181D01*
X-37095239Y26545181D02*
X-37095239Y27545181D01*
X-36619048Y26926134D02*
X-35857143Y26926134D01*
X-36238096Y26545181D02*
X-36238096Y27307086D01*
X-21233333Y2492800D02*
X-21090476Y2445181D01*
X-21090476Y2445181D02*
X-20852381Y2445181D01*
X-20852381Y2445181D02*
X-20757143Y2492800D01*
X-20757143Y2492800D02*
X-20709524Y2540420D01*
X-20709524Y2540420D02*
X-20661905Y2635658D01*
X-20661905Y2635658D02*
X-20661905Y2730896D01*
X-20661905Y2730896D02*
X-20709524Y2826134D01*
X-20709524Y2826134D02*
X-20757143Y2873753D01*
X-20757143Y2873753D02*
X-20852381Y2921372D01*
X-20852381Y2921372D02*
X-21042857Y2968991D01*
X-21042857Y2968991D02*
X-21138095Y3016610D01*
X-21138095Y3016610D02*
X-21185714Y3064229D01*
X-21185714Y3064229D02*
X-21233333Y3159467D01*
X-21233333Y3159467D02*
X-21233333Y3254705D01*
X-21233333Y3254705D02*
X-21185714Y3349943D01*
X-21185714Y3349943D02*
X-21138095Y3397562D01*
X-21138095Y3397562D02*
X-21042857Y3445181D01*
X-21042857Y3445181D02*
X-20804762Y3445181D01*
X-20804762Y3445181D02*
X-20661905Y3397562D01*
X-20328571Y3445181D02*
X-20090476Y2445181D01*
X-20090476Y2445181D02*
X-19900000Y3159467D01*
X-19900000Y3159467D02*
X-19709524Y2445181D01*
X-19709524Y2445181D02*
X-19471428Y3445181D01*
X-18566667Y2445181D02*
X-19138095Y2445181D01*
X-18852381Y2445181D02*
X-18852381Y3445181D01*
X-18852381Y3445181D02*
X-18947619Y3302324D01*
X-18947619Y3302324D02*
X-19042857Y3207086D01*
X-19042857Y3207086D02*
X-19138095Y3159467D01*
X-34166667Y10045181D02*
X-34500000Y10521372D01*
X-34738095Y10045181D02*
X-34738095Y11045181D01*
X-34738095Y11045181D02*
X-34357143Y11045181D01*
X-34357143Y11045181D02*
X-34261905Y10997562D01*
X-34261905Y10997562D02*
X-34214286Y10949943D01*
X-34214286Y10949943D02*
X-34166667Y10854705D01*
X-34166667Y10854705D02*
X-34166667Y10711848D01*
X-34166667Y10711848D02*
X-34214286Y10616610D01*
X-34214286Y10616610D02*
X-34261905Y10568991D01*
X-34261905Y10568991D02*
X-34357143Y10521372D01*
X-34357143Y10521372D02*
X-34738095Y10521372D01*
X-33595238Y10616610D02*
X-33690476Y10664229D01*
X-33690476Y10664229D02*
X-33738095Y10711848D01*
X-33738095Y10711848D02*
X-33785714Y10807086D01*
X-33785714Y10807086D02*
X-33785714Y10854705D01*
X-33785714Y10854705D02*
X-33738095Y10949943D01*
X-33738095Y10949943D02*
X-33690476Y10997562D01*
X-33690476Y10997562D02*
X-33595238Y11045181D01*
X-33595238Y11045181D02*
X-33404762Y11045181D01*
X-33404762Y11045181D02*
X-33309524Y10997562D01*
X-33309524Y10997562D02*
X-33261905Y10949943D01*
X-33261905Y10949943D02*
X-33214286Y10854705D01*
X-33214286Y10854705D02*
X-33214286Y10807086D01*
X-33214286Y10807086D02*
X-33261905Y10711848D01*
X-33261905Y10711848D02*
X-33309524Y10664229D01*
X-33309524Y10664229D02*
X-33404762Y10616610D01*
X-33404762Y10616610D02*
X-33595238Y10616610D01*
X-33595238Y10616610D02*
X-33690476Y10568991D01*
X-33690476Y10568991D02*
X-33738095Y10521372D01*
X-33738095Y10521372D02*
X-33785714Y10426134D01*
X-33785714Y10426134D02*
X-33785714Y10235658D01*
X-33785714Y10235658D02*
X-33738095Y10140420D01*
X-33738095Y10140420D02*
X-33690476Y10092800D01*
X-33690476Y10092800D02*
X-33595238Y10045181D01*
X-33595238Y10045181D02*
X-33404762Y10045181D01*
X-33404762Y10045181D02*
X-33309524Y10092800D01*
X-33309524Y10092800D02*
X-33261905Y10140420D01*
X-33261905Y10140420D02*
X-33214286Y10235658D01*
X-33214286Y10235658D02*
X-33214286Y10426134D01*
X-33214286Y10426134D02*
X-33261905Y10521372D01*
X-33261905Y10521372D02*
X-33309524Y10568991D01*
X-33309524Y10568991D02*
X-33404762Y10616610D01*
X-34166667Y8545181D02*
X-34500000Y9021372D01*
X-34738095Y8545181D02*
X-34738095Y9545181D01*
X-34738095Y9545181D02*
X-34357143Y9545181D01*
X-34357143Y9545181D02*
X-34261905Y9497562D01*
X-34261905Y9497562D02*
X-34214286Y9449943D01*
X-34214286Y9449943D02*
X-34166667Y9354705D01*
X-34166667Y9354705D02*
X-34166667Y9211848D01*
X-34166667Y9211848D02*
X-34214286Y9116610D01*
X-34214286Y9116610D02*
X-34261905Y9068991D01*
X-34261905Y9068991D02*
X-34357143Y9021372D01*
X-34357143Y9021372D02*
X-34738095Y9021372D01*
X-33833333Y9545181D02*
X-33166667Y9545181D01*
X-33166667Y9545181D02*
X-33595238Y8545181D01*
X-20545181Y14333334D02*
X-21021372Y14000001D01*
X-20545181Y13761906D02*
X-21545181Y13761906D01*
X-21545181Y13761906D02*
X-21545181Y14142858D01*
X-21545181Y14142858D02*
X-21497562Y14238096D01*
X-21497562Y14238096D02*
X-21449943Y14285715D01*
X-21449943Y14285715D02*
X-21354705Y14333334D01*
X-21354705Y14333334D02*
X-21211848Y14333334D01*
X-21211848Y14333334D02*
X-21116610Y14285715D01*
X-21116610Y14285715D02*
X-21068991Y14238096D01*
X-21068991Y14238096D02*
X-21021372Y14142858D01*
X-21021372Y14142858D02*
X-21021372Y13761906D01*
X-21545181Y15238096D02*
X-21545181Y14761906D01*
X-21545181Y14761906D02*
X-21068991Y14714287D01*
X-21068991Y14714287D02*
X-21116610Y14761906D01*
X-21116610Y14761906D02*
X-21164229Y14857144D01*
X-21164229Y14857144D02*
X-21164229Y15095239D01*
X-21164229Y15095239D02*
X-21116610Y15190477D01*
X-21116610Y15190477D02*
X-21068991Y15238096D01*
X-21068991Y15238096D02*
X-20973753Y15285715D01*
X-20973753Y15285715D02*
X-20735658Y15285715D01*
X-20735658Y15285715D02*
X-20640420Y15238096D01*
X-20640420Y15238096D02*
X-20592800Y15190477D01*
X-20592800Y15190477D02*
X-20545181Y15095239D01*
X-20545181Y15095239D02*
X-20545181Y14857144D01*
X-20545181Y14857144D02*
X-20592800Y14761906D01*
X-20592800Y14761906D02*
X-20640420Y14714287D01*
X-6545181Y17333334D02*
X-7021372Y17000001D01*
X-6545181Y16761906D02*
X-7545181Y16761906D01*
X-7545181Y16761906D02*
X-7545181Y17142858D01*
X-7545181Y17142858D02*
X-7497562Y17238096D01*
X-7497562Y17238096D02*
X-7449943Y17285715D01*
X-7449943Y17285715D02*
X-7354705Y17333334D01*
X-7354705Y17333334D02*
X-7211848Y17333334D01*
X-7211848Y17333334D02*
X-7116610Y17285715D01*
X-7116610Y17285715D02*
X-7068991Y17238096D01*
X-7068991Y17238096D02*
X-7021372Y17142858D01*
X-7021372Y17142858D02*
X-7021372Y16761906D01*
X-7211848Y18190477D02*
X-6545181Y18190477D01*
X-7592800Y17952382D02*
X-6878515Y17714287D01*
X-6878515Y17714287D02*
X-6878515Y18333334D01*
X-8045181Y17333334D02*
X-8521372Y17000001D01*
X-8045181Y16761906D02*
X-9045181Y16761906D01*
X-9045181Y16761906D02*
X-9045181Y17142858D01*
X-9045181Y17142858D02*
X-8997562Y17238096D01*
X-8997562Y17238096D02*
X-8949943Y17285715D01*
X-8949943Y17285715D02*
X-8854705Y17333334D01*
X-8854705Y17333334D02*
X-8711848Y17333334D01*
X-8711848Y17333334D02*
X-8616610Y17285715D01*
X-8616610Y17285715D02*
X-8568991Y17238096D01*
X-8568991Y17238096D02*
X-8521372Y17142858D01*
X-8521372Y17142858D02*
X-8521372Y16761906D01*
X-9045181Y17666668D02*
X-9045181Y18285715D01*
X-9045181Y18285715D02*
X-8664229Y17952382D01*
X-8664229Y17952382D02*
X-8664229Y18095239D01*
X-8664229Y18095239D02*
X-8616610Y18190477D01*
X-8616610Y18190477D02*
X-8568991Y18238096D01*
X-8568991Y18238096D02*
X-8473753Y18285715D01*
X-8473753Y18285715D02*
X-8235658Y18285715D01*
X-8235658Y18285715D02*
X-8140420Y18238096D01*
X-8140420Y18238096D02*
X-8092800Y18190477D01*
X-8092800Y18190477D02*
X-8045181Y18095239D01*
X-8045181Y18095239D02*
X-8045181Y17809525D01*
X-8045181Y17809525D02*
X-8092800Y17714287D01*
X-8092800Y17714287D02*
X-8140420Y17666668D01*
X-17545181Y17333334D02*
X-18021372Y17000001D01*
X-17545181Y16761906D02*
X-18545181Y16761906D01*
X-18545181Y16761906D02*
X-18545181Y17142858D01*
X-18545181Y17142858D02*
X-18497562Y17238096D01*
X-18497562Y17238096D02*
X-18449943Y17285715D01*
X-18449943Y17285715D02*
X-18354705Y17333334D01*
X-18354705Y17333334D02*
X-18211848Y17333334D01*
X-18211848Y17333334D02*
X-18116610Y17285715D01*
X-18116610Y17285715D02*
X-18068991Y17238096D01*
X-18068991Y17238096D02*
X-18021372Y17142858D01*
X-18021372Y17142858D02*
X-18021372Y16761906D01*
X-18449943Y17714287D02*
X-18497562Y17761906D01*
X-18497562Y17761906D02*
X-18545181Y17857144D01*
X-18545181Y17857144D02*
X-18545181Y18095239D01*
X-18545181Y18095239D02*
X-18497562Y18190477D01*
X-18497562Y18190477D02*
X-18449943Y18238096D01*
X-18449943Y18238096D02*
X-18354705Y18285715D01*
X-18354705Y18285715D02*
X-18259467Y18285715D01*
X-18259467Y18285715D02*
X-18116610Y18238096D01*
X-18116610Y18238096D02*
X-17545181Y17666668D01*
X-17545181Y17666668D02*
X-17545181Y18285715D01*
X-19045181Y17333334D02*
X-19521372Y17000001D01*
X-19045181Y16761906D02*
X-20045181Y16761906D01*
X-20045181Y16761906D02*
X-20045181Y17142858D01*
X-20045181Y17142858D02*
X-19997562Y17238096D01*
X-19997562Y17238096D02*
X-19949943Y17285715D01*
X-19949943Y17285715D02*
X-19854705Y17333334D01*
X-19854705Y17333334D02*
X-19711848Y17333334D01*
X-19711848Y17333334D02*
X-19616610Y17285715D01*
X-19616610Y17285715D02*
X-19568991Y17238096D01*
X-19568991Y17238096D02*
X-19521372Y17142858D01*
X-19521372Y17142858D02*
X-19521372Y16761906D01*
X-19045181Y18285715D02*
X-19045181Y17714287D01*
X-19045181Y18000001D02*
X-20045181Y18000001D01*
X-20045181Y18000001D02*
X-19902324Y17904763D01*
X-19902324Y17904763D02*
X-19807086Y17809525D01*
X-19807086Y17809525D02*
X-19759467Y17714287D01*
X-13576667Y36545181D02*
X-14052857Y36545181D01*
X-14052857Y36545181D02*
X-14052857Y37545181D01*
X-12814762Y37211848D02*
X-12814762Y36545181D01*
X-13052857Y37592800D02*
X-13290952Y36878515D01*
X-13290952Y36878515D02*
X-12671905Y36878515D01*
X-13576667Y27045181D02*
X-14052857Y27045181D01*
X-14052857Y27045181D02*
X-14052857Y28045181D01*
X-13338571Y28045181D02*
X-12719524Y28045181D01*
X-12719524Y28045181D02*
X-13052857Y27664229D01*
X-13052857Y27664229D02*
X-12910000Y27664229D01*
X-12910000Y27664229D02*
X-12814762Y27616610D01*
X-12814762Y27616610D02*
X-12767143Y27568991D01*
X-12767143Y27568991D02*
X-12719524Y27473753D01*
X-12719524Y27473753D02*
X-12719524Y27235658D01*
X-12719524Y27235658D02*
X-12767143Y27140420D01*
X-12767143Y27140420D02*
X-12814762Y27092800D01*
X-12814762Y27092800D02*
X-12910000Y27045181D01*
X-12910000Y27045181D02*
X-13195714Y27045181D01*
X-13195714Y27045181D02*
X-13290952Y27092800D01*
X-13290952Y27092800D02*
X-13338571Y27140420D01*
X-42045181Y12561906D02*
X-43045181Y12561906D01*
X-43045181Y12561906D02*
X-43045181Y12800001D01*
X-43045181Y12800001D02*
X-42997562Y12942858D01*
X-42997562Y12942858D02*
X-42902324Y13038096D01*
X-42902324Y13038096D02*
X-42807086Y13085715D01*
X-42807086Y13085715D02*
X-42616610Y13133334D01*
X-42616610Y13133334D02*
X-42473753Y13133334D01*
X-42473753Y13133334D02*
X-42283277Y13085715D01*
X-42283277Y13085715D02*
X-42188039Y13038096D01*
X-42188039Y13038096D02*
X-42092800Y12942858D01*
X-42092800Y12942858D02*
X-42045181Y12800001D01*
X-42045181Y12800001D02*
X-42045181Y12561906D01*
X-43045181Y13990477D02*
X-43045181Y13800001D01*
X-43045181Y13800001D02*
X-42997562Y13704763D01*
X-42997562Y13704763D02*
X-42949943Y13657144D01*
X-42949943Y13657144D02*
X-42807086Y13561906D01*
X-42807086Y13561906D02*
X-42616610Y13514287D01*
X-42616610Y13514287D02*
X-42235658Y13514287D01*
X-42235658Y13514287D02*
X-42140420Y13561906D01*
X-42140420Y13561906D02*
X-42092800Y13609525D01*
X-42092800Y13609525D02*
X-42045181Y13704763D01*
X-42045181Y13704763D02*
X-42045181Y13895239D01*
X-42045181Y13895239D02*
X-42092800Y13990477D01*
X-42092800Y13990477D02*
X-42140420Y14038096D01*
X-42140420Y14038096D02*
X-42235658Y14085715D01*
X-42235658Y14085715D02*
X-42473753Y14085715D01*
X-42473753Y14085715D02*
X-42568991Y14038096D01*
X-42568991Y14038096D02*
X-42616610Y13990477D01*
X-42616610Y13990477D02*
X-42664229Y13895239D01*
X-42664229Y13895239D02*
X-42664229Y13704763D01*
X-42664229Y13704763D02*
X-42616610Y13609525D01*
X-42616610Y13609525D02*
X-42568991Y13561906D01*
X-42568991Y13561906D02*
X-42473753Y13514287D01*
X-39545181Y12561906D02*
X-40545181Y12561906D01*
X-40545181Y12561906D02*
X-40545181Y12800001D01*
X-40545181Y12800001D02*
X-40497562Y12942858D01*
X-40497562Y12942858D02*
X-40402324Y13038096D01*
X-40402324Y13038096D02*
X-40307086Y13085715D01*
X-40307086Y13085715D02*
X-40116610Y13133334D01*
X-40116610Y13133334D02*
X-39973753Y13133334D01*
X-39973753Y13133334D02*
X-39783277Y13085715D01*
X-39783277Y13085715D02*
X-39688039Y13038096D01*
X-39688039Y13038096D02*
X-39592800Y12942858D01*
X-39592800Y12942858D02*
X-39545181Y12800001D01*
X-39545181Y12800001D02*
X-39545181Y12561906D01*
X-40545181Y14038096D02*
X-40545181Y13561906D01*
X-40545181Y13561906D02*
X-40068991Y13514287D01*
X-40068991Y13514287D02*
X-40116610Y13561906D01*
X-40116610Y13561906D02*
X-40164229Y13657144D01*
X-40164229Y13657144D02*
X-40164229Y13895239D01*
X-40164229Y13895239D02*
X-40116610Y13990477D01*
X-40116610Y13990477D02*
X-40068991Y14038096D01*
X-40068991Y14038096D02*
X-39973753Y14085715D01*
X-39973753Y14085715D02*
X-39735658Y14085715D01*
X-39735658Y14085715D02*
X-39640420Y14038096D01*
X-39640420Y14038096D02*
X-39592800Y13990477D01*
X-39592800Y13990477D02*
X-39545181Y13895239D01*
X-39545181Y13895239D02*
X-39545181Y13657144D01*
X-39545181Y13657144D02*
X-39592800Y13561906D01*
X-39592800Y13561906D02*
X-39640420Y13514287D01*
X-9045181Y9261906D02*
X-10045181Y9261906D01*
X-10045181Y9261906D02*
X-10045181Y9500001D01*
X-10045181Y9500001D02*
X-9997562Y9642858D01*
X-9997562Y9642858D02*
X-9902324Y9738096D01*
X-9902324Y9738096D02*
X-9807086Y9785715D01*
X-9807086Y9785715D02*
X-9616610Y9833334D01*
X-9616610Y9833334D02*
X-9473753Y9833334D01*
X-9473753Y9833334D02*
X-9283277Y9785715D01*
X-9283277Y9785715D02*
X-9188039Y9738096D01*
X-9188039Y9738096D02*
X-9092800Y9642858D01*
X-9092800Y9642858D02*
X-9045181Y9500001D01*
X-9045181Y9500001D02*
X-9045181Y9261906D01*
X-9711848Y10690477D02*
X-9045181Y10690477D01*
X-10092800Y10452382D02*
X-9378515Y10214287D01*
X-9378515Y10214287D02*
X-9378515Y10833334D01*
X-11545181Y9261906D02*
X-12545181Y9261906D01*
X-12545181Y9261906D02*
X-12545181Y9500001D01*
X-12545181Y9500001D02*
X-12497562Y9642858D01*
X-12497562Y9642858D02*
X-12402324Y9738096D01*
X-12402324Y9738096D02*
X-12307086Y9785715D01*
X-12307086Y9785715D02*
X-12116610Y9833334D01*
X-12116610Y9833334D02*
X-11973753Y9833334D01*
X-11973753Y9833334D02*
X-11783277Y9785715D01*
X-11783277Y9785715D02*
X-11688039Y9738096D01*
X-11688039Y9738096D02*
X-11592800Y9642858D01*
X-11592800Y9642858D02*
X-11545181Y9500001D01*
X-11545181Y9500001D02*
X-11545181Y9261906D01*
X-12545181Y10166668D02*
X-12545181Y10785715D01*
X-12545181Y10785715D02*
X-12164229Y10452382D01*
X-12164229Y10452382D02*
X-12164229Y10595239D01*
X-12164229Y10595239D02*
X-12116610Y10690477D01*
X-12116610Y10690477D02*
X-12068991Y10738096D01*
X-12068991Y10738096D02*
X-11973753Y10785715D01*
X-11973753Y10785715D02*
X-11735658Y10785715D01*
X-11735658Y10785715D02*
X-11640420Y10738096D01*
X-11640420Y10738096D02*
X-11592800Y10690477D01*
X-11592800Y10690477D02*
X-11545181Y10595239D01*
X-11545181Y10595239D02*
X-11545181Y10309525D01*
X-11545181Y10309525D02*
X-11592800Y10214287D01*
X-11592800Y10214287D02*
X-11640420Y10166668D01*
X-14045181Y9261906D02*
X-15045181Y9261906D01*
X-15045181Y9261906D02*
X-15045181Y9500001D01*
X-15045181Y9500001D02*
X-14997562Y9642858D01*
X-14997562Y9642858D02*
X-14902324Y9738096D01*
X-14902324Y9738096D02*
X-14807086Y9785715D01*
X-14807086Y9785715D02*
X-14616610Y9833334D01*
X-14616610Y9833334D02*
X-14473753Y9833334D01*
X-14473753Y9833334D02*
X-14283277Y9785715D01*
X-14283277Y9785715D02*
X-14188039Y9738096D01*
X-14188039Y9738096D02*
X-14092800Y9642858D01*
X-14092800Y9642858D02*
X-14045181Y9500001D01*
X-14045181Y9500001D02*
X-14045181Y9261906D01*
X-14949943Y10214287D02*
X-14997562Y10261906D01*
X-14997562Y10261906D02*
X-15045181Y10357144D01*
X-15045181Y10357144D02*
X-15045181Y10595239D01*
X-15045181Y10595239D02*
X-14997562Y10690477D01*
X-14997562Y10690477D02*
X-14949943Y10738096D01*
X-14949943Y10738096D02*
X-14854705Y10785715D01*
X-14854705Y10785715D02*
X-14759467Y10785715D01*
X-14759467Y10785715D02*
X-14616610Y10738096D01*
X-14616610Y10738096D02*
X-14045181Y10166668D01*
X-14045181Y10166668D02*
X-14045181Y10785715D01*
X-16545181Y9261906D02*
X-17545181Y9261906D01*
X-17545181Y9261906D02*
X-17545181Y9500001D01*
X-17545181Y9500001D02*
X-17497562Y9642858D01*
X-17497562Y9642858D02*
X-17402324Y9738096D01*
X-17402324Y9738096D02*
X-17307086Y9785715D01*
X-17307086Y9785715D02*
X-17116610Y9833334D01*
X-17116610Y9833334D02*
X-16973753Y9833334D01*
X-16973753Y9833334D02*
X-16783277Y9785715D01*
X-16783277Y9785715D02*
X-16688039Y9738096D01*
X-16688039Y9738096D02*
X-16592800Y9642858D01*
X-16592800Y9642858D02*
X-16545181Y9500001D01*
X-16545181Y9500001D02*
X-16545181Y9261906D01*
X-16545181Y10785715D02*
X-16545181Y10214287D01*
X-16545181Y10500001D02*
X-17545181Y10500001D01*
X-17545181Y10500001D02*
X-17402324Y10404763D01*
X-17402324Y10404763D02*
X-17307086Y10309525D01*
X-17307086Y10309525D02*
X-17259467Y10214287D01*
X-19045181Y14333334D02*
X-19521372Y14000001D01*
X-19045181Y13761906D02*
X-20045181Y13761906D01*
X-20045181Y13761906D02*
X-20045181Y14142858D01*
X-20045181Y14142858D02*
X-19997562Y14238096D01*
X-19997562Y14238096D02*
X-19949943Y14285715D01*
X-19949943Y14285715D02*
X-19854705Y14333334D01*
X-19854705Y14333334D02*
X-19711848Y14333334D01*
X-19711848Y14333334D02*
X-19616610Y14285715D01*
X-19616610Y14285715D02*
X-19568991Y14238096D01*
X-19568991Y14238096D02*
X-19521372Y14142858D01*
X-19521372Y14142858D02*
X-19521372Y13761906D01*
X-20045181Y15190477D02*
X-20045181Y15000001D01*
X-20045181Y15000001D02*
X-19997562Y14904763D01*
X-19997562Y14904763D02*
X-19949943Y14857144D01*
X-19949943Y14857144D02*
X-19807086Y14761906D01*
X-19807086Y14761906D02*
X-19616610Y14714287D01*
X-19616610Y14714287D02*
X-19235658Y14714287D01*
X-19235658Y14714287D02*
X-19140420Y14761906D01*
X-19140420Y14761906D02*
X-19092800Y14809525D01*
X-19092800Y14809525D02*
X-19045181Y14904763D01*
X-19045181Y14904763D02*
X-19045181Y15095239D01*
X-19045181Y15095239D02*
X-19092800Y15190477D01*
X-19092800Y15190477D02*
X-19140420Y15238096D01*
X-19140420Y15238096D02*
X-19235658Y15285715D01*
X-19235658Y15285715D02*
X-19473753Y15285715D01*
X-19473753Y15285715D02*
X-19568991Y15238096D01*
X-19568991Y15238096D02*
X-19616610Y15190477D01*
X-19616610Y15190477D02*
X-19664229Y15095239D01*
X-19664229Y15095239D02*
X-19664229Y14904763D01*
X-19664229Y14904763D02*
X-19616610Y14809525D01*
X-19616610Y14809525D02*
X-19568991Y14761906D01*
X-19568991Y14761906D02*
X-19473753Y14714287D01*
X-22666667Y36545181D02*
X-23142857Y36545181D01*
X-23142857Y36545181D02*
X-23142857Y37545181D01*
X-22380952Y37449943D02*
X-22333333Y37497562D01*
X-22333333Y37497562D02*
X-22238095Y37545181D01*
X-22238095Y37545181D02*
X-22000000Y37545181D01*
X-22000000Y37545181D02*
X-21904762Y37497562D01*
X-21904762Y37497562D02*
X-21857143Y37449943D01*
X-21857143Y37449943D02*
X-21809524Y37354705D01*
X-21809524Y37354705D02*
X-21809524Y37259467D01*
X-21809524Y37259467D02*
X-21857143Y37116610D01*
X-21857143Y37116610D02*
X-22428571Y36545181D01*
X-22428571Y36545181D02*
X-21809524Y36545181D01*
X-22666667Y27045181D02*
X-23142857Y27045181D01*
X-23142857Y27045181D02*
X-23142857Y28045181D01*
X-21809524Y27045181D02*
X-22380952Y27045181D01*
X-22095238Y27045181D02*
X-22095238Y28045181D01*
X-22095238Y28045181D02*
X-22190476Y27902324D01*
X-22190476Y27902324D02*
X-22285714Y27807086D01*
X-22285714Y27807086D02*
X-22380952Y27759467D01*
X-7833334Y38045181D02*
X-7833334Y37330896D01*
X-7833334Y37330896D02*
X-7880953Y37188039D01*
X-7880953Y37188039D02*
X-7976191Y37092800D01*
X-7976191Y37092800D02*
X-8119048Y37045181D01*
X-8119048Y37045181D02*
X-8214286Y37045181D01*
X-6928572Y38045181D02*
X-7119048Y38045181D01*
X-7119048Y38045181D02*
X-7214286Y37997562D01*
X-7214286Y37997562D02*
X-7261905Y37949943D01*
X-7261905Y37949943D02*
X-7357143Y37807086D01*
X-7357143Y37807086D02*
X-7404762Y37616610D01*
X-7404762Y37616610D02*
X-7404762Y37235658D01*
X-7404762Y37235658D02*
X-7357143Y37140420D01*
X-7357143Y37140420D02*
X-7309524Y37092800D01*
X-7309524Y37092800D02*
X-7214286Y37045181D01*
X-7214286Y37045181D02*
X-7023810Y37045181D01*
X-7023810Y37045181D02*
X-6928572Y37092800D01*
X-6928572Y37092800D02*
X-6880953Y37140420D01*
X-6880953Y37140420D02*
X-6833334Y37235658D01*
X-6833334Y37235658D02*
X-6833334Y37473753D01*
X-6833334Y37473753D02*
X-6880953Y37568991D01*
X-6880953Y37568991D02*
X-6928572Y37616610D01*
X-6928572Y37616610D02*
X-7023810Y37664229D01*
X-7023810Y37664229D02*
X-7214286Y37664229D01*
X-7214286Y37664229D02*
X-7309524Y37616610D01*
X-7309524Y37616610D02*
X-7357143Y37568991D01*
X-7357143Y37568991D02*
X-7404762Y37473753D01*
X-4619048Y38045181D02*
X-4428572Y38045181D01*
X-4428572Y38045181D02*
X-4333334Y37997562D01*
X-4333334Y37997562D02*
X-4238096Y37902324D01*
X-4238096Y37902324D02*
X-4190477Y37711848D01*
X-4190477Y37711848D02*
X-4190477Y37378515D01*
X-4190477Y37378515D02*
X-4238096Y37188039D01*
X-4238096Y37188039D02*
X-4333334Y37092800D01*
X-4333334Y37092800D02*
X-4428572Y37045181D01*
X-4428572Y37045181D02*
X-4619048Y37045181D01*
X-4619048Y37045181D02*
X-4714286Y37092800D01*
X-4714286Y37092800D02*
X-4809524Y37188039D01*
X-4809524Y37188039D02*
X-4857143Y37378515D01*
X-4857143Y37378515D02*
X-4857143Y37711848D01*
X-4857143Y37711848D02*
X-4809524Y37902324D01*
X-4809524Y37902324D02*
X-4714286Y37997562D01*
X-4714286Y37997562D02*
X-4619048Y38045181D01*
X-3761905Y38045181D02*
X-3761905Y37235658D01*
X-3761905Y37235658D02*
X-3714286Y37140420D01*
X-3714286Y37140420D02*
X-3666667Y37092800D01*
X-3666667Y37092800D02*
X-3571429Y37045181D01*
X-3571429Y37045181D02*
X-3380953Y37045181D01*
X-3380953Y37045181D02*
X-3285715Y37092800D01*
X-3285715Y37092800D02*
X-3238096Y37140420D01*
X-3238096Y37140420D02*
X-3190477Y37235658D01*
X-3190477Y37235658D02*
X-3190477Y38045181D01*
X-2857143Y38045181D02*
X-2285715Y38045181D01*
X-2571429Y37045181D02*
X-2571429Y38045181D01*
X-1952381Y37426134D02*
X-1190476Y37426134D01*
X-7833334Y29545181D02*
X-7833334Y28830896D01*
X-7833334Y28830896D02*
X-7880953Y28688039D01*
X-7880953Y28688039D02*
X-7976191Y28592800D01*
X-7976191Y28592800D02*
X-8119048Y28545181D01*
X-8119048Y28545181D02*
X-8214286Y28545181D01*
X-6880953Y29545181D02*
X-7357143Y29545181D01*
X-7357143Y29545181D02*
X-7404762Y29068991D01*
X-7404762Y29068991D02*
X-7357143Y29116610D01*
X-7357143Y29116610D02*
X-7261905Y29164229D01*
X-7261905Y29164229D02*
X-7023810Y29164229D01*
X-7023810Y29164229D02*
X-6928572Y29116610D01*
X-6928572Y29116610D02*
X-6880953Y29068991D01*
X-6880953Y29068991D02*
X-6833334Y28973753D01*
X-6833334Y28973753D02*
X-6833334Y28735658D01*
X-6833334Y28735658D02*
X-6880953Y28640420D01*
X-6880953Y28640420D02*
X-6928572Y28592800D01*
X-6928572Y28592800D02*
X-7023810Y28545181D01*
X-7023810Y28545181D02*
X-7261905Y28545181D01*
X-7261905Y28545181D02*
X-7357143Y28592800D01*
X-7357143Y28592800D02*
X-7404762Y28640420D01*
X-5119048Y29545181D02*
X-4928572Y29545181D01*
X-4928572Y29545181D02*
X-4833334Y29497562D01*
X-4833334Y29497562D02*
X-4738096Y29402324D01*
X-4738096Y29402324D02*
X-4690477Y29211848D01*
X-4690477Y29211848D02*
X-4690477Y28878515D01*
X-4690477Y28878515D02*
X-4738096Y28688039D01*
X-4738096Y28688039D02*
X-4833334Y28592800D01*
X-4833334Y28592800D02*
X-4928572Y28545181D01*
X-4928572Y28545181D02*
X-5119048Y28545181D01*
X-5119048Y28545181D02*
X-5214286Y28592800D01*
X-5214286Y28592800D02*
X-5309524Y28688039D01*
X-5309524Y28688039D02*
X-5357143Y28878515D01*
X-5357143Y28878515D02*
X-5357143Y29211848D01*
X-5357143Y29211848D02*
X-5309524Y29402324D01*
X-5309524Y29402324D02*
X-5214286Y29497562D01*
X-5214286Y29497562D02*
X-5119048Y29545181D01*
X-4261905Y29545181D02*
X-4261905Y28735658D01*
X-4261905Y28735658D02*
X-4214286Y28640420D01*
X-4214286Y28640420D02*
X-4166667Y28592800D01*
X-4166667Y28592800D02*
X-4071429Y28545181D01*
X-4071429Y28545181D02*
X-3880953Y28545181D01*
X-3880953Y28545181D02*
X-3785715Y28592800D01*
X-3785715Y28592800D02*
X-3738096Y28640420D01*
X-3738096Y28640420D02*
X-3690477Y28735658D01*
X-3690477Y28735658D02*
X-3690477Y29545181D01*
X-3357143Y29545181D02*
X-2785715Y29545181D01*
X-3071429Y28545181D02*
X-3071429Y29545181D01*
X-2452381Y28926134D02*
X-1690476Y28926134D01*
X-2071429Y28545181D02*
X-2071429Y29307086D01*
X-47333334Y14545181D02*
X-47333334Y13830896D01*
X-47333334Y13830896D02*
X-47380953Y13688039D01*
X-47380953Y13688039D02*
X-47476191Y13592800D01*
X-47476191Y13592800D02*
X-47619048Y13545181D01*
X-47619048Y13545181D02*
X-47714286Y13545181D01*
X-46952381Y14545181D02*
X-46285715Y14545181D01*
X-46285715Y14545181D02*
X-46714286Y13545181D01*
X-34738096Y36138991D02*
X-35071429Y36138991D01*
X-35071429Y35615181D02*
X-35071429Y36615181D01*
X-35071429Y36615181D02*
X-34595239Y36615181D01*
X-33738096Y35615181D02*
X-34214286Y35615181D01*
X-34214286Y35615181D02*
X-34214286Y36615181D01*
X-32880953Y35615181D02*
X-33452381Y35615181D01*
X-33166667Y35615181D02*
X-33166667Y36615181D01*
X-33166667Y36615181D02*
X-33261905Y36472324D01*
X-33261905Y36472324D02*
X-33357143Y36377086D01*
X-33357143Y36377086D02*
X-33452381Y36329467D01*
X-7666667Y20640420D02*
X-7714286Y20592800D01*
X-7714286Y20592800D02*
X-7857143Y20545181D01*
X-7857143Y20545181D02*
X-7952381Y20545181D01*
X-7952381Y20545181D02*
X-8095238Y20592800D01*
X-8095238Y20592800D02*
X-8190476Y20688039D01*
X-8190476Y20688039D02*
X-8238095Y20783277D01*
X-8238095Y20783277D02*
X-8285714Y20973753D01*
X-8285714Y20973753D02*
X-8285714Y21116610D01*
X-8285714Y21116610D02*
X-8238095Y21307086D01*
X-8238095Y21307086D02*
X-8190476Y21402324D01*
X-8190476Y21402324D02*
X-8095238Y21497562D01*
X-8095238Y21497562D02*
X-7952381Y21545181D01*
X-7952381Y21545181D02*
X-7857143Y21545181D01*
X-7857143Y21545181D02*
X-7714286Y21497562D01*
X-7714286Y21497562D02*
X-7666667Y21449943D01*
X-6761905Y21545181D02*
X-7238095Y21545181D01*
X-7238095Y21545181D02*
X-7285714Y21068991D01*
X-7285714Y21068991D02*
X-7238095Y21116610D01*
X-7238095Y21116610D02*
X-7142857Y21164229D01*
X-7142857Y21164229D02*
X-6904762Y21164229D01*
X-6904762Y21164229D02*
X-6809524Y21116610D01*
X-6809524Y21116610D02*
X-6761905Y21068991D01*
X-6761905Y21068991D02*
X-6714286Y20973753D01*
X-6714286Y20973753D02*
X-6714286Y20735658D01*
X-6714286Y20735658D02*
X-6761905Y20640420D01*
X-6761905Y20640420D02*
X-6809524Y20592800D01*
X-6809524Y20592800D02*
X-6904762Y20545181D01*
X-6904762Y20545181D02*
X-7142857Y20545181D01*
X-7142857Y20545181D02*
X-7238095Y20592800D01*
X-7238095Y20592800D02*
X-7285714Y20640420D01*
X-19666667Y20640420D02*
X-19714286Y20592800D01*
X-19714286Y20592800D02*
X-19857143Y20545181D01*
X-19857143Y20545181D02*
X-19952381Y20545181D01*
X-19952381Y20545181D02*
X-20095238Y20592800D01*
X-20095238Y20592800D02*
X-20190476Y20688039D01*
X-20190476Y20688039D02*
X-20238095Y20783277D01*
X-20238095Y20783277D02*
X-20285714Y20973753D01*
X-20285714Y20973753D02*
X-20285714Y21116610D01*
X-20285714Y21116610D02*
X-20238095Y21307086D01*
X-20238095Y21307086D02*
X-20190476Y21402324D01*
X-20190476Y21402324D02*
X-20095238Y21497562D01*
X-20095238Y21497562D02*
X-19952381Y21545181D01*
X-19952381Y21545181D02*
X-19857143Y21545181D01*
X-19857143Y21545181D02*
X-19714286Y21497562D01*
X-19714286Y21497562D02*
X-19666667Y21449943D01*
X-18809524Y21211848D02*
X-18809524Y20545181D01*
X-19047619Y21592800D02*
X-19285714Y20878515D01*
X-19285714Y20878515D02*
X-18666667Y20878515D01*
X-30166667Y24640420D02*
X-30214286Y24592800D01*
X-30214286Y24592800D02*
X-30357143Y24545181D01*
X-30357143Y24545181D02*
X-30452381Y24545181D01*
X-30452381Y24545181D02*
X-30595238Y24592800D01*
X-30595238Y24592800D02*
X-30690476Y24688039D01*
X-30690476Y24688039D02*
X-30738095Y24783277D01*
X-30738095Y24783277D02*
X-30785714Y24973753D01*
X-30785714Y24973753D02*
X-30785714Y25116610D01*
X-30785714Y25116610D02*
X-30738095Y25307086D01*
X-30738095Y25307086D02*
X-30690476Y25402324D01*
X-30690476Y25402324D02*
X-30595238Y25497562D01*
X-30595238Y25497562D02*
X-30452381Y25545181D01*
X-30452381Y25545181D02*
X-30357143Y25545181D01*
X-30357143Y25545181D02*
X-30214286Y25497562D01*
X-30214286Y25497562D02*
X-30166667Y25449943D01*
X-29833333Y25545181D02*
X-29214286Y25545181D01*
X-29214286Y25545181D02*
X-29547619Y25164229D01*
X-29547619Y25164229D02*
X-29404762Y25164229D01*
X-29404762Y25164229D02*
X-29309524Y25116610D01*
X-29309524Y25116610D02*
X-29261905Y25068991D01*
X-29261905Y25068991D02*
X-29214286Y24973753D01*
X-29214286Y24973753D02*
X-29214286Y24735658D01*
X-29214286Y24735658D02*
X-29261905Y24640420D01*
X-29261905Y24640420D02*
X-29309524Y24592800D01*
X-29309524Y24592800D02*
X-29404762Y24545181D01*
X-29404762Y24545181D02*
X-29690476Y24545181D01*
X-29690476Y24545181D02*
X-29785714Y24592800D01*
X-29785714Y24592800D02*
X-29833333Y24640420D01*
X-30166667Y39140420D02*
X-30214286Y39092800D01*
X-30214286Y39092800D02*
X-30357143Y39045181D01*
X-30357143Y39045181D02*
X-30452381Y39045181D01*
X-30452381Y39045181D02*
X-30595238Y39092800D01*
X-30595238Y39092800D02*
X-30690476Y39188039D01*
X-30690476Y39188039D02*
X-30738095Y39283277D01*
X-30738095Y39283277D02*
X-30785714Y39473753D01*
X-30785714Y39473753D02*
X-30785714Y39616610D01*
X-30785714Y39616610D02*
X-30738095Y39807086D01*
X-30738095Y39807086D02*
X-30690476Y39902324D01*
X-30690476Y39902324D02*
X-30595238Y39997562D01*
X-30595238Y39997562D02*
X-30452381Y40045181D01*
X-30452381Y40045181D02*
X-30357143Y40045181D01*
X-30357143Y40045181D02*
X-30214286Y39997562D01*
X-30214286Y39997562D02*
X-30166667Y39949943D01*
X-29785714Y39949943D02*
X-29738095Y39997562D01*
X-29738095Y39997562D02*
X-29642857Y40045181D01*
X-29642857Y40045181D02*
X-29404762Y40045181D01*
X-29404762Y40045181D02*
X-29309524Y39997562D01*
X-29309524Y39997562D02*
X-29261905Y39949943D01*
X-29261905Y39949943D02*
X-29214286Y39854705D01*
X-29214286Y39854705D02*
X-29214286Y39759467D01*
X-29214286Y39759467D02*
X-29261905Y39616610D01*
X-29261905Y39616610D02*
X-29833333Y39045181D01*
X-29833333Y39045181D02*
X-29214286Y39045181D01*
X-39166667Y35140420D02*
X-39214286Y35092800D01*
X-39214286Y35092800D02*
X-39357143Y35045181D01*
X-39357143Y35045181D02*
X-39452381Y35045181D01*
X-39452381Y35045181D02*
X-39595238Y35092800D01*
X-39595238Y35092800D02*
X-39690476Y35188039D01*
X-39690476Y35188039D02*
X-39738095Y35283277D01*
X-39738095Y35283277D02*
X-39785714Y35473753D01*
X-39785714Y35473753D02*
X-39785714Y35616610D01*
X-39785714Y35616610D02*
X-39738095Y35807086D01*
X-39738095Y35807086D02*
X-39690476Y35902324D01*
X-39690476Y35902324D02*
X-39595238Y35997562D01*
X-39595238Y35997562D02*
X-39452381Y36045181D01*
X-39452381Y36045181D02*
X-39357143Y36045181D01*
X-39357143Y36045181D02*
X-39214286Y35997562D01*
X-39214286Y35997562D02*
X-39166667Y35949943D01*
X-38214286Y35045181D02*
X-38785714Y35045181D01*
X-38500000Y35045181D02*
X-38500000Y36045181D01*
X-38500000Y36045181D02*
X-38595238Y35902324D01*
X-38595238Y35902324D02*
X-38690476Y35807086D01*
X-38690476Y35807086D02*
X-38785714Y35759467D01*
D11*
%TO.C,T1*%
X-33400000Y20900000D02*
X-26600000Y20900000D01*
X-33400000Y13100000D02*
X-33400000Y20900000D01*
X-26600000Y20900000D02*
X-26600000Y13100000D01*
X-26600000Y13100000D02*
X-33400000Y13100000D01*
D10*
X-32039445Y19500000D02*
G75*
G03*
X-32039445Y19500000I-360555J0D01*
G01*
D11*
%TO.C,SW1*%
X-15390000Y4490000D02*
X-15390000Y8310000D01*
X-15390000Y8310000D02*
X-16740000Y8310000D01*
X-16740000Y4490000D02*
X-15390000Y4490000D01*
X-19240000Y4490000D02*
X-18260000Y4490000D01*
X-19240000Y8310000D02*
X-18260000Y8310000D01*
X-21740000Y4490000D02*
X-20760000Y4490000D01*
X-21740000Y8310000D02*
X-20760000Y8310000D01*
X-24610000Y4490000D02*
X-23260000Y4490000D01*
X-24610000Y4490000D02*
X-24610000Y8310000D01*
X-24610000Y8310000D02*
X-23260000Y8310000D01*
%TO.C,R8*%
X-36662742Y11022500D02*
X-37137258Y11022500D01*
X-36662742Y9977500D02*
X-37137258Y9977500D01*
%TO.C,R7*%
X-36662742Y9522500D02*
X-37137258Y9522500D01*
X-36662742Y8477500D02*
X-37137258Y8477500D01*
%TO.C,R5*%
X-20477500Y11562742D02*
X-20477500Y12037258D01*
X-21522500Y11562742D02*
X-21522500Y12037258D01*
%TO.C,R4*%
X-9977500Y17737258D02*
X-9977500Y17262742D01*
X-11022500Y17737258D02*
X-11022500Y17262742D01*
%TO.C,R3*%
X-11477500Y17737258D02*
X-11477500Y17262742D01*
X-12522500Y17737258D02*
X-12522500Y17262742D01*
%TO.C,R2*%
X-15022500Y17737258D02*
X-15022500Y17262742D01*
X-13977500Y17737258D02*
X-13977500Y17262742D01*
%TO.C,R1*%
X-16522500Y17737258D02*
X-16522500Y17262742D01*
X-15477500Y17737258D02*
X-15477500Y17262742D01*
%TO.C,L4*%
X-12250000Y41100000D02*
X-14750000Y41100000D01*
X-14750000Y32700000D02*
X-12250000Y32700000D01*
%TO.C,L3*%
X-12250000Y31600000D02*
X-14750000Y31600000D01*
X-14750000Y23200000D02*
X-12250000Y23200000D01*
%TO.C,D6*%
X-41500000Y7140000D02*
X-41500000Y11150000D01*
X-43500000Y7140000D02*
X-43500000Y11150000D01*
X-43500000Y7140000D02*
X-41500000Y7140000D01*
%TO.C,D5*%
X-41100000Y11860000D02*
X-41100000Y7850000D01*
X-39100000Y11860000D02*
X-39100000Y7850000D01*
X-39100000Y11860000D02*
X-41100000Y11860000D01*
%TO.C,D4*%
X-8500000Y10990000D02*
X-8500000Y15000000D01*
X-10500000Y10990000D02*
X-10500000Y15000000D01*
X-10500000Y10990000D02*
X-8500000Y10990000D01*
%TO.C,D3*%
X-11000000Y15710000D02*
X-13000000Y15710000D01*
X-11000000Y15710000D02*
X-11000000Y11700000D01*
X-13000000Y15710000D02*
X-13000000Y11700000D01*
%TO.C,D2*%
X-13500000Y10990000D02*
X-13500000Y15000000D01*
X-15500000Y10990000D02*
X-15500000Y15000000D01*
X-15500000Y10990000D02*
X-13500000Y10990000D01*
%TO.C,D1*%
X-18000000Y15710000D02*
X-18000000Y11700000D01*
X-16000000Y15710000D02*
X-16000000Y11700000D01*
X-16000000Y15710000D02*
X-18000000Y15710000D01*
%TO.C,R6*%
X-18777500Y12037258D02*
X-18777500Y11562742D01*
X-19822500Y12037258D02*
X-19822500Y11562742D01*
%TO.C,L2*%
X-21550000Y41100000D02*
X-24050000Y41100000D01*
X-24050000Y32700000D02*
X-21550000Y32700000D01*
%TO.C,L1*%
X-21550000Y31600000D02*
X-24050000Y31600000D01*
X-24050000Y23200000D02*
X-21550000Y23200000D01*
%TO.C,J7*%
X-43427500Y7750000D02*
X-43927500Y7500000D01*
X-43427500Y7250000D02*
X-43427500Y7750000D01*
X-43927500Y7500000D02*
X-43427500Y7250000D01*
%TO.C,FL1*%
X-35910000Y35310000D02*
X-28690000Y35310000D01*
X-35910000Y34710000D02*
X-36800000Y34710000D01*
X-35910000Y34710000D02*
X-35910000Y35310000D01*
X-35910000Y31710000D02*
X-35910000Y32690000D01*
X-35910000Y29090000D02*
X-35910000Y29690000D01*
X-35910000Y29090000D02*
X-28690000Y29090000D01*
X-28690000Y34710000D02*
X-28690000Y35310000D01*
X-28690000Y31710000D02*
X-28690000Y32690000D01*
X-28690000Y29090000D02*
X-28690000Y29690000D01*
%TO.C,C5*%
X-10088748Y19640000D02*
X-11511252Y19640000D01*
X-10088748Y22360000D02*
X-11511252Y22360000D01*
%TO.C,C4*%
X-15288748Y22360000D02*
X-16711252Y22360000D01*
X-15288748Y19640000D02*
X-16711252Y19640000D01*
%TO.C,C3*%
X-29288748Y25840000D02*
X-30711252Y25840000D01*
X-29288748Y28560000D02*
X-30711252Y28560000D01*
%TO.C,C2*%
X-29288748Y38560000D02*
X-30711252Y38560000D01*
X-29288748Y35840000D02*
X-30711252Y35840000D01*
%TO.C,C1*%
X-40660000Y31488748D02*
X-40660000Y32911252D01*
X-37940000Y31488748D02*
X-37940000Y32911252D01*
%TD*%
M02*
