%TF.GenerationSoftware,KiCad,Pcbnew,7.0.8-7.0.8~ubuntu22.04.1*%
%TF.CreationDate,2023-10-31T14:27:33+02:00*%
%TF.ProjectId,lisn,6c69736e-2e6b-4696-9361-645f70636258,rev?*%
%TF.SameCoordinates,PXa6e49c0PY6dac2c0*%
%TF.FileFunction,Copper,L1,Top*%
%TF.FilePolarity,Positive*%
%FSLAX46Y46*%
G04 Gerber Fmt 4.6, Leading zero omitted, Abs format (unit mm)*
G04 Created by KiCad (PCBNEW 7.0.8-7.0.8~ubuntu22.04.1) date 2023-10-31 14:27:33*
%MOMM*%
%LPD*%
G01*
G04 APERTURE LIST*
G04 Aperture macros list*
%AMRoundRect*
0 Rectangle with rounded corners*
0 $1 Rounding radius*
0 $2 $3 $4 $5 $6 $7 $8 $9 X,Y pos of 4 corners*
0 Add a 4 corners polygon primitive as box body*
4,1,4,$2,$3,$4,$5,$6,$7,$8,$9,$2,$3,0*
0 Add four circle primitives for the rounded corners*
1,1,$1+$1,$2,$3*
1,1,$1+$1,$4,$5*
1,1,$1+$1,$6,$7*
1,1,$1+$1,$8,$9*
0 Add four rect primitives between the rounded corners*
20,1,$1+$1,$2,$3,$4,$5,0*
20,1,$1+$1,$4,$5,$6,$7,0*
20,1,$1+$1,$6,$7,$8,$9,0*
20,1,$1+$1,$8,$9,$2,$3,0*%
G04 Aperture macros list end*
%TA.AperFunction,SMDPad,CuDef*%
%ADD10R,2.600000X8.200000*%
%TD*%
%TA.AperFunction,SMDPad,CuDef*%
%ADD11RoundRect,0.200000X-1.300000X-0.200000X1.300000X-0.200000X1.300000X0.200000X-1.300000X0.200000X0*%
%TD*%
%TA.AperFunction,SMDPad,CuDef*%
%ADD12RoundRect,0.200000X0.275000X-0.200000X0.275000X0.200000X-0.275000X0.200000X-0.275000X-0.200000X0*%
%TD*%
%TA.AperFunction,SMDPad,CuDef*%
%ADD13RoundRect,0.200000X0.200000X0.275000X-0.200000X0.275000X-0.200000X-0.275000X0.200000X-0.275000X0*%
%TD*%
%TA.AperFunction,ComponentPad*%
%ADD14C,7.400000*%
%TD*%
%TA.AperFunction,SMDPad,CuDef*%
%ADD15RoundRect,0.250000X0.325000X1.100000X-0.325000X1.100000X-0.325000X-1.100000X0.325000X-1.100000X0*%
%TD*%
%TA.AperFunction,SMDPad,CuDef*%
%ADD16RoundRect,0.250000X-1.000000X-0.500000X1.000000X-0.500000X1.000000X0.500000X-1.000000X0.500000X0*%
%TD*%
%TA.AperFunction,SMDPad,CuDef*%
%ADD17RoundRect,0.250000X-1.100000X0.325000X-1.100000X-0.325000X1.100000X-0.325000X1.100000X0.325000X0*%
%TD*%
%TA.AperFunction,SMDPad,CuDef*%
%ADD18RoundRect,0.250000X1.100000X-0.325000X1.100000X0.325000X-1.100000X0.325000X-1.100000X-0.325000X0*%
%TD*%
%TA.AperFunction,SMDPad,CuDef*%
%ADD19RoundRect,0.225000X0.375000X-0.225000X0.375000X0.225000X-0.375000X0.225000X-0.375000X-0.225000X0*%
%TD*%
%TA.AperFunction,SMDPad,CuDef*%
%ADD20RoundRect,0.225000X-0.375000X0.225000X-0.375000X-0.225000X0.375000X-0.225000X0.375000X0.225000X0*%
%TD*%
%TA.AperFunction,SMDPad,CuDef*%
%ADD21R,1.000000X2.000000*%
%TD*%
%TA.AperFunction,SMDPad,CuDef*%
%ADD22RoundRect,0.200000X-0.275000X0.200000X-0.275000X-0.200000X0.275000X-0.200000X0.275000X0.200000X0*%
%TD*%
%TA.AperFunction,SMDPad,CuDef*%
%ADD23RoundRect,0.200000X-0.200000X-0.275000X0.200000X-0.275000X0.200000X0.275000X-0.200000X0.275000X0*%
%TD*%
%TA.AperFunction,ComponentPad*%
%ADD24C,6.400000*%
%TD*%
%TA.AperFunction,SMDPad,CuDef*%
%ADD25RoundRect,0.250000X-3.750000X-2.250000X3.750000X-2.250000X3.750000X2.250000X-3.750000X2.250000X0*%
%TD*%
%TA.AperFunction,SMDPad,CuDef*%
%ADD26R,5.080000X1.500000*%
%TD*%
%TA.AperFunction,Conductor*%
%ADD27C,0.600000*%
%TD*%
G04 APERTURE END LIST*
D10*
%TO.P,L2,1,1*%
%TO.N,/INF_M*%
X-25600000Y36900000D03*
%TO.P,L2,2,2*%
%TO.N,Net-(L2-Pad2)*%
X-20000000Y36900000D03*
%TD*%
D11*
%TO.P,T1,1,AA*%
%TO.N,GND*%
X-35600000Y19500000D03*
%TO.P,T1,2,AB*%
%TO.N,/DIFF_MODE*%
X-35600000Y14500000D03*
%TO.P,T1,3,SA*%
%TO.N,Net-(D3-K)*%
X-24400000Y14500000D03*
%TO.P,T1,4,SC*%
%TO.N,/COMMON_MODE*%
X-24400000Y17000000D03*
%TO.P,T1,5,SB*%
%TO.N,Net-(D1-K)*%
X-24400000Y19500000D03*
%TO.P,T1,NC*%
%TO.N,N/C*%
X-35600000Y17000000D03*
%TD*%
D12*
%TO.P,R5,1*%
%TO.N,/COMMON_MODE*%
X-20900000Y10975000D03*
%TO.P,R5,2*%
%TO.N,GND*%
X-20900000Y12625000D03*
%TD*%
D13*
%TO.P,R8,1*%
%TO.N,Net-(D3-K)*%
X-9475000Y15800000D03*
%TO.P,R8,2*%
%TO.N,GND*%
X-11125000Y15800000D03*
%TD*%
D14*
%TO.P,J6,1,Pin_1*%
%TO.N,/OUT_M*%
X-4500000Y42500000D03*
%TD*%
D15*
%TO.P,C3,1*%
%TO.N,/INF_P*%
X-28525000Y27200000D03*
%TO.P,C3,2*%
%TO.N,GND*%
X-31475000Y27200000D03*
%TD*%
D16*
%TO.P,FL1,1,1*%
%TO.N,/IN_M*%
X-35550000Y33700000D03*
%TO.P,FL1,2,2*%
%TO.N,/IN_P*%
X-35550000Y30700000D03*
%TO.P,FL1,3,3*%
%TO.N,/INF_P*%
X-29050000Y30700000D03*
%TO.P,FL1,4,4*%
%TO.N,/INF_M*%
X-29050000Y33700000D03*
%TD*%
D17*
%TO.P,C5,1*%
%TO.N,/OUT_P*%
X-10200000Y20475000D03*
%TO.P,C5,2*%
%TO.N,Net-(C5-Pad2)*%
X-10200000Y17525000D03*
%TD*%
D18*
%TO.P,C1,1*%
%TO.N,/IN_P*%
X-39300000Y30725000D03*
%TO.P,C1,2*%
%TO.N,/IN_M*%
X-39300000Y33675000D03*
%TD*%
D10*
%TO.P,L3,1,1*%
%TO.N,Net-(L1-Pad2)*%
X-16300000Y27400000D03*
%TO.P,L3,2,2*%
%TO.N,/OUT_P*%
X-10700000Y27400000D03*
%TD*%
D19*
%TO.P,D2,1,K*%
%TO.N,GND*%
X-13900000Y10850000D03*
%TO.P,D2,2,A*%
%TO.N,Net-(D1-K)*%
X-13900000Y14150000D03*
%TD*%
D20*
%TO.P,D5,1,K*%
%TO.N,GND*%
X-40100000Y11150000D03*
%TO.P,D5,2,A*%
%TO.N,Net-(D5-A)*%
X-40100000Y7850000D03*
%TD*%
D21*
%TO.P,SW1,1,A*%
%TO.N,/OUTPUT*%
X-17500000Y5000000D03*
%TO.P,SW1,2,B*%
%TO.N,/COMMON_MODE*%
X-20000000Y5000000D03*
%TO.P,SW1,3,C*%
%TO.N,Net-(SW1A-C)*%
X-22500000Y5000000D03*
%TO.P,SW1,4,A*%
X-17500000Y7800000D03*
%TO.P,SW1,5,B*%
%TO.N,/DIFF_MODE*%
X-20000000Y7800000D03*
%TO.P,SW1,6,C*%
%TO.N,/OUTPUT*%
X-22500000Y7800000D03*
%TD*%
D22*
%TO.P,R2,1*%
%TO.N,Net-(C4-Pad2)*%
X-17000000Y17825000D03*
%TO.P,R2,2*%
%TO.N,Net-(D1-K)*%
X-17000000Y16175000D03*
%TD*%
D23*
%TO.P,R9,1*%
%TO.N,Net-(D1-K)*%
X-15225000Y15800000D03*
%TO.P,R9,2*%
%TO.N,GND*%
X-13575000Y15800000D03*
%TD*%
D24*
%TO.P,J3,1,Pin_1*%
%TO.N,GND*%
X-29500000Y44500000D03*
%TD*%
D13*
%TO.P,R10,1*%
%TO.N,/INF_P*%
X-29875000Y24600000D03*
%TO.P,R10,2*%
%TO.N,GND*%
X-31525000Y24600000D03*
%TD*%
D22*
%TO.P,R4,1*%
%TO.N,Net-(C5-Pad2)*%
X-6200000Y17825000D03*
%TO.P,R4,2*%
%TO.N,Net-(D3-K)*%
X-6200000Y16175000D03*
%TD*%
D10*
%TO.P,L1,1,1*%
%TO.N,/INF_P*%
X-25600000Y27400000D03*
%TO.P,L1,2,2*%
%TO.N,Net-(L1-Pad2)*%
X-20000000Y27400000D03*
%TD*%
D20*
%TO.P,D3,1,K*%
%TO.N,Net-(D3-K)*%
X-11500000Y14150000D03*
%TO.P,D3,2,A*%
%TO.N,GND*%
X-11500000Y10850000D03*
%TD*%
D25*
%TO.P,J1,1,Pin_1*%
%TO.N,/IN_P*%
X-37575000Y23500000D03*
%TD*%
D22*
%TO.P,R6,1*%
%TO.N,GND*%
X-19300000Y12625000D03*
%TO.P,R6,2*%
%TO.N,Net-(SW1A-C)*%
X-19300000Y10975000D03*
%TD*%
D15*
%TO.P,C2,1*%
%TO.N,/INF_M*%
X-28525000Y37200000D03*
%TO.P,C2,2*%
%TO.N,GND*%
X-31475000Y37200000D03*
%TD*%
D14*
%TO.P,J5,1,Pin_1*%
%TO.N,/OUT_P*%
X-4500000Y23500000D03*
%TD*%
D10*
%TO.P,L4,1,1*%
%TO.N,Net-(L2-Pad2)*%
X-16300000Y36900000D03*
%TO.P,L4,2,2*%
%TO.N,/OUT_M*%
X-10700000Y36900000D03*
%TD*%
D24*
%TO.P,J4,1,Pin_1*%
%TO.N,GND*%
X-29500000Y4500000D03*
%TD*%
D19*
%TO.P,D4,1,K*%
%TO.N,GND*%
X-9100000Y10850000D03*
%TO.P,D4,2,A*%
%TO.N,Net-(D3-K)*%
X-9100000Y14150000D03*
%TD*%
D22*
%TO.P,R3,1*%
%TO.N,Net-(C5-Pad2)*%
X-7700000Y17825000D03*
%TO.P,R3,2*%
%TO.N,Net-(D3-K)*%
X-7700000Y16175000D03*
%TD*%
D26*
%TO.P,J7,1,In*%
%TO.N,Net-(D5-A)*%
X-47137500Y7500000D03*
%TO.P,J7,2,Ext*%
%TO.N,GND*%
X-47137500Y3250000D03*
X-47137500Y11750000D03*
%TD*%
D20*
%TO.P,D1,1,K*%
%TO.N,Net-(D1-K)*%
X-16300000Y14150000D03*
%TO.P,D1,2,A*%
%TO.N,GND*%
X-16300000Y10850000D03*
%TD*%
D25*
%TO.P,J2,1,Pin_1*%
%TO.N,/IN_M*%
X-37575000Y42500000D03*
%TD*%
D13*
%TO.P,R7,1*%
%TO.N,/OUTPUT*%
X-36375000Y7600000D03*
%TO.P,R7,2*%
%TO.N,Net-(D5-A)*%
X-38025000Y7600000D03*
%TD*%
D19*
%TO.P,D6,1,K*%
%TO.N,Net-(D5-A)*%
X-42500000Y7850000D03*
%TO.P,D6,2,A*%
%TO.N,GND*%
X-42500000Y11150000D03*
%TD*%
D17*
%TO.P,C4,1*%
%TO.N,/OUT_M*%
X-14500000Y20475000D03*
%TO.P,C4,2*%
%TO.N,Net-(C4-Pad2)*%
X-14500000Y17525000D03*
%TD*%
D13*
%TO.P,R11,1*%
%TO.N,/INF_M*%
X-29775000Y39800000D03*
%TO.P,R11,2*%
%TO.N,GND*%
X-31425000Y39800000D03*
%TD*%
D22*
%TO.P,R1,1*%
%TO.N,Net-(C4-Pad2)*%
X-18500000Y17825000D03*
%TO.P,R1,2*%
%TO.N,Net-(D1-K)*%
X-18500000Y16175000D03*
%TD*%
D27*
%TO.N,/IN_P*%
X-39275000Y30700000D02*
X-39300000Y30725000D01*
X-35550000Y29450000D02*
X-37575000Y27425000D01*
X-35550000Y30700000D02*
X-35550000Y29450000D01*
X-35550000Y30700000D02*
X-39275000Y30700000D01*
X-37575000Y27425000D02*
X-37575000Y25000000D01*
%TO.N,/IN_M*%
X-35550000Y42950000D02*
X-35000000Y43500000D01*
X-35550000Y33700000D02*
X-35550000Y42950000D01*
X-39275000Y33700000D02*
X-39300000Y33675000D01*
X-35550000Y33700000D02*
X-39275000Y33700000D01*
%TO.N,GND*%
X-22200000Y16300000D02*
X-22200000Y17800000D01*
X-30200000Y18300000D02*
X-31475000Y19575000D01*
X-27300000Y13400000D02*
X-27300000Y15236396D01*
X-40100000Y17200000D02*
X-40100000Y11150000D01*
X-31475000Y21500000D02*
X-20000000Y21500000D01*
X-31475000Y20825000D02*
X-31475000Y19525000D01*
X-31475000Y42525000D02*
X-29500000Y44500000D01*
X-26736396Y15800000D02*
X-22700000Y15800000D01*
X-19000000Y21500000D02*
X-16500000Y19000000D01*
X-16500000Y19000000D02*
X-12400000Y19000000D01*
X-21075000Y12700000D02*
X-26600000Y12700000D01*
X-7650000Y10850000D02*
X-16300000Y10850000D01*
X-31475000Y27200000D02*
X-31475000Y42525000D01*
X-12400000Y19000000D02*
X-12400000Y15800000D01*
X-31475000Y19575000D02*
X-31475000Y20825000D01*
X-31475000Y19525000D02*
X-31500000Y19500000D01*
X-12800000Y15800000D02*
X-11125000Y15800000D01*
X-19025000Y12625000D02*
X-21000000Y12625000D01*
X-44250000Y11750000D02*
X-47137500Y11750000D01*
X-22200000Y17800000D02*
X-22700000Y18300000D01*
X-22700000Y15800000D02*
X-22200000Y16300000D01*
X-20000000Y21500000D02*
X-19000000Y21500000D01*
X-12400000Y19000000D02*
X-4000000Y19000000D01*
X-4000000Y19000000D02*
X-3600000Y18600000D01*
X-31475000Y27200000D02*
X-31475000Y21500000D01*
X-37800000Y19500000D02*
X-40100000Y17200000D01*
X-26600000Y12700000D02*
X-27300000Y13400000D01*
X-43650000Y11150000D02*
X-44250000Y11750000D01*
X-22700000Y18300000D02*
X-30200000Y18300000D01*
X-17250000Y10850000D02*
X-19025000Y12625000D01*
X-3600000Y14900000D02*
X-7650000Y10850000D01*
X-31500000Y19500000D02*
X-37800000Y19500000D01*
X-12400000Y15800000D02*
X-12800000Y15800000D01*
X-27300000Y15236396D02*
X-26736396Y15800000D01*
X-40100000Y11150000D02*
X-43650000Y11150000D01*
X-16300000Y10850000D02*
X-17250000Y10850000D01*
X-12800000Y15800000D02*
X-13575000Y15800000D01*
X-31475000Y21500000D02*
X-31475000Y20825000D01*
X-3600000Y18600000D02*
X-3600000Y14900000D01*
X-21000000Y12625000D02*
X-21075000Y12700000D01*
X-20900000Y12725000D02*
X-21000000Y12625000D01*
%TO.N,/OUT_M*%
X-13500000Y20500000D02*
X-13525000Y20475000D01*
X-13500000Y32500000D02*
X-13500000Y20500000D01*
X-10200000Y33200000D02*
X-10300000Y33100000D01*
X-12900000Y33100000D02*
X-13500000Y32500000D01*
X-10300000Y33100000D02*
X-12900000Y33100000D01*
X-13525000Y20475000D02*
X-14500000Y20475000D01*
X-10700000Y35900000D02*
X-10700000Y36900000D01*
%TO.N,/OUTPUT*%
X-21300000Y6400000D02*
X-22500000Y7600000D01*
X-22500000Y7600000D02*
X-22500000Y7800000D01*
X-17500000Y4400000D02*
X-18600000Y3300000D01*
X-22500000Y8000000D02*
X-23500000Y9000000D01*
X-23500000Y9000000D02*
X-34975000Y9000000D01*
X-20789950Y3300000D02*
X-21300000Y3810050D01*
X-22500000Y7800000D02*
X-22500000Y8000000D01*
X-17500000Y5000000D02*
X-17500000Y4400000D01*
X-34975000Y9000000D02*
X-36375000Y7600000D01*
X-21300000Y3810050D02*
X-21300000Y6400000D01*
X-18600000Y3300000D02*
X-20789950Y3300000D01*
%TO.N,/COMMON_MODE*%
X-27800000Y11500000D02*
X-21525000Y11500000D01*
X-18700000Y6400000D02*
X-18700000Y9300000D01*
X-24200000Y17000000D02*
X-28000000Y17000000D01*
X-28500000Y12200000D02*
X-27800000Y11500000D01*
X-21000000Y10700000D02*
X-21000000Y10975000D01*
X-20000000Y5100000D02*
X-18700000Y6400000D01*
X-19100000Y9700000D02*
X-20000000Y9700000D01*
X-20000000Y9700000D02*
X-21000000Y10700000D01*
X-21525000Y11500000D02*
X-21000000Y10975000D01*
X-28000000Y17000000D02*
X-28500000Y16500000D01*
X-28500000Y16500000D02*
X-28500000Y12200000D01*
X-18700000Y9300000D02*
X-19100000Y9700000D01*
X-20000000Y5000000D02*
X-20000000Y5100000D01*
%TO.N,Net-(SW1A-C)*%
X-15700000Y3000000D02*
X-15700000Y9200000D01*
X-16400000Y2300000D02*
X-15700000Y3000000D01*
X-18889214Y10975000D02*
X-17500000Y9585786D01*
X-17400000Y9600000D02*
X-17500000Y9500000D01*
X-17500000Y9585786D02*
X-17500000Y7800000D01*
X-19300000Y10975000D02*
X-18889214Y10975000D01*
X-22500000Y5000000D02*
X-22500000Y2800000D01*
X-22500000Y2800000D02*
X-22000000Y2300000D01*
X-15700000Y9200000D02*
X-16100000Y9600000D01*
X-16100000Y9600000D02*
X-17400000Y9600000D01*
X-22000000Y2300000D02*
X-16400000Y2300000D01*
%TO.N,/DIFF_MODE*%
X-34000000Y14500000D02*
X-35800000Y14500000D01*
X-20000000Y7800000D02*
X-20000000Y8227208D01*
X-22272792Y10500000D02*
X-30000000Y10500000D01*
X-20000000Y8227208D02*
X-22272792Y10500000D01*
X-30000000Y10500000D02*
X-34000000Y14500000D01*
%TO.N,Net-(C4-Pad2)*%
X-18500000Y17825000D02*
X-14800000Y17825000D01*
X-14800000Y17825000D02*
X-14500000Y17525000D01*
%TO.N,Net-(C5-Pad2)*%
X-6200000Y17825000D02*
X-9900000Y17825000D01*
X-9900000Y17825000D02*
X-10200000Y17525000D01*
%TO.N,Net-(D1-K)*%
X-17350000Y15000000D02*
X-18500000Y15000000D01*
X-20800000Y15000000D02*
X-21200000Y15400000D01*
X-17000000Y16175000D02*
X-17000000Y14650000D01*
X-15200000Y14200000D02*
X-16550000Y14200000D01*
X-15225000Y14225000D02*
X-15200000Y14200000D01*
X-13900000Y14150000D02*
X-13950000Y14200000D01*
X-13950000Y14200000D02*
X-15200000Y14200000D01*
X-21200000Y15400000D02*
X-21200000Y18700000D01*
X-15225000Y15800000D02*
X-15225000Y14225000D01*
X-22000000Y19500000D02*
X-24200000Y19500000D01*
X-18500000Y15000000D02*
X-20100000Y15000000D01*
X-20100000Y15000000D02*
X-20800000Y15000000D01*
X-21200000Y18700000D02*
X-22000000Y19500000D01*
X-18500000Y15000000D02*
X-18500000Y16175000D01*
X-17000000Y14650000D02*
X-17350000Y15000000D01*
X-16550000Y14200000D02*
X-17000000Y14650000D01*
%TO.N,Net-(D3-K)*%
X-12650000Y13000000D02*
X-11500000Y14150000D01*
X-6200000Y14700000D02*
X-6200000Y16175000D01*
X-11500000Y14150000D02*
X-9100000Y14150000D01*
X-9475000Y15800000D02*
X-9475000Y14275000D01*
X-17379074Y13000000D02*
X-12650000Y13000000D01*
X-6750000Y14150000D02*
X-6200000Y14700000D01*
X-9100000Y14150000D02*
X-7700000Y14150000D01*
X-24200000Y14500000D02*
X-22000000Y14500000D01*
X-21250000Y13750000D02*
X-18129074Y13750000D01*
X-18129074Y13750000D02*
X-17379074Y13000000D01*
X-7700000Y16175000D02*
X-7700000Y14150000D01*
X-9350000Y14150000D02*
X-9100000Y14150000D01*
X-22000000Y14500000D02*
X-21250000Y13750000D01*
X-9475000Y14275000D02*
X-9350000Y14150000D01*
X-7700000Y14150000D02*
X-6750000Y14150000D01*
%TO.N,Net-(D5-A)*%
X-47137500Y7500000D02*
X-42150000Y7500000D01*
X-38125000Y7500000D02*
X-38025000Y7600000D01*
X-40100000Y7850000D02*
X-40200000Y7950000D01*
X-42500000Y7850000D02*
X-42150000Y7500000D01*
X-39750000Y7500000D02*
X-38125000Y7500000D01*
X-42150000Y7500000D02*
X-39750000Y7500000D01*
X-40100000Y7850000D02*
X-39750000Y7500000D01*
%TD*%
%TA.AperFunction,Conductor*%
%TO.N,/OUT_M*%
G36*
X-1997981Y48999367D02*
G01*
X-1962802Y48997062D01*
X-1916292Y48994014D01*
X-1734541Y48981015D01*
X-1726900Y48979985D01*
X-1633262Y48961359D01*
X-1610580Y48956847D01*
X-1584977Y48951278D01*
X-1466334Y48925469D01*
X-1459617Y48923605D01*
X-1340563Y48883191D01*
X-1243329Y48846924D01*
X-1208259Y48833843D01*
X-1202501Y48831357D01*
X-1087048Y48774422D01*
X-965094Y48707830D01*
X-960366Y48704968D01*
X-903429Y48666924D01*
X-853351Y48633463D01*
X-850642Y48631546D01*
X-741348Y48549729D01*
X-737655Y48546735D01*
X-640498Y48461531D01*
X-637552Y48458772D01*
X-541231Y48362451D01*
X-538474Y48359508D01*
X-453271Y48262352D01*
X-450268Y48258647D01*
X-398436Y48189408D01*
X-368457Y48149361D01*
X-366539Y48146651D01*
X-295038Y48039643D01*
X-292172Y48034909D01*
X-225579Y47912953D01*
X-168645Y47797501D01*
X-166159Y47791743D01*
X-129788Y47694232D01*
X-116799Y47659408D01*
X-76403Y47540404D01*
X-74528Y47533648D01*
X-43154Y47389421D01*
X-20020Y47273120D01*
X-18985Y47265440D01*
X-5983Y47083650D01*
X-633Y47002034D01*
X-500Y46997977D01*
X-500Y32624000D01*
X-20185Y32556961D01*
X-72989Y32511206D01*
X-124500Y32500000D01*
X-12376000Y32500000D01*
X-12443039Y32519685D01*
X-12488794Y32572489D01*
X-12500000Y32624000D01*
X-12500000Y48875500D01*
X-12480315Y48942539D01*
X-12427511Y48988294D01*
X-12376000Y48999500D01*
X-2002036Y48999500D01*
X-1997981Y48999367D01*
G37*
%TD.AperFunction*%
%TD*%
%TA.AperFunction,Conductor*%
%TO.N,/OUT_P*%
G36*
X-57461Y31980315D02*
G01*
X-11706Y31927511D01*
X-500Y31876000D01*
X-500Y19924000D01*
X-20185Y19856961D01*
X-72989Y19811206D01*
X-124500Y19800000D01*
X-3901884Y19800000D01*
X-3908830Y19800390D01*
X-3909806Y19800500D01*
X-3955046Y19800500D01*
X-12351565Y19800500D01*
X-12358501Y19800890D01*
X-12378225Y19803112D01*
X-12389887Y19804426D01*
X-12454300Y19831495D01*
X-12493854Y19889090D01*
X-12500000Y19927646D01*
X-12500000Y31876000D01*
X-12480315Y31943039D01*
X-12427511Y31988794D01*
X-12376000Y32000000D01*
X-124500Y32000000D01*
X-57461Y31980315D01*
G37*
%TD.AperFunction*%
%TD*%
%TA.AperFunction,Conductor*%
%TO.N,/IN_M*%
G36*
X-33556961Y48979815D02*
G01*
X-33511206Y48927011D01*
X-33500000Y48875500D01*
X-33500000Y32624000D01*
X-33519685Y32556961D01*
X-33572489Y32511206D01*
X-33624000Y32500000D01*
X-41875500Y32500000D01*
X-41942539Y32519685D01*
X-41988294Y32572489D01*
X-41999500Y32624000D01*
X-41999500Y46997965D01*
X-41999367Y47002020D01*
X-41997607Y47028897D01*
X-41994011Y47083756D01*
X-41981014Y47265464D01*
X-41979986Y47273097D01*
X-41956847Y47389421D01*
X-41955882Y47393859D01*
X-41925467Y47533677D01*
X-41923608Y47540375D01*
X-41883185Y47659457D01*
X-41833841Y47791749D01*
X-41831367Y47797480D01*
X-41774417Y47912964D01*
X-41707821Y48034924D01*
X-41704981Y48039616D01*
X-41633437Y48146689D01*
X-41631572Y48149324D01*
X-41549709Y48258679D01*
X-41546756Y48262322D01*
X-41461497Y48359541D01*
X-41458802Y48362419D01*
X-41362419Y48458802D01*
X-41359541Y48461497D01*
X-41262322Y48546756D01*
X-41258679Y48549709D01*
X-41149324Y48631572D01*
X-41146689Y48633437D01*
X-41039616Y48704981D01*
X-41034924Y48707821D01*
X-40912964Y48774417D01*
X-40797480Y48831367D01*
X-40791749Y48833841D01*
X-40659457Y48883185D01*
X-40540375Y48923608D01*
X-40533677Y48925467D01*
X-40389421Y48956847D01*
X-40383272Y48958071D01*
X-40273097Y48979986D01*
X-40265464Y48981014D01*
X-40083756Y48994011D01*
X-40030789Y48997483D01*
X-40002019Y48999367D01*
X-39997964Y48999500D01*
X-33624000Y48999500D01*
X-33556961Y48979815D01*
G37*
%TD.AperFunction*%
%TD*%
%TA.AperFunction,Conductor*%
%TO.N,Net-(L1-Pad2)*%
G36*
X-14556961Y31980315D02*
G01*
X-14511206Y31927511D01*
X-14500000Y31876000D01*
X-14500000Y23124000D01*
X-14519685Y23056961D01*
X-14572489Y23011206D01*
X-14624000Y23000000D01*
X-21376000Y23000000D01*
X-21443039Y23019685D01*
X-21488794Y23072489D01*
X-21500000Y23124000D01*
X-21500000Y31876000D01*
X-21480315Y31943039D01*
X-21427511Y31988794D01*
X-21376000Y32000000D01*
X-14624000Y32000000D01*
X-14556961Y31980315D01*
G37*
%TD.AperFunction*%
%TD*%
%TA.AperFunction,Conductor*%
%TO.N,/IN_P*%
G36*
X-33556961Y31980315D02*
G01*
X-33511206Y31927511D01*
X-33500000Y31876000D01*
X-33500000Y20624000D01*
X-33519685Y20556961D01*
X-33572489Y20511206D01*
X-33624000Y20500000D01*
X-41875500Y20500000D01*
X-41942539Y20519685D01*
X-41988294Y20572489D01*
X-41999500Y20624000D01*
X-41999500Y31876000D01*
X-41979815Y31943039D01*
X-41927011Y31988794D01*
X-41875500Y32000000D01*
X-33624000Y32000000D01*
X-33556961Y31980315D01*
G37*
%TD.AperFunction*%
%TD*%
%TA.AperFunction,Conductor*%
%TO.N,/INF_M*%
G36*
X-23556961Y41480315D02*
G01*
X-23511206Y41427511D01*
X-23500000Y41376000D01*
X-23500000Y32624000D01*
X-23519685Y32556961D01*
X-23572489Y32511206D01*
X-23624000Y32500000D01*
X-30376000Y32500000D01*
X-30443039Y32519685D01*
X-30488794Y32572489D01*
X-30500000Y32624000D01*
X-30500000Y35689059D01*
X-30481538Y35754156D01*
X-30465186Y35780666D01*
X-30410001Y35947203D01*
X-30399500Y36049991D01*
X-30399501Y38350008D01*
X-30410001Y38452797D01*
X-30465186Y38619334D01*
X-30481539Y38645847D01*
X-30500000Y38710943D01*
X-30500000Y40775311D01*
X-30480315Y40842350D01*
X-30427511Y40888105D01*
X-30358353Y40898049D01*
X-30343923Y40895090D01*
X-30270433Y40875398D01*
X-29887338Y40814722D01*
X-29521424Y40795545D01*
X-29500001Y40794422D01*
X-29500000Y40794422D01*
X-29499999Y40794422D01*
X-29479699Y40795486D01*
X-29112662Y40814722D01*
X-28729567Y40875398D01*
X-28354913Y40975786D01*
X-27992806Y41114786D01*
X-27647211Y41290875D01*
X-27355992Y41479996D01*
X-27289047Y41499999D01*
X-27288457Y41500000D01*
X-23624000Y41500000D01*
X-23556961Y41480315D01*
G37*
%TD.AperFunction*%
%TD*%
%TA.AperFunction,Conductor*%
%TO.N,/INF_P*%
G36*
X-23556961Y31980315D02*
G01*
X-23511206Y31927511D01*
X-23500000Y31876000D01*
X-23500000Y23124000D01*
X-23519685Y23056961D01*
X-23572489Y23011206D01*
X-23624000Y23000000D01*
X-30376000Y23000000D01*
X-30443039Y23019685D01*
X-30488794Y23072489D01*
X-30500000Y23124000D01*
X-30500000Y25689059D01*
X-30481538Y25754156D01*
X-30465186Y25780666D01*
X-30410001Y25947203D01*
X-30399500Y26049991D01*
X-30399501Y28350008D01*
X-30410001Y28452797D01*
X-30465186Y28619334D01*
X-30481539Y28645847D01*
X-30500000Y28710943D01*
X-30500000Y31876000D01*
X-30480315Y31943039D01*
X-30427511Y31988794D01*
X-30376000Y32000000D01*
X-23624000Y32000000D01*
X-23556961Y31980315D01*
G37*
%TD.AperFunction*%
%TD*%
%TA.AperFunction,Conductor*%
%TO.N,GND*%
G36*
X-13062461Y48979815D02*
G01*
X-13016706Y48927011D01*
X-13005500Y48875500D01*
X-13005500Y33999159D01*
X-13025185Y33932120D01*
X-13077989Y33886365D01*
X-13088549Y33882116D01*
X-13118660Y33871581D01*
X-13125341Y33869656D01*
X-13166061Y33860361D01*
X-13203680Y33842245D01*
X-13210105Y33839584D01*
X-13249517Y33825792D01*
X-13249524Y33825788D01*
X-13284880Y33803573D01*
X-13290967Y33800209D01*
X-13328590Y33782090D01*
X-13361231Y33756059D01*
X-13366904Y33752034D01*
X-13402261Y33729817D01*
X-13402265Y33729814D01*
X-13782819Y33349259D01*
X-13844142Y33315774D01*
X-13913834Y33320758D01*
X-13969767Y33362630D01*
X-13994184Y33428094D01*
X-13994500Y33436940D01*
X-13994500Y41375990D01*
X-13994500Y41376000D01*
X-14006053Y41483456D01*
X-14017259Y41534967D01*
X-14017363Y41535278D01*
X-14051384Y41637498D01*
X-14051387Y41637504D01*
X-14129172Y41758538D01*
X-14129175Y41758543D01*
X-14129180Y41758549D01*
X-14174924Y41811341D01*
X-14174928Y41811344D01*
X-14174930Y41811347D01*
X-14283664Y41905567D01*
X-14283667Y41905569D01*
X-14283669Y41905570D01*
X-14414535Y41965336D01*
X-14414540Y41965338D01*
X-14414541Y41965338D01*
X-14437142Y41971975D01*
X-14481575Y41985022D01*
X-14481581Y41985024D01*
X-14567034Y41997310D01*
X-14624000Y42005500D01*
X-21376000Y42005500D01*
X-21376009Y42005500D01*
X-21376010Y42005499D01*
X-21483451Y41993948D01*
X-21483463Y41993946D01*
X-21534973Y41982740D01*
X-21637498Y41948617D01*
X-21637504Y41948614D01*
X-21758538Y41870829D01*
X-21758549Y41870821D01*
X-21811341Y41825077D01*
X-21905567Y41716336D01*
X-21905570Y41716332D01*
X-21965336Y41585466D01*
X-21985022Y41518425D01*
X-21985024Y41518420D01*
X-21993945Y41456367D01*
X-22005500Y41376000D01*
X-22005500Y32629500D01*
X-22005499Y32629491D01*
X-21993948Y32522050D01*
X-21993946Y32522038D01*
X-21982740Y32470528D01*
X-21948617Y32368003D01*
X-21948614Y32367997D01*
X-21919567Y32322800D01*
X-21899882Y32255760D01*
X-21911088Y32204248D01*
X-21965336Y32085466D01*
X-21985022Y32018425D01*
X-21985024Y32018420D01*
X-22001405Y31904484D01*
X-22005500Y31876000D01*
X-22005500Y23124000D01*
X-22005499Y23123991D01*
X-21993948Y23016550D01*
X-21993946Y23016538D01*
X-21982740Y22965028D01*
X-21948617Y22862503D01*
X-21948614Y22862497D01*
X-21870829Y22741463D01*
X-21870821Y22741452D01*
X-21825077Y22688660D01*
X-21825074Y22688657D01*
X-21825070Y22688653D01*
X-21716336Y22594433D01*
X-21716333Y22594432D01*
X-21716332Y22594431D01*
X-21622075Y22551384D01*
X-21585459Y22534662D01*
X-21540643Y22521503D01*
X-21518425Y22514978D01*
X-21518420Y22514977D01*
X-21518416Y22514976D01*
X-21376000Y22494500D01*
X-21375997Y22494500D01*
X-14624010Y22494500D01*
X-14624000Y22494500D01*
X-14516544Y22506053D01*
X-14465033Y22517259D01*
X-14465024Y22517263D01*
X-14463665Y22517714D01*
X-14463329Y22517727D01*
X-14461827Y22518138D01*
X-14461730Y22517784D01*
X-14393840Y22520212D01*
X-14333750Y22484563D01*
X-14302471Y22422085D01*
X-14300500Y22400062D01*
X-14300500Y21674500D01*
X-14320185Y21607461D01*
X-14372989Y21561706D01*
X-14424500Y21550500D01*
X-15650002Y21550500D01*
X-15650019Y21550499D01*
X-15752797Y21540000D01*
X-15752800Y21539999D01*
X-15919332Y21484815D01*
X-15919337Y21484813D01*
X-16068658Y21392711D01*
X-16192711Y21268658D01*
X-16284813Y21119337D01*
X-16284814Y21119334D01*
X-16339999Y20952797D01*
X-16339999Y20952796D01*
X-16340000Y20952796D01*
X-16350500Y20850017D01*
X-16350500Y20099999D01*
X-16350499Y20099981D01*
X-16340000Y19997204D01*
X-16339999Y19997201D01*
X-16315742Y19924000D01*
X-16284814Y19830666D01*
X-16192712Y19681344D01*
X-16068656Y19557288D01*
X-15919334Y19465186D01*
X-15752797Y19410001D01*
X-15650009Y19399500D01*
X-13349992Y19399501D01*
X-13247203Y19410001D01*
X-13080666Y19465186D01*
X-12986902Y19523020D01*
X-12919513Y19541459D01*
X-12852849Y19520537D01*
X-12830626Y19501514D01*
X-12773502Y19439525D01*
X-12773500Y19439524D01*
X-12773499Y19439523D01*
X-12650150Y19365477D01*
X-12650144Y19365474D01*
X-12650142Y19365473D01*
X-12585729Y19338404D01*
X-12585708Y19338395D01*
X-12446479Y19302104D01*
X-12446474Y19302104D01*
X-12446472Y19302103D01*
X-12408059Y19297775D01*
X-12393948Y19296585D01*
X-12372856Y19295399D01*
X-12358664Y19295000D01*
X-4513050Y19295000D01*
X-4510009Y19294925D01*
X-4500000Y19294434D01*
X-4489991Y19294925D01*
X-4486950Y19295000D01*
X-3926687Y19295000D01*
X-3923232Y19294903D01*
X-3923144Y19294898D01*
X-3908973Y19294500D01*
X-3908972Y19294500D01*
X-124500Y19294500D01*
X-57461Y19274815D01*
X-11706Y19222011D01*
X-500Y19170500D01*
X-500Y2002025D01*
X-633Y1997968D01*
X-5983Y1916352D01*
X-18985Y1734562D01*
X-20020Y1726882D01*
X-43154Y1610580D01*
X-74528Y1466354D01*
X-76403Y1459599D01*
X-110703Y1358552D01*
X-116792Y1340612D01*
X-116805Y1340575D01*
X-166159Y1208259D01*
X-168645Y1202501D01*
X-225579Y1087048D01*
X-292172Y965093D01*
X-295039Y960359D01*
X-366539Y853351D01*
X-368457Y850641D01*
X-450256Y741369D01*
X-453277Y737643D01*
X-538471Y640498D01*
X-541245Y637536D01*
X-637536Y541245D01*
X-640498Y538471D01*
X-737643Y453277D01*
X-741369Y450256D01*
X-850641Y368457D01*
X-853351Y366539D01*
X-960359Y295039D01*
X-965093Y292172D01*
X-1087048Y225579D01*
X-1202501Y168645D01*
X-1208259Y166159D01*
X-1329044Y121107D01*
X-1340582Y116803D01*
X-1459599Y76403D01*
X-1466354Y74528D01*
X-1610580Y43154D01*
X-1726882Y20020D01*
X-1734562Y18985D01*
X-1916352Y5983D01*
X-1967418Y2636D01*
X-1997975Y633D01*
X-2002024Y500D01*
X-47997976Y500D01*
X-48002026Y633D01*
X-48040046Y3125D01*
X-48083650Y5983D01*
X-48265440Y18985D01*
X-48273120Y20020D01*
X-48389421Y43154D01*
X-48533648Y74528D01*
X-48540404Y76403D01*
X-48572119Y87169D01*
X-48659422Y116804D01*
X-48694232Y129788D01*
X-48791743Y166159D01*
X-48797501Y168645D01*
X-48912953Y225579D01*
X-49034909Y292172D01*
X-49039643Y295038D01*
X-49146651Y366539D01*
X-49149361Y368457D01*
X-49189408Y398436D01*
X-49258647Y450268D01*
X-49262352Y453271D01*
X-49359508Y538474D01*
X-49362451Y541231D01*
X-49458772Y637552D01*
X-49461531Y640498D01*
X-49494550Y678149D01*
X-49546735Y737655D01*
X-49549729Y741348D01*
X-49631546Y850642D01*
X-49633463Y853351D01*
X-49704964Y960359D01*
X-49707830Y965094D01*
X-49774422Y1087048D01*
X-49831357Y1202501D01*
X-49833843Y1208259D01*
X-49846924Y1243329D01*
X-49883195Y1340575D01*
X-49923605Y1459617D01*
X-49925469Y1466334D01*
X-49956847Y1610580D01*
X-49968703Y1670183D01*
X-49979985Y1726900D01*
X-49981015Y1734541D01*
X-49992603Y1896563D01*
X-49977751Y1964831D01*
X-49928346Y2014236D01*
X-49860073Y2029088D01*
X-49825585Y2021586D01*
X-49784877Y2006403D01*
X-49784873Y2006402D01*
X-49725345Y2000001D01*
X-49725328Y2000000D01*
X-47437500Y2000000D01*
X-47437500Y2950000D01*
X-46837500Y2950000D01*
X-46837500Y2000000D01*
X-44549672Y2000000D01*
X-44549656Y2000001D01*
X-44490128Y2006402D01*
X-44490121Y2006404D01*
X-44355414Y2056646D01*
X-44355407Y2056650D01*
X-44240313Y2142810D01*
X-44240310Y2142813D01*
X-44154150Y2257907D01*
X-44154146Y2257914D01*
X-44103904Y2392621D01*
X-44103902Y2392628D01*
X-44097501Y2452156D01*
X-44097500Y2452173D01*
X-44097500Y2950000D01*
X-46837500Y2950000D01*
X-47437500Y2950000D01*
X-47437500Y4500000D01*
X-46837500Y4500000D01*
X-46837500Y3550000D01*
X-44097500Y3550000D01*
X-44097500Y4047828D01*
X-44097501Y4047845D01*
X-44103902Y4107373D01*
X-44103904Y4107380D01*
X-44154146Y4242087D01*
X-44154150Y4242094D01*
X-44240310Y4357188D01*
X-44240313Y4357191D01*
X-44355407Y4443351D01*
X-44355414Y4443355D01*
X-44490121Y4493597D01*
X-44490128Y4493599D01*
X-44549656Y4500000D01*
X-46837500Y4500000D01*
X-47437500Y4500000D01*
X-49725345Y4500000D01*
X-49784873Y4493599D01*
X-49784881Y4493597D01*
X-49832167Y4475960D01*
X-49901859Y4470976D01*
X-49963182Y4504461D01*
X-49996666Y4565785D01*
X-49999500Y4592142D01*
X-49999500Y5376000D01*
X-49979815Y5443039D01*
X-49927011Y5488794D01*
X-49875500Y5500000D01*
X-43100000Y5500000D01*
X-43100000Y6575500D01*
X-43080315Y6642539D01*
X-43027511Y6688294D01*
X-42976000Y6699500D01*
X-42240194Y6699500D01*
X-42194954Y6699500D01*
X-39840194Y6699500D01*
X-39794954Y6699500D01*
X-38578913Y6699500D01*
X-38521893Y6683606D01*
X-38521445Y6684600D01*
X-38514911Y6681660D01*
X-38514767Y6681619D01*
X-38514610Y6681524D01*
X-38514609Y6681524D01*
X-38514606Y6681522D01*
X-38352196Y6630914D01*
X-38281616Y6624500D01*
X-38281613Y6624500D01*
X-37768387Y6624500D01*
X-37768384Y6624500D01*
X-37697804Y6630914D01*
X-37535394Y6681522D01*
X-37389815Y6769528D01*
X-37389811Y6769532D01*
X-37287681Y6871661D01*
X-37226358Y6905146D01*
X-37156666Y6900162D01*
X-37112319Y6871661D01*
X-37010189Y6769531D01*
X-37010187Y6769530D01*
X-37010185Y6769528D01*
X-36864606Y6681522D01*
X-36702196Y6630914D01*
X-36631616Y6624500D01*
X-36631613Y6624500D01*
X-36118387Y6624500D01*
X-36118384Y6624500D01*
X-36047804Y6630914D01*
X-35885394Y6681522D01*
X-35739815Y6769528D01*
X-35619528Y6889815D01*
X-35531522Y7035394D01*
X-35480914Y7197804D01*
X-35474500Y7268384D01*
X-35474500Y7317060D01*
X-35454815Y7384099D01*
X-35438181Y7404741D01*
X-34679741Y8163181D01*
X-34618418Y8196666D01*
X-34592060Y8199500D01*
X-23882940Y8199500D01*
X-23815901Y8179815D01*
X-23795259Y8163181D01*
X-23536819Y7904741D01*
X-23503334Y7843418D01*
X-23500500Y7817060D01*
X-23500500Y6752130D01*
X-23500499Y6752124D01*
X-23494092Y6692517D01*
X-23443798Y6557672D01*
X-23443797Y6557670D01*
X-23381394Y6474311D01*
X-23356977Y6408847D01*
X-23371828Y6340574D01*
X-23381394Y6325689D01*
X-23443797Y6242331D01*
X-23443798Y6242329D01*
X-23494092Y6107483D01*
X-23500499Y6047884D01*
X-23500500Y6047865D01*
X-23500500Y3952130D01*
X-23500499Y3952124D01*
X-23494092Y3892517D01*
X-23443798Y3757672D01*
X-23443797Y3757671D01*
X-23443796Y3757669D01*
X-23357546Y3642454D01*
X-23350192Y3636949D01*
X-23308319Y3581017D01*
X-23300500Y3537680D01*
X-23300500Y2709809D01*
X-23300499Y2709800D01*
X-23291209Y2669092D01*
X-23290045Y2662237D01*
X-23285368Y2620741D01*
X-23271580Y2581338D01*
X-23269655Y2574655D01*
X-23260361Y2533939D01*
X-23242241Y2496312D01*
X-23239579Y2489886D01*
X-23225788Y2450475D01*
X-23203578Y2415128D01*
X-23200213Y2409041D01*
X-23182090Y2371411D01*
X-23156060Y2338771D01*
X-23152034Y2333096D01*
X-23129818Y2297741D01*
X-23129816Y2297738D01*
X-22502261Y1670183D01*
X-22502258Y1670181D01*
X-22466911Y1647971D01*
X-22461237Y1643945D01*
X-22429043Y1618272D01*
X-22428586Y1617908D01*
X-22413369Y1610580D01*
X-22390967Y1599791D01*
X-22384878Y1596426D01*
X-22349529Y1574215D01*
X-22349526Y1574214D01*
X-22349522Y1574211D01*
X-22310101Y1560417D01*
X-22303693Y1557762D01*
X-22266061Y1539640D01*
X-22225359Y1530350D01*
X-22218672Y1528424D01*
X-22179258Y1514633D01*
X-22179255Y1514632D01*
X-22137759Y1509957D01*
X-22130907Y1508793D01*
X-22090194Y1499500D01*
X-22090192Y1499500D01*
X-16309806Y1499500D01*
X-16269095Y1508792D01*
X-16262240Y1509957D01*
X-16220745Y1514632D01*
X-16181320Y1528429D01*
X-16174679Y1530342D01*
X-16133939Y1539640D01*
X-16096307Y1557764D01*
X-16089895Y1560420D01*
X-16050478Y1574211D01*
X-16015111Y1596435D01*
X-16009039Y1599791D01*
X-15971413Y1617909D01*
X-15938764Y1643948D01*
X-15933105Y1647963D01*
X-15897738Y1670184D01*
X-15770184Y1797738D01*
X-15102174Y2465748D01*
X-15070184Y2497738D01*
X-15047963Y2533105D01*
X-15043948Y2538764D01*
X-15017909Y2571413D01*
X-14999785Y2609051D01*
X-14996436Y2615109D01*
X-14974211Y2650478D01*
X-14960419Y2689897D01*
X-14957758Y2696319D01*
X-14951262Y2709809D01*
X-14939641Y2733939D01*
X-14930348Y2774658D01*
X-14928426Y2781325D01*
X-14914632Y2820745D01*
X-14909956Y2862253D01*
X-14908796Y2869081D01*
X-14899500Y2909805D01*
X-14899500Y3090194D01*
X-14899500Y9244954D01*
X-14899500Y9290195D01*
X-14908797Y9330924D01*
X-14909956Y9337749D01*
X-14914632Y9379255D01*
X-14928426Y9418676D01*
X-14930348Y9425345D01*
X-14939641Y9466061D01*
X-14957755Y9503674D01*
X-14960417Y9510102D01*
X-14974211Y9549522D01*
X-14996437Y9584894D01*
X-14999787Y9590956D01*
X-15017909Y9628587D01*
X-15043951Y9661243D01*
X-15047962Y9666896D01*
X-15061983Y9689210D01*
X-15070182Y9702260D01*
X-15358628Y9990706D01*
X-15392113Y10052029D01*
X-15387129Y10121721D01*
X-15358620Y10166076D01*
X-15352426Y10172270D01*
X-15263458Y10316508D01*
X-15263453Y10316519D01*
X-15217706Y10454573D01*
X-15177934Y10512018D01*
X-15113418Y10538841D01*
X-15044642Y10526526D01*
X-14993442Y10478983D01*
X-14982294Y10454573D01*
X-14936548Y10316519D01*
X-14936543Y10316508D01*
X-14847576Y10172272D01*
X-14847573Y10172268D01*
X-14727733Y10052428D01*
X-14727729Y10052425D01*
X-14583493Y9963458D01*
X-14583482Y9963453D01*
X-14422607Y9910145D01*
X-14323317Y9900001D01*
X-14200001Y9900001D01*
X-14200000Y9900002D01*
X-14200000Y11800000D01*
X-13600000Y11800000D01*
X-13600000Y9900001D01*
X-13476692Y9900001D01*
X-13476678Y9900002D01*
X-13377393Y9910145D01*
X-13216519Y9963453D01*
X-13216508Y9963458D01*
X-13072272Y10052425D01*
X-13072268Y10052428D01*
X-12952428Y10172268D01*
X-12952425Y10172272D01*
X-12863458Y10316508D01*
X-12863453Y10316519D01*
X-12817706Y10454573D01*
X-12777934Y10512018D01*
X-12713418Y10538841D01*
X-12644642Y10526526D01*
X-12593442Y10478983D01*
X-12582294Y10454573D01*
X-12536548Y10316519D01*
X-12536543Y10316508D01*
X-12447576Y10172272D01*
X-12447573Y10172268D01*
X-12327733Y10052428D01*
X-12327729Y10052425D01*
X-12183493Y9963458D01*
X-12183482Y9963453D01*
X-12022607Y9910145D01*
X-11923317Y9900001D01*
X-11800001Y9900001D01*
X-11800000Y9900002D01*
X-11800000Y11800000D01*
X-11200000Y11800000D01*
X-11200000Y9900001D01*
X-11076692Y9900001D01*
X-11076678Y9900002D01*
X-10977393Y9910145D01*
X-10816519Y9963453D01*
X-10816508Y9963458D01*
X-10672272Y10052425D01*
X-10672268Y10052428D01*
X-10552428Y10172268D01*
X-10552425Y10172272D01*
X-10463458Y10316508D01*
X-10463453Y10316519D01*
X-10417706Y10454573D01*
X-10377934Y10512018D01*
X-10313418Y10538841D01*
X-10244642Y10526526D01*
X-10193442Y10478983D01*
X-10182294Y10454573D01*
X-10136548Y10316519D01*
X-10136543Y10316508D01*
X-10047576Y10172272D01*
X-10047573Y10172268D01*
X-9927733Y10052428D01*
X-9927729Y10052425D01*
X-9783493Y9963458D01*
X-9783482Y9963453D01*
X-9622607Y9910145D01*
X-9523317Y9900001D01*
X-9400001Y9900001D01*
X-9400000Y9900002D01*
X-9400000Y10550000D01*
X-8800000Y10550000D01*
X-8800000Y9900001D01*
X-8676692Y9900001D01*
X-8676678Y9900002D01*
X-8577393Y9910145D01*
X-8416519Y9963453D01*
X-8416508Y9963458D01*
X-8272272Y10052425D01*
X-8272268Y10052428D01*
X-8152428Y10172268D01*
X-8152425Y10172272D01*
X-8063458Y10316508D01*
X-8063452Y10316521D01*
X-8010144Y10477396D01*
X-8002726Y10550000D01*
X-8800000Y10550000D01*
X-9400000Y10550000D01*
X-9400000Y11800000D01*
X-8800000Y11800000D01*
X-8800000Y11150000D01*
X-8002727Y11150000D01*
X-8002727Y11150001D01*
X-8010145Y11222608D01*
X-8063453Y11383482D01*
X-8063458Y11383493D01*
X-8152425Y11527729D01*
X-8152428Y11527733D01*
X-8272268Y11647573D01*
X-8272272Y11647576D01*
X-8416508Y11736543D01*
X-8416519Y11736548D01*
X-8577394Y11789856D01*
X-8676678Y11800000D01*
X-8800000Y11800000D01*
X-9400000Y11800000D01*
X-9523309Y11800000D01*
X-9523324Y11799999D01*
X-9622608Y11789856D01*
X-9783482Y11736548D01*
X-9783493Y11736543D01*
X-9927729Y11647576D01*
X-9927733Y11647573D01*
X-10047573Y11527733D01*
X-10047576Y11527729D01*
X-10136543Y11383493D01*
X-10136548Y11383482D01*
X-10182294Y11245428D01*
X-10222067Y11187983D01*
X-10286583Y11161160D01*
X-10355358Y11173475D01*
X-10406558Y11221018D01*
X-10417706Y11245428D01*
X-10463453Y11383482D01*
X-10463458Y11383493D01*
X-10552425Y11527729D01*
X-10552428Y11527733D01*
X-10672268Y11647573D01*
X-10672272Y11647576D01*
X-10816508Y11736543D01*
X-10816519Y11736548D01*
X-10977394Y11789856D01*
X-11076678Y11800000D01*
X-11200000Y11800000D01*
X-11800000Y11800000D01*
X-11923309Y11800000D01*
X-11923324Y11799999D01*
X-12022608Y11789856D01*
X-12183482Y11736548D01*
X-12183493Y11736543D01*
X-12327729Y11647576D01*
X-12327733Y11647573D01*
X-12447573Y11527733D01*
X-12447576Y11527729D01*
X-12536543Y11383493D01*
X-12536548Y11383482D01*
X-12582294Y11245428D01*
X-12622067Y11187983D01*
X-12686583Y11161160D01*
X-12755358Y11173475D01*
X-12806558Y11221018D01*
X-12817706Y11245428D01*
X-12863453Y11383482D01*
X-12863458Y11383493D01*
X-12952425Y11527729D01*
X-12952428Y11527733D01*
X-13072268Y11647573D01*
X-13072272Y11647576D01*
X-13216508Y11736543D01*
X-13216519Y11736548D01*
X-13377394Y11789856D01*
X-13476678Y11800000D01*
X-13600000Y11800000D01*
X-14200000Y11800000D01*
X-14323309Y11800000D01*
X-14323324Y11799999D01*
X-14422608Y11789856D01*
X-14583482Y11736548D01*
X-14583493Y11736543D01*
X-14727729Y11647576D01*
X-14727733Y11647573D01*
X-14847573Y11527733D01*
X-14847576Y11527729D01*
X-14936543Y11383493D01*
X-14936548Y11383482D01*
X-14982294Y11245428D01*
X-15022067Y11187983D01*
X-15086583Y11161160D01*
X-15155358Y11173475D01*
X-15206558Y11221018D01*
X-15217706Y11245428D01*
X-15263453Y11383482D01*
X-15263458Y11383493D01*
X-15352425Y11527729D01*
X-15352428Y11527733D01*
X-15472268Y11647573D01*
X-15472272Y11647576D01*
X-15616508Y11736543D01*
X-15616519Y11736548D01*
X-15777394Y11789856D01*
X-15876678Y11800000D01*
X-16000000Y11800000D01*
X-16000000Y10674000D01*
X-16019685Y10606961D01*
X-16072489Y10561206D01*
X-16124000Y10550000D01*
X-17280774Y10550000D01*
X-17347813Y10569685D01*
X-17368455Y10586319D01*
X-17932136Y11150000D01*
X-17397274Y11150000D01*
X-16600000Y11150000D01*
X-16600000Y11800000D01*
X-16723309Y11800000D01*
X-16723324Y11799999D01*
X-16822608Y11789856D01*
X-16983482Y11736548D01*
X-16983493Y11736543D01*
X-17127729Y11647576D01*
X-17127733Y11647573D01*
X-17247573Y11527733D01*
X-17247576Y11527729D01*
X-17336543Y11383493D01*
X-17336549Y11383480D01*
X-17389857Y11222605D01*
X-17397274Y11150000D01*
X-17932136Y11150000D01*
X-18386952Y11604816D01*
X-18386955Y11604818D01*
X-18422310Y11627034D01*
X-18427985Y11631060D01*
X-18460625Y11657090D01*
X-18498255Y11675213D01*
X-18504343Y11678578D01*
X-18542878Y11702792D01*
X-18589168Y11755126D01*
X-18599816Y11824180D01*
X-18571441Y11888028D01*
X-18564585Y11895467D01*
X-18469929Y11990122D01*
X-18469928Y11990123D01*
X-18381981Y12135605D01*
X-18331410Y12297894D01*
X-18325001Y12368428D01*
X-18325001Y12514486D01*
X-18305317Y12581526D01*
X-18252513Y12627281D01*
X-18183355Y12637225D01*
X-18119799Y12608200D01*
X-18113320Y12602168D01*
X-18008890Y12497738D01*
X-17881336Y12370184D01*
X-17845985Y12347972D01*
X-17840309Y12343945D01*
X-17807663Y12317910D01*
X-17807662Y12317909D01*
X-17786526Y12307731D01*
X-17770039Y12299792D01*
X-17763962Y12296433D01*
X-17746439Y12285423D01*
X-17728597Y12274211D01*
X-17689183Y12260419D01*
X-17682754Y12257756D01*
X-17645133Y12239639D01*
X-17604433Y12230350D01*
X-17597746Y12228424D01*
X-17558332Y12214633D01*
X-17558329Y12214632D01*
X-17516833Y12209957D01*
X-17509981Y12208793D01*
X-17469268Y12199500D01*
X-17469266Y12199500D01*
X-12559806Y12199500D01*
X-12519095Y12208792D01*
X-12512240Y12209957D01*
X-12470745Y12214632D01*
X-12431320Y12228429D01*
X-12424679Y12230342D01*
X-12383939Y12239640D01*
X-12346307Y12257764D01*
X-12339895Y12260420D01*
X-12300478Y12274211D01*
X-12265111Y12296435D01*
X-12259039Y12299791D01*
X-12221413Y12317909D01*
X-12188764Y12343948D01*
X-12183105Y12347963D01*
X-12147738Y12370184D01*
X-12020184Y12497738D01*
X-11354741Y13163183D01*
X-11293418Y13196667D01*
X-11267060Y13199501D01*
X-11076662Y13199501D01*
X-11076656Y13199501D01*
X-11076648Y13199502D01*
X-11076645Y13199502D01*
X-11022240Y13205060D01*
X-10977292Y13209651D01*
X-10816303Y13262997D01*
X-10705992Y13331039D01*
X-10640895Y13349500D01*
X-9959105Y13349500D01*
X-9894009Y13331039D01*
X-9783697Y13262997D01*
X-9622708Y13209651D01*
X-9523345Y13199500D01*
X-8676656Y13199501D01*
X-8676648Y13199502D01*
X-8676645Y13199502D01*
X-8622240Y13205060D01*
X-8577292Y13209651D01*
X-8416303Y13262997D01*
X-8305992Y13331039D01*
X-8240895Y13349500D01*
X-7748436Y13349500D01*
X-7741498Y13349111D01*
X-7712600Y13345855D01*
X-7700002Y13344435D01*
X-7700000Y13344435D01*
X-7699998Y13344435D01*
X-7687401Y13345855D01*
X-7658503Y13349111D01*
X-7651564Y13349500D01*
X-6659806Y13349500D01*
X-6619095Y13358792D01*
X-6612240Y13359957D01*
X-6570745Y13364632D01*
X-6531320Y13378429D01*
X-6524679Y13380342D01*
X-6483939Y13389640D01*
X-6446307Y13407764D01*
X-6439895Y13410420D01*
X-6400478Y13424211D01*
X-6365111Y13446435D01*
X-6359039Y13449791D01*
X-6321413Y13467909D01*
X-6288764Y13493948D01*
X-6283105Y13497963D01*
X-6247738Y13520184D01*
X-6120184Y13647738D01*
X-5602174Y14165748D01*
X-5570184Y14197738D01*
X-5547963Y14233105D01*
X-5543948Y14238764D01*
X-5517909Y14271413D01*
X-5499785Y14309051D01*
X-5496436Y14315109D01*
X-5474211Y14350478D01*
X-5460419Y14389897D01*
X-5457758Y14396319D01*
X-5449311Y14413860D01*
X-5439641Y14433939D01*
X-5430348Y14474658D01*
X-5428426Y14481325D01*
X-5414632Y14520745D01*
X-5409956Y14562253D01*
X-5408796Y14569081D01*
X-5399500Y14609805D01*
X-5399500Y14790194D01*
X-5399500Y15458769D01*
X-5379815Y15525808D01*
X-5373112Y15535241D01*
X-5369537Y15539807D01*
X-5369528Y15539815D01*
X-5281522Y15685394D01*
X-5230914Y15847804D01*
X-5224500Y15918384D01*
X-5224500Y16431616D01*
X-5230914Y16502196D01*
X-5281522Y16664606D01*
X-5369528Y16810185D01*
X-5369530Y16810187D01*
X-5369531Y16810189D01*
X-5471661Y16912319D01*
X-5505146Y16973642D01*
X-5500162Y17043334D01*
X-5471661Y17087681D01*
X-5369532Y17189811D01*
X-5369531Y17189812D01*
X-5369528Y17189815D01*
X-5281522Y17335394D01*
X-5230914Y17497804D01*
X-5224500Y17568384D01*
X-5224500Y18081616D01*
X-5230914Y18152196D01*
X-5281522Y18314606D01*
X-5369528Y18460185D01*
X-5369530Y18460187D01*
X-5369531Y18460189D01*
X-5489812Y18580470D01*
X-5522122Y18600002D01*
X-5635394Y18668478D01*
X-5797804Y18719086D01*
X-5797806Y18719087D01*
X-5797808Y18719087D01*
X-5847222Y18723577D01*
X-5868384Y18725500D01*
X-6531616Y18725500D01*
X-6550855Y18723752D01*
X-6602193Y18719087D01*
X-6602196Y18719086D01*
X-6728223Y18679815D01*
X-6764609Y18668477D01*
X-6806119Y18643383D01*
X-6870268Y18625500D01*
X-7029732Y18625500D01*
X-7093881Y18643383D01*
X-7135392Y18668477D01*
X-7135393Y18668478D01*
X-7135394Y18668478D01*
X-7297804Y18719086D01*
X-7297806Y18719087D01*
X-7297808Y18719087D01*
X-7347222Y18723577D01*
X-7368384Y18725500D01*
X-8031616Y18725500D01*
X-8050855Y18723752D01*
X-8102193Y18719087D01*
X-8102196Y18719086D01*
X-8228223Y18679815D01*
X-8264609Y18668477D01*
X-8306119Y18643383D01*
X-8370268Y18625500D01*
X-9809806Y18625500D01*
X-9990194Y18625500D01*
X-9996112Y18624150D01*
X-10030911Y18616209D01*
X-10037765Y18615045D01*
X-10079257Y18610368D01*
X-10079258Y18610368D01*
X-10087572Y18607458D01*
X-10128525Y18600500D01*
X-11350002Y18600500D01*
X-11350019Y18600499D01*
X-11452797Y18590000D01*
X-11452800Y18589999D01*
X-11619332Y18534815D01*
X-11619337Y18534813D01*
X-11768658Y18442711D01*
X-11892711Y18318658D01*
X-11984813Y18169337D01*
X-11984814Y18169334D01*
X-12039999Y18002797D01*
X-12039999Y18002796D01*
X-12040000Y18002796D01*
X-12050500Y17900017D01*
X-12050500Y17149999D01*
X-12050499Y17149981D01*
X-12040000Y17047204D01*
X-12039999Y17047201D01*
X-11984815Y16880669D01*
X-11984813Y16880664D01*
X-11977540Y16868873D01*
X-11939268Y16806823D01*
X-11892711Y16731343D01*
X-11863340Y16701972D01*
X-11829855Y16640649D01*
X-11834839Y16570957D01*
X-11863338Y16526612D01*
X-11880077Y16509873D01*
X-11968020Y16364397D01*
X-12018591Y16202107D01*
X-12025000Y16131573D01*
X-12025000Y16100000D01*
X-10949000Y16100000D01*
X-10881961Y16080315D01*
X-10836206Y16027511D01*
X-10825000Y15976000D01*
X-10825000Y15624000D01*
X-10844685Y15556961D01*
X-10897489Y15511206D01*
X-10949000Y15500000D01*
X-12024999Y15500000D01*
X-12024999Y15468418D01*
X-12018592Y15397898D01*
X-12018591Y15397890D01*
X-11968348Y15236655D01*
X-11967196Y15166795D01*
X-12003997Y15107403D01*
X-12047728Y15082059D01*
X-12183697Y15037003D01*
X-12183706Y15036999D01*
X-12328041Y14947971D01*
X-12328045Y14947968D01*
X-12447968Y14828045D01*
X-12447971Y14828041D01*
X-12536999Y14683706D01*
X-12537004Y14683695D01*
X-12582294Y14547018D01*
X-12622067Y14489573D01*
X-12686583Y14462750D01*
X-12755359Y14475065D01*
X-12806558Y14522608D01*
X-12817706Y14547018D01*
X-12846351Y14633463D01*
X-12862997Y14683697D01*
X-12863001Y14683703D01*
X-12863002Y14683706D01*
X-12950145Y14824985D01*
X-12968586Y14892377D01*
X-12947664Y14959040D01*
X-12932288Y14977764D01*
X-12819927Y15090125D01*
X-12731981Y15235605D01*
X-12681410Y15397894D01*
X-12675000Y15468428D01*
X-12675000Y15500000D01*
X-13751000Y15500000D01*
X-13818039Y15519685D01*
X-13863794Y15572489D01*
X-13875000Y15624000D01*
X-13875000Y15976000D01*
X-13855315Y16043039D01*
X-13802511Y16088794D01*
X-13751000Y16100000D01*
X-12675001Y16100000D01*
X-12675001Y16131583D01*
X-12681409Y16202103D01*
X-12681410Y16202108D01*
X-12731982Y16364397D01*
X-12819928Y16509878D01*
X-12836660Y16526610D01*
X-12870145Y16587933D01*
X-12865161Y16657625D01*
X-12836661Y16701972D01*
X-12807288Y16731344D01*
X-12715186Y16880666D01*
X-12660001Y17047203D01*
X-12649500Y17149991D01*
X-12649501Y17900008D01*
X-12660001Y18002797D01*
X-12715186Y18169334D01*
X-12807288Y18318656D01*
X-12931344Y18442712D01*
X-13080666Y18534814D01*
X-13247203Y18589999D01*
X-13247205Y18590000D01*
X-13349984Y18600500D01*
X-13349991Y18600500D01*
X-14571475Y18600500D01*
X-14612430Y18607459D01*
X-14620741Y18610368D01*
X-14662237Y18615045D01*
X-14669092Y18616209D01*
X-14709800Y18625499D01*
X-14709804Y18625500D01*
X-14709806Y18625500D01*
X-14709809Y18625500D01*
X-16329732Y18625500D01*
X-16393881Y18643383D01*
X-16435392Y18668477D01*
X-16435393Y18668478D01*
X-16435394Y18668478D01*
X-16597804Y18719086D01*
X-16597806Y18719087D01*
X-16597808Y18719087D01*
X-16647222Y18723577D01*
X-16668384Y18725500D01*
X-17331616Y18725500D01*
X-17350855Y18723752D01*
X-17402193Y18719087D01*
X-17402196Y18719086D01*
X-17528223Y18679815D01*
X-17564609Y18668477D01*
X-17606119Y18643383D01*
X-17670268Y18625500D01*
X-17829732Y18625500D01*
X-17893881Y18643383D01*
X-17935392Y18668477D01*
X-17935393Y18668478D01*
X-17935394Y18668478D01*
X-18097804Y18719086D01*
X-18097806Y18719087D01*
X-18097808Y18719087D01*
X-18147222Y18723577D01*
X-18168384Y18725500D01*
X-18831616Y18725500D01*
X-18850855Y18723752D01*
X-18902193Y18719087D01*
X-19064607Y18668478D01*
X-19210189Y18580470D01*
X-19330470Y18460189D01*
X-19418478Y18314607D01*
X-19469087Y18152193D01*
X-19475500Y18081614D01*
X-19475500Y17568387D01*
X-19469087Y17497808D01*
X-19469087Y17497806D01*
X-19469086Y17497804D01*
X-19418478Y17335394D01*
X-19370854Y17256614D01*
X-19330470Y17189812D01*
X-19228339Y17087681D01*
X-19194854Y17026358D01*
X-19199838Y16956666D01*
X-19228339Y16912319D01*
X-19330469Y16810190D01*
X-19330470Y16810189D01*
X-19418478Y16664607D01*
X-19469087Y16502193D01*
X-19475500Y16431614D01*
X-19475500Y15924500D01*
X-19495185Y15857461D01*
X-19547989Y15811706D01*
X-19599500Y15800500D01*
X-20275500Y15800500D01*
X-20342539Y15820185D01*
X-20388294Y15872989D01*
X-20399500Y15924500D01*
X-20399500Y18790193D01*
X-20399500Y18790194D01*
X-20408793Y18830907D01*
X-20409958Y18837767D01*
X-20413005Y18864812D01*
X-20414632Y18879255D01*
X-20418790Y18891138D01*
X-20428424Y18918672D01*
X-20430347Y18925345D01*
X-20439640Y18966061D01*
X-20450128Y18987839D01*
X-20457761Y19003690D01*
X-20460424Y19010119D01*
X-20460594Y19010605D01*
X-20474211Y19049522D01*
X-20474213Y19049525D01*
X-20474213Y19049526D01*
X-20479767Y19058363D01*
X-20496431Y19084884D01*
X-20499782Y19090946D01*
X-20517908Y19128587D01*
X-20543952Y19161245D01*
X-20547968Y19166905D01*
X-20564049Y19192499D01*
X-20570183Y19202261D01*
X-21497738Y20129816D01*
X-21497741Y20129818D01*
X-21533096Y20152034D01*
X-21538771Y20156060D01*
X-21571411Y20182090D01*
X-21609041Y20200213D01*
X-21615128Y20203578D01*
X-21650475Y20225788D01*
X-21689886Y20239579D01*
X-21696312Y20242241D01*
X-21733939Y20260361D01*
X-21774655Y20269655D01*
X-21781338Y20271580D01*
X-21820741Y20285368D01*
X-21862237Y20290045D01*
X-21869092Y20291209D01*
X-21909800Y20300499D01*
X-21909804Y20300500D01*
X-21909806Y20300500D01*
X-21909809Y20300500D01*
X-22704732Y20300500D01*
X-22768881Y20318383D01*
X-22810392Y20343477D01*
X-22810393Y20343478D01*
X-22810394Y20343478D01*
X-22972804Y20394086D01*
X-22972806Y20394087D01*
X-22972808Y20394087D01*
X-23022222Y20398577D01*
X-23043384Y20400500D01*
X-25756616Y20400500D01*
X-25775855Y20398752D01*
X-25827193Y20394087D01*
X-25989607Y20343478D01*
X-26135189Y20255470D01*
X-26255470Y20135189D01*
X-26343478Y19989607D01*
X-26394087Y19827193D01*
X-26400500Y19756614D01*
X-26400500Y19243387D01*
X-26394087Y19172808D01*
X-26394087Y19172806D01*
X-26394086Y19172804D01*
X-26343478Y19010394D01*
X-26264203Y18879257D01*
X-26255470Y18864812D01*
X-26135189Y18744531D01*
X-26135187Y18744530D01*
X-26135185Y18744528D01*
X-25989606Y18656522D01*
X-25827196Y18605914D01*
X-25756616Y18599500D01*
X-25756613Y18599500D01*
X-23043387Y18599500D01*
X-23043384Y18599500D01*
X-22972804Y18605914D01*
X-22810394Y18656522D01*
X-22786578Y18670920D01*
X-22768881Y18681617D01*
X-22704732Y18699500D01*
X-22382940Y18699500D01*
X-22315901Y18679815D01*
X-22295259Y18663181D01*
X-22036819Y18404741D01*
X-22003334Y18343418D01*
X-22000500Y18317060D01*
X-22000500Y15424500D01*
X-22020185Y15357461D01*
X-22072989Y15311706D01*
X-22124500Y15300500D01*
X-22704732Y15300500D01*
X-22768881Y15318383D01*
X-22810392Y15343477D01*
X-22810393Y15343478D01*
X-22810394Y15343478D01*
X-22972804Y15394086D01*
X-22972806Y15394087D01*
X-22972808Y15394087D01*
X-23022222Y15398577D01*
X-23043384Y15400500D01*
X-25756616Y15400500D01*
X-25775855Y15398752D01*
X-25827193Y15394087D01*
X-25989607Y15343478D01*
X-26135189Y15255470D01*
X-26255470Y15135189D01*
X-26343478Y14989607D01*
X-26394087Y14827193D01*
X-26400500Y14756614D01*
X-26400500Y14243387D01*
X-26394087Y14172808D01*
X-26394087Y14172806D01*
X-26394086Y14172804D01*
X-26375701Y14113803D01*
X-26343478Y14010394D01*
X-26255470Y13864812D01*
X-26135189Y13744531D01*
X-26135187Y13744530D01*
X-26135185Y13744528D01*
X-25989606Y13656522D01*
X-25827196Y13605914D01*
X-25756616Y13599500D01*
X-25756613Y13599500D01*
X-23043387Y13599500D01*
X-23043384Y13599500D01*
X-22972804Y13605914D01*
X-22810394Y13656522D01*
X-22786578Y13670920D01*
X-22768881Y13681617D01*
X-22704732Y13699500D01*
X-22382940Y13699500D01*
X-22315901Y13679815D01*
X-22295259Y13663181D01*
X-21854027Y13221949D01*
X-21820542Y13160626D01*
X-21823322Y13097378D01*
X-21868592Y12952102D01*
X-21871054Y12925000D01*
X-19124000Y12925000D01*
X-19056961Y12905315D01*
X-19011206Y12852511D01*
X-19000000Y12801000D01*
X-19000000Y12449000D01*
X-19019685Y12381961D01*
X-19072489Y12336206D01*
X-19124000Y12325000D01*
X-21882740Y12325000D01*
X-21916296Y12304652D01*
X-21948114Y12300500D01*
X-27417060Y12300500D01*
X-27484099Y12320185D01*
X-27504741Y12336819D01*
X-27663181Y12495259D01*
X-27696666Y12556582D01*
X-27699500Y12582940D01*
X-27699500Y16075500D01*
X-27679815Y16142539D01*
X-27627011Y16188294D01*
X-27575500Y16199500D01*
X-26095268Y16199500D01*
X-26031119Y16181617D01*
X-26009291Y16168422D01*
X-25989606Y16156522D01*
X-25827196Y16105914D01*
X-25756616Y16099500D01*
X-25756613Y16099500D01*
X-23043387Y16099500D01*
X-23043384Y16099500D01*
X-22972804Y16105914D01*
X-22810394Y16156522D01*
X-22664815Y16244528D01*
X-22544528Y16364815D01*
X-22456522Y16510394D01*
X-22405914Y16672804D01*
X-22399500Y16743384D01*
X-22399500Y17256616D01*
X-22405914Y17327196D01*
X-22456522Y17489606D01*
X-22544528Y17635185D01*
X-22544530Y17635187D01*
X-22544531Y17635189D01*
X-22664812Y17755470D01*
X-22691463Y17771581D01*
X-22810394Y17843478D01*
X-22972804Y17894086D01*
X-22972806Y17894087D01*
X-22972808Y17894087D01*
X-23022222Y17898577D01*
X-23043384Y17900500D01*
X-25756616Y17900500D01*
X-25775855Y17898752D01*
X-25827193Y17894087D01*
X-25989609Y17843477D01*
X-26031119Y17818383D01*
X-26095268Y17800500D01*
X-27909806Y17800500D01*
X-28090194Y17800500D01*
X-28096112Y17799150D01*
X-28130911Y17791209D01*
X-28137765Y17790045D01*
X-28179257Y17785368D01*
X-28218661Y17771581D01*
X-28225342Y17769656D01*
X-28266065Y17760359D01*
X-28303692Y17742241D01*
X-28310115Y17739580D01*
X-28349519Y17725790D01*
X-28349525Y17725788D01*
X-28384878Y17703575D01*
X-28390964Y17700211D01*
X-28428586Y17682093D01*
X-28461232Y17656059D01*
X-28466903Y17652035D01*
X-28502266Y17629814D01*
X-28502267Y17629813D01*
X-28523590Y17608489D01*
X-28534252Y17597826D01*
X-28796684Y17335394D01*
X-29129814Y17002265D01*
X-29129817Y17002261D01*
X-29152034Y16966904D01*
X-29156059Y16961231D01*
X-29182090Y16928590D01*
X-29200209Y16890967D01*
X-29203573Y16884880D01*
X-29225788Y16849524D01*
X-29225792Y16849517D01*
X-29239584Y16810105D01*
X-29242245Y16803680D01*
X-29260361Y16766061D01*
X-29269656Y16725341D01*
X-29271581Y16718659D01*
X-29285368Y16679256D01*
X-29290045Y16637765D01*
X-29291209Y16630911D01*
X-29300500Y16590194D01*
X-29300500Y12109809D01*
X-29300499Y12109800D01*
X-29291209Y12069092D01*
X-29290045Y12062237D01*
X-29285368Y12020741D01*
X-29271580Y11981338D01*
X-29269655Y11974655D01*
X-29260361Y11933939D01*
X-29242241Y11896312D01*
X-29239579Y11889886D01*
X-29225788Y11850475D01*
X-29203578Y11815128D01*
X-29200213Y11809041D01*
X-29182090Y11771411D01*
X-29156060Y11738771D01*
X-29152034Y11733096D01*
X-29129818Y11697741D01*
X-29129816Y11697738D01*
X-28944259Y11512181D01*
X-28910774Y11450858D01*
X-28915758Y11381166D01*
X-28957630Y11325233D01*
X-29023094Y11300816D01*
X-29031940Y11300500D01*
X-29617060Y11300500D01*
X-29684099Y11320185D01*
X-29704741Y11336819D01*
X-33497738Y15129816D01*
X-33497741Y15129818D01*
X-33533096Y15152034D01*
X-33538771Y15156060D01*
X-33571411Y15182090D01*
X-33609041Y15200213D01*
X-33615128Y15203578D01*
X-33650475Y15225788D01*
X-33689886Y15239579D01*
X-33696312Y15242241D01*
X-33733939Y15260361D01*
X-33774655Y15269655D01*
X-33781338Y15271580D01*
X-33820741Y15285368D01*
X-33862237Y15290045D01*
X-33869092Y15291209D01*
X-33909800Y15300499D01*
X-33909804Y15300500D01*
X-33909806Y15300500D01*
X-33909809Y15300500D01*
X-33916724Y15301279D01*
X-33916444Y15303765D01*
X-33968881Y15318383D01*
X-34010392Y15343477D01*
X-34010393Y15343478D01*
X-34010394Y15343478D01*
X-34172804Y15394086D01*
X-34172806Y15394087D01*
X-34172808Y15394087D01*
X-34222222Y15398577D01*
X-34243384Y15400500D01*
X-36956616Y15400500D01*
X-36975855Y15398752D01*
X-37027193Y15394087D01*
X-37189607Y15343478D01*
X-37335189Y15255470D01*
X-37455470Y15135189D01*
X-37543478Y14989607D01*
X-37594087Y14827193D01*
X-37600500Y14756614D01*
X-37600500Y14243387D01*
X-37594087Y14172808D01*
X-37594087Y14172806D01*
X-37594086Y14172804D01*
X-37575701Y14113803D01*
X-37543478Y14010394D01*
X-37455470Y13864812D01*
X-37335189Y13744531D01*
X-37335187Y13744530D01*
X-37335185Y13744528D01*
X-37189606Y13656522D01*
X-37027196Y13605914D01*
X-36956616Y13599500D01*
X-36956613Y13599500D01*
X-34282940Y13599500D01*
X-34215901Y13579815D01*
X-34195259Y13563181D01*
X-30644259Y10012181D01*
X-30610774Y9950858D01*
X-30615758Y9881166D01*
X-30657630Y9825233D01*
X-30723094Y9800816D01*
X-30731940Y9800500D01*
X-34884806Y9800500D01*
X-35065194Y9800500D01*
X-35071112Y9799150D01*
X-35105911Y9791209D01*
X-35112765Y9790045D01*
X-35154256Y9785368D01*
X-35193659Y9771581D01*
X-35200341Y9769656D01*
X-35241061Y9760361D01*
X-35278680Y9742245D01*
X-35285105Y9739584D01*
X-35324517Y9725792D01*
X-35324524Y9725788D01*
X-35359880Y9703573D01*
X-35365967Y9700209D01*
X-35403590Y9682090D01*
X-35436231Y9656059D01*
X-35441904Y9652034D01*
X-35477261Y9629817D01*
X-35477265Y9629814D01*
X-36495259Y8611819D01*
X-36556582Y8578334D01*
X-36582940Y8575500D01*
X-36631616Y8575500D01*
X-36650855Y8573752D01*
X-36702193Y8569087D01*
X-36864607Y8518478D01*
X-37010189Y8430470D01*
X-37010190Y8430469D01*
X-37112319Y8328339D01*
X-37173642Y8294854D01*
X-37243334Y8299838D01*
X-37287681Y8328339D01*
X-37389812Y8430470D01*
X-37535394Y8518478D01*
X-37566093Y8528044D01*
X-37697804Y8569086D01*
X-37697806Y8569087D01*
X-37697808Y8569087D01*
X-37747222Y8573577D01*
X-37768384Y8575500D01*
X-38281616Y8575500D01*
X-38300855Y8573752D01*
X-38352193Y8569087D01*
X-38514607Y8518478D01*
X-38660189Y8430470D01*
X-38660190Y8430469D01*
X-38753839Y8336819D01*
X-38815162Y8303334D01*
X-38841520Y8300500D01*
X-38945887Y8300500D01*
X-39012926Y8320185D01*
X-39058681Y8372989D01*
X-39062296Y8382193D01*
X-39063000Y8383703D01*
X-39152032Y8528044D01*
X-39271956Y8647968D01*
X-39271960Y8647971D01*
X-39416295Y8736999D01*
X-39416301Y8737002D01*
X-39416303Y8737003D01*
X-39437693Y8744091D01*
X-39577291Y8790349D01*
X-39676654Y8800500D01*
X-40523338Y8800500D01*
X-40523356Y8800499D01*
X-40622708Y8790350D01*
X-40622711Y8790349D01*
X-40783695Y8737004D01*
X-40783706Y8736999D01*
X-40928041Y8647971D01*
X-40928045Y8647968D01*
X-41047969Y8528044D01*
X-41137001Y8383703D01*
X-41140053Y8377155D01*
X-41141662Y8377905D01*
X-41176184Y8328047D01*
X-41240701Y8301227D01*
X-41254113Y8300500D01*
X-41345887Y8300500D01*
X-41412926Y8320185D01*
X-41458681Y8372989D01*
X-41462296Y8382193D01*
X-41463000Y8383703D01*
X-41552032Y8528044D01*
X-41671956Y8647968D01*
X-41671960Y8647971D01*
X-41816295Y8736999D01*
X-41816301Y8737002D01*
X-41816303Y8737003D01*
X-41837693Y8744091D01*
X-41977291Y8790349D01*
X-42076654Y8800500D01*
X-42923338Y8800500D01*
X-42923358Y8800498D01*
X-42963400Y8796408D01*
X-43032093Y8809178D01*
X-43082976Y8857060D01*
X-43100000Y8919766D01*
X-43100000Y9500000D01*
X-49875500Y9500000D01*
X-49942539Y9519685D01*
X-49988294Y9572489D01*
X-49999500Y9624000D01*
X-49999500Y10407859D01*
X-49979815Y10474898D01*
X-49927011Y10520653D01*
X-49857853Y10530597D01*
X-49832165Y10524040D01*
X-49784881Y10506404D01*
X-49784873Y10506402D01*
X-49725345Y10500001D01*
X-49725328Y10500000D01*
X-47437500Y10500000D01*
X-47437500Y11450000D01*
X-46837500Y11450000D01*
X-46837500Y10500000D01*
X-44549672Y10500000D01*
X-44549656Y10500001D01*
X-44490128Y10506402D01*
X-44490121Y10506404D01*
X-44355414Y10556646D01*
X-44355407Y10556650D01*
X-44240313Y10642810D01*
X-44240310Y10642813D01*
X-44154150Y10757907D01*
X-44154146Y10757914D01*
X-44119800Y10850000D01*
X-43597273Y10850000D01*
X-43589856Y10777393D01*
X-43536548Y10616519D01*
X-43536543Y10616508D01*
X-43447576Y10472272D01*
X-43447573Y10472268D01*
X-43327733Y10352428D01*
X-43327729Y10352425D01*
X-43183493Y10263458D01*
X-43183482Y10263453D01*
X-43022607Y10210145D01*
X-42923317Y10200001D01*
X-42800001Y10200001D01*
X-42800000Y10200002D01*
X-42800000Y10850000D01*
X-43597273Y10850000D01*
X-44119800Y10850000D01*
X-44103904Y10892621D01*
X-44103902Y10892628D01*
X-44097501Y10952156D01*
X-44097500Y10952173D01*
X-44097500Y11450000D01*
X-43597274Y11450000D01*
X-42800000Y11450000D01*
X-42800000Y12100000D01*
X-42200000Y12100000D01*
X-42200000Y10200001D01*
X-42076692Y10200001D01*
X-42076678Y10200002D01*
X-41977393Y10210145D01*
X-41816519Y10263453D01*
X-41816508Y10263458D01*
X-41672272Y10352425D01*
X-41672268Y10352428D01*
X-41552428Y10472268D01*
X-41552425Y10472272D01*
X-41463458Y10616508D01*
X-41463453Y10616519D01*
X-41417706Y10754573D01*
X-41377934Y10812018D01*
X-41313418Y10838841D01*
X-41244642Y10826526D01*
X-41193442Y10778983D01*
X-41182294Y10754573D01*
X-41136548Y10616519D01*
X-41136543Y10616508D01*
X-41047576Y10472272D01*
X-41047573Y10472268D01*
X-40927733Y10352428D01*
X-40927729Y10352425D01*
X-40783493Y10263458D01*
X-40783482Y10263453D01*
X-40622607Y10210145D01*
X-40523317Y10200001D01*
X-40400001Y10200001D01*
X-40400000Y10200002D01*
X-40400000Y10850000D01*
X-39800000Y10850000D01*
X-39800000Y10200001D01*
X-39676692Y10200001D01*
X-39676678Y10200002D01*
X-39577393Y10210145D01*
X-39416519Y10263453D01*
X-39416508Y10263458D01*
X-39272272Y10352425D01*
X-39272268Y10352428D01*
X-39152428Y10472268D01*
X-39152425Y10472272D01*
X-39063458Y10616508D01*
X-39063452Y10616521D01*
X-39010144Y10777396D01*
X-39002726Y10850000D01*
X-39800000Y10850000D01*
X-40400000Y10850000D01*
X-40400000Y12100000D01*
X-39800000Y12100000D01*
X-39800000Y11450000D01*
X-39002727Y11450000D01*
X-39002727Y11450001D01*
X-39010145Y11522608D01*
X-39063453Y11683482D01*
X-39063458Y11683493D01*
X-39152425Y11827729D01*
X-39152428Y11827733D01*
X-39272268Y11947573D01*
X-39272272Y11947576D01*
X-39416508Y12036543D01*
X-39416519Y12036548D01*
X-39577394Y12089856D01*
X-39676678Y12100000D01*
X-39800000Y12100000D01*
X-40400000Y12100000D01*
X-40523309Y12100000D01*
X-40523324Y12099999D01*
X-40622608Y12089856D01*
X-40783482Y12036548D01*
X-40783493Y12036543D01*
X-40927729Y11947576D01*
X-40927733Y11947573D01*
X-41047573Y11827733D01*
X-41047576Y11827729D01*
X-41136543Y11683493D01*
X-41136548Y11683482D01*
X-41182294Y11545428D01*
X-41222067Y11487983D01*
X-41286583Y11461160D01*
X-41355358Y11473475D01*
X-41406558Y11521018D01*
X-41417706Y11545428D01*
X-41463453Y11683482D01*
X-41463458Y11683493D01*
X-41552425Y11827729D01*
X-41552428Y11827733D01*
X-41672268Y11947573D01*
X-41672272Y11947576D01*
X-41816508Y12036543D01*
X-41816519Y12036548D01*
X-41977394Y12089856D01*
X-42076678Y12100000D01*
X-42200000Y12100000D01*
X-42800000Y12100000D01*
X-42923309Y12100000D01*
X-42923324Y12099999D01*
X-43022608Y12089856D01*
X-43183482Y12036548D01*
X-43183493Y12036543D01*
X-43327729Y11947576D01*
X-43327733Y11947573D01*
X-43447573Y11827733D01*
X-43447576Y11827729D01*
X-43536543Y11683493D01*
X-43536549Y11683480D01*
X-43589857Y11522605D01*
X-43597274Y11450000D01*
X-44097500Y11450000D01*
X-46837500Y11450000D01*
X-47437500Y11450000D01*
X-47437500Y13000000D01*
X-46837500Y13000000D01*
X-46837500Y12050000D01*
X-44097500Y12050000D01*
X-44097500Y12547828D01*
X-44097501Y12547845D01*
X-44103902Y12607373D01*
X-44103904Y12607380D01*
X-44154146Y12742087D01*
X-44154150Y12742094D01*
X-44240310Y12857188D01*
X-44240313Y12857191D01*
X-44355407Y12943351D01*
X-44355414Y12943355D01*
X-44490121Y12993597D01*
X-44490128Y12993599D01*
X-44549656Y13000000D01*
X-46837500Y13000000D01*
X-47437500Y13000000D01*
X-49725345Y13000000D01*
X-49784873Y12993599D01*
X-49784884Y12993596D01*
X-49825587Y12978415D01*
X-49895279Y12973431D01*
X-49956602Y13006917D01*
X-49990086Y13068241D01*
X-49992603Y13103434D01*
X-49981014Y13265464D01*
X-49979986Y13273097D01*
X-49956847Y13389421D01*
X-49952279Y13410422D01*
X-49925467Y13533677D01*
X-49923608Y13540375D01*
X-49883185Y13659457D01*
X-49833841Y13791749D01*
X-49831367Y13797480D01*
X-49774417Y13912964D01*
X-49707821Y14034924D01*
X-49704981Y14039616D01*
X-49633437Y14146689D01*
X-49631572Y14149324D01*
X-49549709Y14258679D01*
X-49546756Y14262322D01*
X-49461497Y14359541D01*
X-49458802Y14362419D01*
X-49362419Y14458802D01*
X-49359541Y14461497D01*
X-49262322Y14546756D01*
X-49258679Y14549709D01*
X-49149324Y14631572D01*
X-49146689Y14633437D01*
X-49039616Y14704981D01*
X-49034924Y14707821D01*
X-48912964Y14774417D01*
X-48797480Y14831367D01*
X-48791749Y14833841D01*
X-48659457Y14883185D01*
X-48540375Y14923608D01*
X-48533677Y14925467D01*
X-48389421Y14956847D01*
X-48383272Y14958071D01*
X-48273097Y14979986D01*
X-48265464Y14981014D01*
X-48083756Y14994011D01*
X-48030789Y14997483D01*
X-48002019Y14999367D01*
X-47997964Y14999500D01*
X-43868887Y14999500D01*
X-43868880Y14999500D01*
X-43608884Y15033730D01*
X-43355581Y15101602D01*
X-43113303Y15201957D01*
X-42886197Y15333076D01*
X-42678149Y15492718D01*
X-42678145Y15492723D01*
X-42678140Y15492726D01*
X-42492726Y15678140D01*
X-42492723Y15678145D01*
X-42492718Y15678149D01*
X-42333076Y15886197D01*
X-42201957Y16113303D01*
X-42101602Y16355581D01*
X-42033730Y16608884D01*
X-42016022Y16743387D01*
X-37600500Y16743387D01*
X-37594087Y16672808D01*
X-37594087Y16672806D01*
X-37594086Y16672804D01*
X-37543478Y16510394D01*
X-37495854Y16431614D01*
X-37455470Y16364812D01*
X-37335189Y16244531D01*
X-37335187Y16244530D01*
X-37335185Y16244528D01*
X-37189606Y16156522D01*
X-37027196Y16105914D01*
X-36956616Y16099500D01*
X-36956613Y16099500D01*
X-34243387Y16099500D01*
X-34243384Y16099500D01*
X-34172804Y16105914D01*
X-34010394Y16156522D01*
X-33864815Y16244528D01*
X-33744528Y16364815D01*
X-33656522Y16510394D01*
X-33605914Y16672804D01*
X-33599500Y16743384D01*
X-33599500Y17256616D01*
X-33605914Y17327196D01*
X-33656522Y17489606D01*
X-33744528Y17635185D01*
X-33744530Y17635187D01*
X-33744531Y17635189D01*
X-33864812Y17755470D01*
X-33891463Y17771581D01*
X-34010394Y17843478D01*
X-34172804Y17894086D01*
X-34172806Y17894087D01*
X-34172808Y17894087D01*
X-34222222Y17898577D01*
X-34243384Y17900500D01*
X-36956616Y17900500D01*
X-36975855Y17898752D01*
X-37027193Y17894087D01*
X-37189607Y17843478D01*
X-37335189Y17755470D01*
X-37455470Y17635189D01*
X-37543478Y17489607D01*
X-37594087Y17327193D01*
X-37600500Y17256614D01*
X-37600500Y16743387D01*
X-42016022Y16743387D01*
X-41999500Y16868880D01*
X-41999500Y17000000D01*
X-41999500Y17000500D01*
X-41999500Y19200000D01*
X-37596054Y19200000D01*
X-37593591Y19172894D01*
X-37543020Y19010605D01*
X-37455073Y18865123D01*
X-37334878Y18744928D01*
X-37189396Y18656981D01*
X-37189397Y18656981D01*
X-37027106Y18606410D01*
X-37027107Y18606410D01*
X-36956573Y18600001D01*
X-35900001Y18600001D01*
X-35900000Y18600002D01*
X-35900000Y19200000D01*
X-35300000Y19200000D01*
X-35300000Y18600001D01*
X-34243419Y18600001D01*
X-34172898Y18606409D01*
X-34172893Y18606410D01*
X-34010604Y18656982D01*
X-33865123Y18744928D01*
X-33744928Y18865123D01*
X-33656981Y19010605D01*
X-33606410Y19172894D01*
X-33603946Y19200000D01*
X-35300000Y19200000D01*
X-35900000Y19200000D01*
X-37596054Y19200000D01*
X-41999500Y19200000D01*
X-41999500Y19870500D01*
X-41979815Y19937539D01*
X-41927011Y19983294D01*
X-41875500Y19994500D01*
X-37709949Y19994500D01*
X-37642910Y19974815D01*
X-37597155Y19922011D01*
X-37587211Y19852853D01*
X-37591564Y19833609D01*
X-37593591Y19827105D01*
X-37596054Y19800000D01*
X-33603946Y19800000D01*
X-33606410Y19827105D01*
X-33612657Y19847154D01*
X-33613809Y19917014D01*
X-33577008Y19976407D01*
X-33519468Y20003870D01*
X-33519789Y20005347D01*
X-33516200Y20006128D01*
X-33465033Y20017259D01*
X-33430803Y20028653D01*
X-33362503Y20051384D01*
X-33362499Y20051387D01*
X-33362496Y20051387D01*
X-33241457Y20129175D01*
X-33188653Y20174930D01*
X-33094433Y20283664D01*
X-33034662Y20414541D01*
X-33014977Y20481580D01*
X-33014976Y20481584D01*
X-32994500Y20624000D01*
X-32994500Y24300000D01*
X-32424999Y24300000D01*
X-32424999Y24268418D01*
X-32418592Y24197898D01*
X-32418591Y24197893D01*
X-32368019Y24035604D01*
X-32280073Y23890123D01*
X-32159878Y23769928D01*
X-32014396Y23681981D01*
X-32014397Y23681981D01*
X-31852106Y23631410D01*
X-31852108Y23631410D01*
X-31825000Y23628947D01*
X-31825000Y23628948D01*
X-31225000Y23628948D01*
X-31197892Y23631410D01*
X-31166391Y23641226D01*
X-31096531Y23642378D01*
X-31037138Y23605578D01*
X-31007070Y23542509D01*
X-31005500Y23522841D01*
X-31005500Y23124000D01*
X-31005499Y23123991D01*
X-30993948Y23016550D01*
X-30993946Y23016538D01*
X-30982740Y22965028D01*
X-30948617Y22862503D01*
X-30948614Y22862497D01*
X-30870829Y22741463D01*
X-30870821Y22741452D01*
X-30825077Y22688660D01*
X-30825074Y22688657D01*
X-30825070Y22688653D01*
X-30716336Y22594433D01*
X-30716333Y22594432D01*
X-30716332Y22594431D01*
X-30622075Y22551384D01*
X-30585459Y22534662D01*
X-30540643Y22521503D01*
X-30518425Y22514978D01*
X-30518420Y22514977D01*
X-30518416Y22514976D01*
X-30376000Y22494500D01*
X-30375997Y22494500D01*
X-23624010Y22494500D01*
X-23624000Y22494500D01*
X-23516544Y22506053D01*
X-23465033Y22517259D01*
X-23430803Y22528653D01*
X-23362503Y22551384D01*
X-23362499Y22551387D01*
X-23362496Y22551387D01*
X-23241457Y22629175D01*
X-23188653Y22674930D01*
X-23094433Y22783664D01*
X-23034662Y22914541D01*
X-23014977Y22981580D01*
X-23014976Y22981584D01*
X-22994500Y23124000D01*
X-22994500Y31876000D01*
X-23006053Y31983456D01*
X-23017259Y32034967D01*
X-23017363Y32035278D01*
X-23051385Y32137501D01*
X-23078965Y32180415D01*
X-23098650Y32247455D01*
X-23087445Y32298966D01*
X-23034662Y32414541D01*
X-23014977Y32481580D01*
X-23014976Y32481584D01*
X-22994500Y32624000D01*
X-22994500Y41376000D01*
X-23006053Y41483456D01*
X-23017259Y41534967D01*
X-23017363Y41535278D01*
X-23051384Y41637498D01*
X-23051387Y41637504D01*
X-23129172Y41758538D01*
X-23129175Y41758543D01*
X-23129180Y41758549D01*
X-23174924Y41811341D01*
X-23174928Y41811344D01*
X-23174930Y41811347D01*
X-23283664Y41905567D01*
X-23283667Y41905569D01*
X-23283669Y41905570D01*
X-23414535Y41965336D01*
X-23414540Y41965338D01*
X-23414541Y41965338D01*
X-23437142Y41971975D01*
X-23481575Y41985022D01*
X-23481581Y41985024D01*
X-23552792Y41995262D01*
X-23624000Y42005500D01*
X-23624003Y42005500D01*
X-25456524Y42005500D01*
X-27289047Y42005499D01*
X-27291450Y42005493D01*
X-27291451Y42005493D01*
X-27332635Y41999372D01*
X-27433767Y41984340D01*
X-27433770Y41984340D01*
X-27433778Y41984338D01*
X-27499357Y41964743D01*
X-27500282Y41964490D01*
X-27500711Y41964338D01*
X-27500715Y41964337D01*
X-27500716Y41964336D01*
X-27534706Y41948617D01*
X-27631307Y41903944D01*
X-27631310Y41903943D01*
X-27773894Y41811347D01*
X-27897583Y41731023D01*
X-27903199Y41727780D01*
X-28195798Y41578694D01*
X-28201731Y41576053D01*
X-28508297Y41458373D01*
X-28514473Y41456367D01*
X-28831677Y41371372D01*
X-28838029Y41370022D01*
X-29162366Y41318653D01*
X-29168825Y41317974D01*
X-29496753Y41300787D01*
X-29503247Y41300787D01*
X-29831176Y41317974D01*
X-29837634Y41318653D01*
X-30053105Y41352779D01*
X-30161982Y41370023D01*
X-30168325Y41371372D01*
X-30220357Y41385313D01*
X-30235006Y41388774D01*
X-30256809Y41393245D01*
X-30286417Y41398404D01*
X-30286419Y41398404D01*
X-30430294Y41398404D01*
X-30461154Y41393967D01*
X-30499455Y41388459D01*
X-30499460Y41388458D01*
X-30499464Y41388457D01*
X-30637502Y41347925D01*
X-30637508Y41347922D01*
X-30758538Y41270140D01*
X-30758549Y41270132D01*
X-30811341Y41224388D01*
X-30905567Y41115647D01*
X-30905570Y41115643D01*
X-30965336Y40984777D01*
X-30965338Y40984770D01*
X-30985023Y40917731D01*
X-30985024Y40917727D01*
X-30990543Y40879344D01*
X-30990896Y40876886D01*
X-31019921Y40813331D01*
X-31078700Y40775557D01*
X-31124859Y40771043D01*
X-31125000Y40771056D01*
X-31125000Y38886362D01*
X-31144685Y38819323D01*
X-31161319Y38798681D01*
X-31175000Y38785000D01*
X-31175000Y35350001D01*
X-31129500Y35350001D01*
X-31062461Y35330316D01*
X-31016706Y35277512D01*
X-31005500Y35226001D01*
X-31005500Y32624000D01*
X-31005499Y32623991D01*
X-30993948Y32516550D01*
X-30993946Y32516538D01*
X-30982740Y32465028D01*
X-30948617Y32362503D01*
X-30948614Y32362497D01*
X-30921036Y32319586D01*
X-30901351Y32252547D01*
X-30912557Y32201034D01*
X-30965336Y32085466D01*
X-30985022Y32018425D01*
X-30985024Y32018420D01*
X-31001405Y31904484D01*
X-31005498Y31876010D01*
X-31005500Y31875999D01*
X-31005500Y29174000D01*
X-31025185Y29106961D01*
X-31077989Y29061206D01*
X-31129500Y29050000D01*
X-31175000Y29050000D01*
X-31175000Y25411362D01*
X-31194685Y25344323D01*
X-31211319Y25323681D01*
X-31225000Y25310000D01*
X-31225000Y23628948D01*
X-31825000Y23628948D01*
X-31825000Y24300000D01*
X-32424999Y24300000D01*
X-32994500Y24300000D01*
X-32994500Y26900000D01*
X-32549999Y26900000D01*
X-32549999Y26050014D01*
X-32539506Y25947303D01*
X-32484359Y25780881D01*
X-32484357Y25780876D01*
X-32392316Y25631655D01*
X-32263237Y25502576D01*
X-32265485Y25500329D01*
X-32233317Y25454818D01*
X-32230238Y25385016D01*
X-32262956Y25326995D01*
X-32280073Y25309878D01*
X-32368020Y25164396D01*
X-32418591Y25002107D01*
X-32425000Y24931573D01*
X-32425000Y24900000D01*
X-31825000Y24900000D01*
X-31825000Y25513638D01*
X-31805315Y25580677D01*
X-31788681Y25601319D01*
X-31775000Y25615000D01*
X-31775000Y26900000D01*
X-32549999Y26900000D01*
X-32994500Y26900000D01*
X-32994500Y27500000D01*
X-32550000Y27500000D01*
X-31775000Y27500000D01*
X-31775000Y29050000D01*
X-31775001Y29050001D01*
X-31849972Y29050000D01*
X-31849989Y29049999D01*
X-31952698Y29039506D01*
X-32119120Y28984359D01*
X-32119125Y28984357D01*
X-32268346Y28892316D01*
X-32392316Y28768346D01*
X-32484357Y28619125D01*
X-32484359Y28619120D01*
X-32539506Y28452698D01*
X-32539507Y28452691D01*
X-32550000Y28349987D01*
X-32550000Y27500000D01*
X-32994500Y27500000D01*
X-32994500Y31876000D01*
X-33006053Y31983456D01*
X-33017259Y32034967D01*
X-33017363Y32035278D01*
X-33051385Y32137501D01*
X-33078965Y32180415D01*
X-33098650Y32247455D01*
X-33087445Y32298966D01*
X-33034662Y32414541D01*
X-33014977Y32481580D01*
X-33014976Y32481584D01*
X-32994500Y32624000D01*
X-32994500Y36900000D01*
X-32549999Y36900000D01*
X-32549999Y36050014D01*
X-32539506Y35947303D01*
X-32484359Y35780881D01*
X-32484357Y35780876D01*
X-32392316Y35631655D01*
X-32268346Y35507685D01*
X-32119125Y35415644D01*
X-32119120Y35415642D01*
X-31952698Y35360495D01*
X-31952691Y35360494D01*
X-31849981Y35350001D01*
X-31775001Y35350002D01*
X-31775000Y35350002D01*
X-31775000Y36900000D01*
X-32549999Y36900000D01*
X-32994500Y36900000D01*
X-32994500Y37500000D01*
X-32550000Y37500000D01*
X-31775000Y37500000D01*
X-31775000Y38988638D01*
X-31755315Y39055677D01*
X-31738681Y39076319D01*
X-31725000Y39090000D01*
X-31725000Y39500000D01*
X-32324999Y39500000D01*
X-32324999Y39468418D01*
X-32318592Y39397898D01*
X-32318591Y39397893D01*
X-32268019Y39235604D01*
X-32180525Y39090872D01*
X-32162689Y39023318D01*
X-32184206Y38956844D01*
X-32221544Y38921184D01*
X-32268344Y38892318D01*
X-32392316Y38768346D01*
X-32484357Y38619125D01*
X-32484359Y38619120D01*
X-32539506Y38452698D01*
X-32539507Y38452691D01*
X-32550000Y38349987D01*
X-32550000Y37500000D01*
X-32994500Y37500000D01*
X-32994500Y40100000D01*
X-32325000Y40100000D01*
X-31725000Y40100000D01*
X-31725000Y40771054D01*
X-31752107Y40768591D01*
X-31914396Y40718020D01*
X-32059878Y40630073D01*
X-32180073Y40509878D01*
X-32268020Y40364396D01*
X-32318591Y40202107D01*
X-32325000Y40131573D01*
X-32325000Y40100000D01*
X-32994500Y40100000D01*
X-32994500Y48875500D01*
X-32974815Y48942539D01*
X-32922011Y48988294D01*
X-32870500Y48999500D01*
X-13129500Y48999500D01*
X-13062461Y48979815D01*
G37*
%TD.AperFunction*%
%TD*%
%TA.AperFunction,Conductor*%
%TO.N,Net-(L2-Pad2)*%
G36*
X-14556961Y41480315D02*
G01*
X-14511206Y41427511D01*
X-14500000Y41376000D01*
X-14500000Y32629500D01*
X-14519685Y32562461D01*
X-14572489Y32516706D01*
X-14624000Y32505500D01*
X-21376000Y32505500D01*
X-21443039Y32525185D01*
X-21488794Y32577989D01*
X-21500000Y32629500D01*
X-21500000Y41376000D01*
X-21480315Y41443039D01*
X-21427511Y41488794D01*
X-21376000Y41500000D01*
X-14624000Y41500000D01*
X-14556961Y41480315D01*
G37*
%TD.AperFunction*%
%TD*%
M02*
