%TF.GenerationSoftware,KiCad,Pcbnew,7.0.8-7.0.8~ubuntu22.04.1*%
%TF.CreationDate,2023-10-31T14:27:33+02:00*%
%TF.ProjectId,lisn,6c69736e-2e6b-4696-9361-645f70636258,rev?*%
%TF.SameCoordinates,PXa6e49c0PY6dac2c0*%
%TF.FileFunction,Copper,L2,Bot*%
%TF.FilePolarity,Positive*%
%FSLAX46Y46*%
G04 Gerber Fmt 4.6, Leading zero omitted, Abs format (unit mm)*
G04 Created by KiCad (PCBNEW 7.0.8-7.0.8~ubuntu22.04.1) date 2023-10-31 14:27:33*
%MOMM*%
%LPD*%
G01*
G04 APERTURE LIST*
%TA.AperFunction,ComponentPad*%
%ADD10C,7.400000*%
%TD*%
%TA.AperFunction,ComponentPad*%
%ADD11C,6.400000*%
%TD*%
%TA.AperFunction,SMDPad,CuDef*%
%ADD12R,5.080000X1.500000*%
%TD*%
G04 APERTURE END LIST*
D10*
%TO.P,J6,1,Pin_1*%
%TO.N,/OUT_M*%
X-4500000Y42500000D03*
%TD*%
D11*
%TO.P,J3,1,Pin_1*%
%TO.N,GND*%
X-29500000Y44500000D03*
%TD*%
D10*
%TO.P,J5,1,Pin_1*%
%TO.N,/OUT_P*%
X-4500000Y23500000D03*
%TD*%
D11*
%TO.P,J4,1,Pin_1*%
%TO.N,GND*%
X-29500000Y4500000D03*
%TD*%
D12*
%TO.P,J7,2,Ext*%
%TO.N,GND*%
X-47137500Y3250000D03*
X-47137500Y11750000D03*
%TD*%
%TA.AperFunction,Conductor*%
%TO.N,GND*%
G36*
X-1997981Y48999367D02*
G01*
X-1962802Y48997062D01*
X-1916292Y48994014D01*
X-1734541Y48981015D01*
X-1726900Y48979985D01*
X-1633262Y48961359D01*
X-1610580Y48956847D01*
X-1584977Y48951278D01*
X-1466334Y48925469D01*
X-1459617Y48923605D01*
X-1340563Y48883191D01*
X-1243329Y48846924D01*
X-1208259Y48833843D01*
X-1202501Y48831357D01*
X-1087048Y48774422D01*
X-965094Y48707830D01*
X-960366Y48704968D01*
X-903429Y48666924D01*
X-853351Y48633463D01*
X-850642Y48631546D01*
X-741348Y48549729D01*
X-737655Y48546735D01*
X-640498Y48461531D01*
X-637552Y48458772D01*
X-541231Y48362451D01*
X-538474Y48359508D01*
X-453271Y48262352D01*
X-450268Y48258647D01*
X-398436Y48189408D01*
X-368457Y48149361D01*
X-366539Y48146651D01*
X-295038Y48039643D01*
X-292172Y48034909D01*
X-225579Y47912953D01*
X-168645Y47797501D01*
X-166159Y47791743D01*
X-129788Y47694232D01*
X-116804Y47659422D01*
X-111711Y47644419D01*
X-76403Y47540404D01*
X-74528Y47533648D01*
X-43154Y47389421D01*
X-20020Y47273120D01*
X-18985Y47265440D01*
X-5983Y47083650D01*
X-633Y47002034D01*
X-500Y46997977D01*
X-500Y2002025D01*
X-633Y1997968D01*
X-5983Y1916352D01*
X-18985Y1734562D01*
X-20020Y1726882D01*
X-43154Y1610580D01*
X-74528Y1466354D01*
X-76403Y1459599D01*
X-110703Y1358552D01*
X-116792Y1340612D01*
X-116805Y1340575D01*
X-166159Y1208259D01*
X-168645Y1202501D01*
X-225579Y1087048D01*
X-292172Y965093D01*
X-295039Y960359D01*
X-366539Y853351D01*
X-368457Y850641D01*
X-450256Y741369D01*
X-453277Y737643D01*
X-538471Y640498D01*
X-541245Y637536D01*
X-637536Y541245D01*
X-640498Y538471D01*
X-737643Y453277D01*
X-741369Y450256D01*
X-850641Y368457D01*
X-853351Y366539D01*
X-960359Y295039D01*
X-965093Y292172D01*
X-1087048Y225579D01*
X-1202501Y168645D01*
X-1208259Y166159D01*
X-1329044Y121107D01*
X-1340582Y116803D01*
X-1459599Y76403D01*
X-1466354Y74528D01*
X-1610580Y43154D01*
X-1726882Y20020D01*
X-1734562Y18985D01*
X-1916352Y5983D01*
X-1967418Y2636D01*
X-1997975Y633D01*
X-2002024Y500D01*
X-47997976Y500D01*
X-48002026Y633D01*
X-48040046Y3125D01*
X-48083650Y5983D01*
X-48265440Y18985D01*
X-48273120Y20020D01*
X-48389421Y43154D01*
X-48533648Y74528D01*
X-48540404Y76403D01*
X-48572119Y87169D01*
X-48659422Y116804D01*
X-48694232Y129788D01*
X-48791743Y166159D01*
X-48797501Y168645D01*
X-48912953Y225579D01*
X-49034909Y292172D01*
X-49039643Y295038D01*
X-49146651Y366539D01*
X-49149361Y368457D01*
X-49189408Y398436D01*
X-49258647Y450268D01*
X-49262352Y453271D01*
X-49359508Y538474D01*
X-49362451Y541231D01*
X-49458772Y637552D01*
X-49461531Y640498D01*
X-49494550Y678149D01*
X-49546735Y737655D01*
X-49549729Y741348D01*
X-49631546Y850642D01*
X-49633463Y853351D01*
X-49704964Y960359D01*
X-49707830Y965094D01*
X-49774422Y1087048D01*
X-49831357Y1202501D01*
X-49833843Y1208259D01*
X-49846924Y1243329D01*
X-49883195Y1340575D01*
X-49923605Y1459617D01*
X-49925469Y1466334D01*
X-49956847Y1610580D01*
X-49961359Y1633262D01*
X-49979985Y1726900D01*
X-49981015Y1734541D01*
X-49994014Y1916292D01*
X-49997062Y1962802D01*
X-49999367Y1997981D01*
X-49999500Y2002036D01*
X-49999500Y12997965D01*
X-49999367Y13002020D01*
X-49997607Y13028897D01*
X-49994011Y13083756D01*
X-49981014Y13265464D01*
X-49979986Y13273097D01*
X-49956847Y13389421D01*
X-49955882Y13393859D01*
X-49925467Y13533677D01*
X-49923608Y13540375D01*
X-49883185Y13659457D01*
X-49833841Y13791749D01*
X-49831367Y13797480D01*
X-49774417Y13912964D01*
X-49707821Y14034924D01*
X-49704981Y14039616D01*
X-49633437Y14146689D01*
X-49631572Y14149324D01*
X-49549709Y14258679D01*
X-49546756Y14262322D01*
X-49461497Y14359541D01*
X-49458802Y14362419D01*
X-49362419Y14458802D01*
X-49359541Y14461497D01*
X-49262322Y14546756D01*
X-49258679Y14549709D01*
X-49149324Y14631572D01*
X-49146689Y14633437D01*
X-49039616Y14704981D01*
X-49034924Y14707821D01*
X-48912964Y14774417D01*
X-48797480Y14831367D01*
X-48791749Y14833841D01*
X-48659457Y14883185D01*
X-48540375Y14923608D01*
X-48533677Y14925467D01*
X-48389421Y14956847D01*
X-48383272Y14958071D01*
X-48273097Y14979986D01*
X-48265464Y14981014D01*
X-48083756Y14994011D01*
X-48030789Y14997483D01*
X-48002019Y14999367D01*
X-47997964Y14999500D01*
X-43868887Y14999500D01*
X-43868880Y14999500D01*
X-43608884Y15033730D01*
X-43355581Y15101602D01*
X-43113303Y15201957D01*
X-42886197Y15333076D01*
X-42678149Y15492718D01*
X-42678145Y15492723D01*
X-42678140Y15492726D01*
X-42492726Y15678140D01*
X-42492723Y15678145D01*
X-42492718Y15678149D01*
X-42333076Y15886197D01*
X-42201957Y16113303D01*
X-42101602Y16355581D01*
X-42033730Y16608884D01*
X-41999500Y16868880D01*
X-41999500Y17000000D01*
X-41999500Y17000500D01*
X-41999500Y23500000D01*
X-8705566Y23500000D01*
X-8685315Y23087782D01*
X-8685315Y23087777D01*
X-8685314Y23087773D01*
X-8624756Y22679529D01*
X-8524473Y22279179D01*
X-8385445Y21890621D01*
X-8385438Y21890605D01*
X-8385436Y21890600D01*
X-8208978Y21517510D01*
X-8208976Y21517507D01*
X-7996802Y21163516D01*
X-7750942Y20832012D01*
X-7473785Y20526216D01*
X-7167989Y20249059D01*
X-7167983Y20249054D01*
X-6836487Y20003200D01*
X-6482490Y19791022D01*
X-6109400Y19614564D01*
X-6109391Y19614561D01*
X-6109380Y19614556D01*
X-5748262Y19485346D01*
X-5720811Y19475524D01*
X-5320465Y19375243D01*
X-4912218Y19314685D01*
X-4500000Y19294434D01*
X-4087782Y19314685D01*
X-3679535Y19375243D01*
X-3279189Y19475524D01*
X-3098620Y19540134D01*
X-2890621Y19614556D01*
X-2890615Y19614559D01*
X-2890600Y19614564D01*
X-2517510Y19791022D01*
X-2163513Y20003200D01*
X-1832017Y20249054D01*
X-1526216Y20526216D01*
X-1249054Y20832017D01*
X-1003200Y21163513D01*
X-791022Y21517510D01*
X-614564Y21890600D01*
X-475524Y22279189D01*
X-375243Y22679535D01*
X-314685Y23087782D01*
X-294434Y23500000D01*
X-314685Y23912218D01*
X-375243Y24320465D01*
X-475524Y24720811D01*
X-485346Y24748262D01*
X-614556Y25109380D01*
X-614563Y25109396D01*
X-614564Y25109400D01*
X-791022Y25482490D01*
X-1003200Y25836487D01*
X-1249054Y26167983D01*
X-1249059Y26167989D01*
X-1526216Y26473785D01*
X-1832012Y26750942D01*
X-2163516Y26996802D01*
X-2517507Y27208976D01*
X-2517506Y27208976D01*
X-2517510Y27208978D01*
X-2890600Y27385436D01*
X-2890604Y27385438D01*
X-2890605Y27385438D01*
X-2890621Y27385445D01*
X-3279179Y27524473D01*
X-3279185Y27524475D01*
X-3279189Y27524476D01*
X-3477795Y27574224D01*
X-3679529Y27624756D01*
X-3679534Y27624757D01*
X-3679535Y27624757D01*
X-3780423Y27639723D01*
X-4087773Y27685314D01*
X-4087777Y27685315D01*
X-4087782Y27685315D01*
X-4500000Y27705566D01*
X-4912218Y27685315D01*
X-4912224Y27685315D01*
X-4912228Y27685314D01*
X-5320472Y27624756D01*
X-5622684Y27549056D01*
X-5720811Y27524476D01*
X-5720814Y27524476D01*
X-5720822Y27524473D01*
X-6109380Y27385445D01*
X-6109396Y27385438D01*
X-6482494Y27208976D01*
X-6836485Y26996802D01*
X-7167989Y26750942D01*
X-7473785Y26473785D01*
X-7750942Y26167989D01*
X-7996802Y25836485D01*
X-8208976Y25482494D01*
X-8385438Y25109396D01*
X-8385445Y25109380D01*
X-8524473Y24720822D01*
X-8624756Y24320472D01*
X-8624757Y24320465D01*
X-8685315Y23912218D01*
X-8705566Y23500000D01*
X-41999500Y23500000D01*
X-41999500Y42500000D01*
X-8705566Y42500000D01*
X-8685315Y42087782D01*
X-8685315Y42087777D01*
X-8685314Y42087773D01*
X-8624756Y41679529D01*
X-8524473Y41279179D01*
X-8385445Y40890621D01*
X-8385438Y40890605D01*
X-8385436Y40890600D01*
X-8208978Y40517510D01*
X-8208976Y40517507D01*
X-7996802Y40163516D01*
X-7750942Y39832012D01*
X-7473785Y39526216D01*
X-7167989Y39249059D01*
X-7167983Y39249054D01*
X-6836487Y39003200D01*
X-6482490Y38791022D01*
X-6109400Y38614564D01*
X-6109391Y38614561D01*
X-6109380Y38614556D01*
X-5748262Y38485346D01*
X-5720811Y38475524D01*
X-5320465Y38375243D01*
X-4912218Y38314685D01*
X-4500000Y38294434D01*
X-4087782Y38314685D01*
X-3679535Y38375243D01*
X-3279189Y38475524D01*
X-3098620Y38540134D01*
X-2890621Y38614556D01*
X-2890615Y38614559D01*
X-2890600Y38614564D01*
X-2517510Y38791022D01*
X-2163513Y39003200D01*
X-1832017Y39249054D01*
X-1526216Y39526216D01*
X-1249054Y39832017D01*
X-1003200Y40163513D01*
X-791022Y40517510D01*
X-614564Y40890600D01*
X-475524Y41279189D01*
X-375243Y41679535D01*
X-314685Y42087782D01*
X-294434Y42500000D01*
X-314685Y42912218D01*
X-375243Y43320465D01*
X-475524Y43720811D01*
X-485346Y43748262D01*
X-614556Y44109380D01*
X-614563Y44109396D01*
X-614564Y44109400D01*
X-791022Y44482490D01*
X-1003200Y44836487D01*
X-1249054Y45167983D01*
X-1249059Y45167989D01*
X-1526216Y45473785D01*
X-1832012Y45750942D01*
X-2163516Y45996802D01*
X-2517507Y46208976D01*
X-2517506Y46208976D01*
X-2517510Y46208978D01*
X-2890600Y46385436D01*
X-2890604Y46385438D01*
X-2890605Y46385438D01*
X-2890621Y46385445D01*
X-3279179Y46524473D01*
X-3279185Y46524475D01*
X-3279189Y46524476D01*
X-3477795Y46574224D01*
X-3679529Y46624756D01*
X-3679534Y46624757D01*
X-3679535Y46624757D01*
X-3780423Y46639723D01*
X-4087773Y46685314D01*
X-4087777Y46685315D01*
X-4087782Y46685315D01*
X-4500000Y46705566D01*
X-4912218Y46685315D01*
X-4912224Y46685315D01*
X-4912228Y46685314D01*
X-5320472Y46624756D01*
X-5622684Y46549056D01*
X-5720811Y46524476D01*
X-5720814Y46524476D01*
X-5720822Y46524473D01*
X-6109380Y46385445D01*
X-6109396Y46385438D01*
X-6482494Y46208976D01*
X-6836485Y45996802D01*
X-7167989Y45750942D01*
X-7473785Y45473785D01*
X-7750942Y45167989D01*
X-7996802Y44836485D01*
X-8208976Y44482494D01*
X-8385438Y44109396D01*
X-8385445Y44109380D01*
X-8524473Y43720822D01*
X-8624756Y43320472D01*
X-8624757Y43320465D01*
X-8685315Y42912218D01*
X-8705566Y42500000D01*
X-41999500Y42500000D01*
X-41999500Y46997977D01*
X-41999367Y47002020D01*
X-41997607Y47028897D01*
X-41994011Y47083756D01*
X-41981014Y47265464D01*
X-41979986Y47273097D01*
X-41956847Y47389421D01*
X-41955882Y47393859D01*
X-41925467Y47533677D01*
X-41923608Y47540375D01*
X-41883185Y47659457D01*
X-41833841Y47791749D01*
X-41831367Y47797480D01*
X-41774417Y47912964D01*
X-41707821Y48034924D01*
X-41704981Y48039616D01*
X-41633437Y48146689D01*
X-41631572Y48149324D01*
X-41549709Y48258679D01*
X-41546756Y48262322D01*
X-41461497Y48359541D01*
X-41458802Y48362419D01*
X-41362419Y48458802D01*
X-41359541Y48461497D01*
X-41262322Y48546756D01*
X-41258679Y48549709D01*
X-41149324Y48631572D01*
X-41146689Y48633437D01*
X-41039616Y48704981D01*
X-41034924Y48707821D01*
X-40912964Y48774417D01*
X-40797480Y48831367D01*
X-40791749Y48833841D01*
X-40659457Y48883185D01*
X-40540375Y48923608D01*
X-40533677Y48925467D01*
X-40389421Y48956847D01*
X-40383272Y48958071D01*
X-40273097Y48979986D01*
X-40265464Y48981014D01*
X-40083756Y48994011D01*
X-40030789Y48997483D01*
X-40002019Y48999367D01*
X-39997964Y48999500D01*
X-2002036Y48999500D01*
X-1997981Y48999367D01*
G37*
%TD.AperFunction*%
%TD*%
M02*
